<svg xmlns="http://www.w3.org/2000/svg" width="750" height="741" fill="none"><g clip-path="url(#a)"><path fill="#132136" d="M0 805.547a1828.4 1828.4 0 0 1 363.618-.953c19.894 1.938 40.359 4.157 59.585-1.191 21.181-5.89 38.997-20.707 51.237-38.572 12.242-17.869 19.335-38.658 24.005-59.663 7.149-32.129 8.776-66.378-2.684-97.296-14.207-38.331-46.517-67.111-77.667-94.267-36.735-32.015-73.495-64.058-112.163-93.823-21.896-16.856-47.217-33.798-74.983-31.292-3.266.292-7.782 13.646-4.778 12.368-10.21 25.452-9.284 62.29 1.88 87.355 6.776 15.212 11.093 17.837 17.299 33.278s13.142 37.917 2.381 50.753c-8.717 10.404-23.199 14.329-36.908 15.576-13.712 1.248-27.741.429-41.044 3.904-24.905 6.512-44.485 29.134-46.89 54.189-1.29 13.426 1.655 28.101-5.566 39.6-9.162 14.588-29.436 16.598-46.166 21.717-40.154 12.288-69.11 53.019-66.838 94.026z"/><path fill="#132136" d="M230.757 370.084c-15.272 43.857-16.792 94.501 6.975 134.599 19.523 32.927 53.713 55.212 89.292 70.763 9.298 4.063 19.731 7.808 29.456 4.847 10.376-3.16 16.882-12.996 21.953-22.375 39.488-73.016 44.71-162.865 13.934-239.771-7.877-19.682-18.291-38.925-34.253-53.204-11.624-10.399-30.412-21.32-46.929-19.823-13.94 1.266-17.403 12.76-23.818 23.142-20.688 33.479-43.562 64.354-56.61 101.822"/><path fill="#FEECE4" d="M446.756 659.673c-.62 6.229-1.779 12.896-6.096 19.365-4.905 7.349-13.055 13.235-20.809 18.726q-53.414 37.824-106.827 75.652 124.491 10.056 248.981 20.118c9.842.791 21.925.803 31.701-7.23 6.243-5.131 9.494-12.02 12.349-18.403 12.56-28.061 114.039 22.191 116.709-4.301 3.448-34.259-166.057-152.404-190.924-249.367-.757-2.942-4.958-3.967-8.804-3.959-5.537.012-11.936 4.107-17.564 7.979a1408 1408 0 0 0-68.039 49.85c-3.736 2.91-17.928 11.921-19.509 15.82-2.532 6.268 9.551 5.084 13.447 7.256 8.479 4.739 10.671 17.742 12.88 26.904 3.098 12.868 3.969 26.88 2.505 41.59"/><path fill="#E7A38B" d="M496.224 640.943c10.536 26.231 29.553 49.147 53.654 64.656 8.123 5.227 16.814 9.646 24.438 15.54 7.624 5.896 14.28 13.605 16.453 22.858 2.711 11.541-1.858 23.393-6.351 34.392 34.285 13.103 71.678 18.148 108.391 15.409 6.719-.501 13.552-1.294 19.681-4.031 6.126-2.738 11.525-7.732 13.118-14.122 1.223-4.902.125-10.046-1.144-14.937-10.283-39.667-32.13-76.412-62.313-104.81-25.396-23.896-56.085-41.626-86.465-59.131l-48.637-28.02c-7.23-4.166-29.203-22.599-36.216-15.278-6.12 6.392-4.305 29.567-4.284 37.516.047 17.042 3.303 34.086 9.675 49.958"/><path fill="#E7A38B" d="M429.478 590.48c.735.194 1.387.418 1.896.701 8.477 4.737 10.669 17.741 12.878 26.902.45 1.879.842 3.792 1.2 5.719 12.298-13.506 32.42-35.454 34.875-38.403 10.839-13.02 28.702-28.052 27.077-46.118-17.673 3.987-35.787 15.543-50.132 26.079a185.8 185.8 0 0 0-27.794 25.12"/><path fill="#FEECE4" d="M540.473 450.284c-1.233-32.135-13.127-63.618-31.488-90.419-18.442-26.922-43.635-49.561-73.148-63.648-29.517-14.087-63.364-19.377-95.196-13.346-12.982 2.459-25.917 6.948-35.735 15.616-9.817 8.671-11.9 10.763-15.962 37.232-.993 21.631-6.651 54.106-6.651 75.448 15.375 22.27 27.059 34.001 23.396 55.999-9.635 57.886-30.19 60.719-17.293 63.494 7.179 1.543 16.884 2.469 22.948 6.644 3.567 2.457 1.256 8.876 1.156 10.921-.1 2.047-.797 4.019-1.749 5.822-.522.987-1.135 1.986-1.187 3.109-.077 1.788 1.302 3.345 2.788 4.387 1.488 1.041 4.176 3.556 7.053 4.82-1.487 3.555-4.458 9.523-2.302 12.791 1.485 2.254 3.976 3.683 6.377 4.934 8.892 4.618 7.402 27.529 7.965 32.383.562 4.851 2.468 9.915 6.554 12.691 3.449 2.341 8.086 3.153 11.977 1.812 42.175-14.509 69.142-29.234 77.996-33.891 4.202-2.207 44.172-23.801 83.602-55.915 24.811-20.207 30.133-58.75 28.899-90.884"/><path fill="#E7A38B" d="M332.052 381.556c16.568 5.44 34.433 5.666 51.472 9.477 17.042 3.809 34.587 12.608 41.147 28.423 5.284 12.741 2.334 27.096.525 40.729-1.81 13.636-1.848 29.023 7.597 39.225 7.523 8.121 19.257 10.923 28.593 16.991 17.42 11.312 24.859 35.231 16.825 54.084 17.372-5.661 28.644-25.179 24.607-42.61-5.221-22.556-30.335-35.237-40.711-56.026-10.019-20.076-4.779-44.276-11.049-65.753-4.695-16.093-15.854-30.011-29.777-39.775s-30.492-15.556-47.388-18.398c-16.046-2.704-32.411-2.835-48.693-2.961-5.622-.043-18.747-2.601-23.634.116-4.766 2.647-2.185 8.674-.269 12.53 5.862 11.795 18.339 19.878 30.755 23.948"/><path fill="#132136" d="M259.904 319.656c29.566-27.808 17.731-78.439 40.79-111.599 16.906-24.307 48.888-33.83 78.835-36.846 29.945-3.019 60.836-1.349 89.399-10.634 39.497-12.843 68.846-44.59 97.224-74.314 28.377-29.727 60.16-60.042 100.917-68.333 32.245-6.557 65.417 1.693 98.148 5.284 32.735 3.589 69.584 1.045 92.739-21.816 9.258 67.58 7.211 135.164-6.712 201.977-17.734 85.13 6.729 173.007 1.439 259.726-5.29 86.716-21.762 173.663-58.53 252.78-89.442-68.968-180.233-139.307-245.474-230.53-23.692-33.128-43.802-68.749-69.906-100.105-26.103-31.355-59.55-58.868-99.719-68.64-39.61-9.633-79.259-5.417-119.15 3.05"/><path fill="#132136" d="M746.519 773.313c-28.423 3.363-61.88-3.003-75.864-27.384-10.287-17.937-7.218-40.995-17.55-58.913-12.444-21.587-40.01-29.251-64.939-33.909s-52.391-9.56-68.38-28.802c-24.518-29.498-10.284-78.868-37.542-105.982-14.6-14.526-39.188-20.138-46.874-39.054-7.717-18.989 6.41-40.588 1.882-60.53-4.434-19.539-25.46-31.32-45.616-35-20.158-3.683-41.122-1.763-61.133-6.146-20.005-4.384-40.368-17.91-42.637-37.798-2.778-24.397-6.057-50.294 14.154-64.91s47.083-17.353 72.137-15.151c87.488 7.691 162.988 69.687 204.282 145.344 26.524 48.594 42.405 104.659 83.129 142.762 27.128 25.38 62.942 40.317 90.857 64.871 24.371 21.434 42.057 50.007 50.167 81.027 5.189 19.843 6.193 42.04-4.411 59.709-10.607 17.672-33.731 30.505-51.662 19.866"/><path fill="#132136" d="m488.851 496.175 5.738 76.035c1.346 17.849 2.72 35.851 7.609 53.025 4.893 17.174 13.632 33.682 27.323 44.642 11.609 9.294 25.919 14.017 39.554 19.651 13.635 5.631 27.452 12.831 35.886 25.258 8.433 12.433 9.474 31.387-1.308 41.69 15.512 2.538 30.664 7.096 46.173 9.634 7.993-18.91 3.979-41.74-7.123-58.887-11.106-17.148-28.437-29.143-46.833-37.14-25.23-10.972-55.468-17.024-70.264-40.834-12.419-19.983-9.472-45.724-8.568-69.456.908-23.732-8.764-50.94-28.187-63.618m2.782-358.156c51.144-32.858 66.082-100.892 112.022-140.394 21.721-18.676 49.316-29.88 77.528-36.206 28.215-6.326 57.265-8.05 86.159-9.755 6.082-.359 12.504-.651 17.923 2.069 9.367 4.708 12.205 16.523 11.881 26.799-.322 10.275-2.709 20.829.38 30.659-31.915-15.684-67.868-24.285-103.522-21.94-35.654 2.343-70.889 16.06-96.518 40.358-24.386 23.121-38.949 54.136-58.834 81.048-28.959 39.189-69.88 69.846-116.157 87.017-17.495 6.491-36.275 11.005-55.105 10.44-10.479-.312-44.15-3.151-26.267-17.593 25.678-20.736 65.54-23.81 96.661-31.479 18.791-4.63 37.538-10.544 53.849-21.023"/><path fill="#0A121D" d="M328.825 466.91a47.5 47.5 0 0 0 2.78-24.536c-.564 13.132-6.278 25.989-15.72 35.362 3.944-1.06 7.568-3.231 10.325-6.181a41 41 0 0 1-8.874 12.698 39.2 39.2 0 0 0 12.616-9.18 39.9 39.9 0 0 1-8.323 12.012c5.848-1.934 10.9-6.056 13.878-11.332-.339 4.933-2.693 9.712-6.432 13.052 6.069-3.402 11.248-8.301 14.918-14.114.529 4.399-.901 8.988-3.852 12.354 5.886-2.704 10.604-7.741 12.832-13.708.305 4.257-.851 8.604-3.242 12.18 4.188-3.383 7.231-8.097 8.549-13.242q-.64 5.74-1.277 11.479c4.106-4.296 7.122-9.581 8.706-15.25a19.83 19.83 0 0 1-.92 12.889c4.484-4.109 7.273-9.935 7.625-15.927a24.1 24.1 0 0 1-.407 13.033c4.056-4.491 6.085-10.666 5.458-16.618a27.1 27.1 0 0 1 .214 14.057c3.3-2.167 4.709-6.205 5.371-10.031.664-3.829.822-7.826 2.517-11.339 1.916-3.964 14.354-17.416 13.619-21.743.591 3.467-17.02 18.818-21.466 21.813-8.983 6.059-19.371 10.148-30.157 11.835-6.189.966-12.509 1.14-18.738.437m27.967-67.005c17.178-2.521 35.058 3.959 47.859 15.418-15.351-6.244-32.171-10.4-48.589-7.811-16.431 2.59-31.53 12.773-37.262 28.336-.11-17.311 20.728-35.267 37.992-35.943"/><path fill="#B22C24" d="M351.439 559.625c-5.128-1.37-10.251-2.738-15.378-4.104q-6.65-1.779-13.305-3.553c-2.156-.576-4.344-1.091-6.476-1.76-1.273-.399-4.691 2.254-5.53 3.84-.522.987-1.137 1.985-1.187 3.109-.077 1.788 1.302 3.344 2.788 4.386 1.488 1.045 4.175 3.557 7.05 4.821-1.484 3.554-4.455 9.523-2.299 12.791 1.484 2.254 3.976 3.683 6.377 4.934 1.358.704 24.583-18.941 27.96-24.464"/><path fill="#F04A2F" d="M351.439 559.625s-13.092 7.124-32.038 6.739c-1.484 3.554-4.455 9.523-2.299 12.791 1.484 2.254 3.976 3.683 6.377 4.934 1.358.704 21.207-7.739 27.96-24.464"/></g><defs><clipPath id="a"><path fill="#fff" d="M0 0h750v740.991H0z"/></clipPath></defs></svg>