<svg width="158" height="120" viewBox="0 0 158 120" fill="none" xmlns="http://www.w3.org/2000/svg">
<g clip-path="url(#clip0_25_56)">
<path d="M51.0388 73.2683C50.9295 74.3892 50.7382 75.5511 50.637 77.3122C50.3612 79.6132 50.0748 80.6546 49.8542 82.2699C49.7961 82.6816 48.5058 89.1756 48.1174 90.4363C47.729 91.6974 46.1031 95.9669 44.8063 97.801L41.5533 102.751C39.6406 105.358 37.2802 107.509 34.8966 109.468C34.26 110.039 33.5978 110.412 33.5978 110.412C29.2727 113.78 25.5066 114.299 22.3296 113.836C19.1526 113.374 17.3118 111.622 16.3709 110.56C14.9949 109.008 13.93 107.026 13.7927 106.707C13.5055 105.938 13.1317 104.81 12.9436 104.032C12.8916 103.542 12.7303 100.73 12.7186 100.627C12.6158 98.913 12.8091 97.391 12.9627 96.51C13.0135 96.3155 13.0598 96.1165 13.0952 95.9086C13.438 93.5793 14.5151 91.5632 15.7026 89.6375C16.713 87.9355 17.8554 86.5075 19.424 85.3396C20.997 84.1693 22.7806 83.0082 24.4003 82.3984C26.0197 81.7885 26.6027 81.7034 28.1737 81.4343C28.461 81.4104 29.9946 81.3066 30.4801 81.427C28.4516 83.2526 26.9659 84.8079 25.453 86.4686C22.7692 89.3612 20.7281 92.5783 20.3828 96.7024C20.1614 99.2214 21.3371 101.914 22.2959 102.827C23.2547 103.741 24.8911 103.92 25.7479 103.594C26.6047 103.268 28.2989 102.384 29.2105 101.671C30.1226 100.957 31.6733 99.5537 32.4863 98.5049C33.2992 97.4562 35.4674 93.8443 36.1378 91.7784C36.5018 90.5412 36.7435 89.1156 36.7984 87.8156C36.7809 84.923 35.5296 82.6687 33.0294 80.8483C33.5779 80.3876 36.3653 78.3918 41.1986 75.1608C44.1843 73.2388 47.3702 71.2908 50.4656 69.4522C50.6529 69.3335 51.3915 68.8914 51.3915 68.8914C51.4678 69.5791 51.2156 71.5538 51.0388 73.2683ZM32.4014 82.4304C34.1113 84.2199 34.7715 85.3683 34.923 87.1259C35.0425 90.001 34.5594 91.9506 33.558 93.7564C32.9774 94.8193 32.4903 95.8664 31.8862 96.7349C30.2274 98.9122 28.3501 100.914 25.6809 102.108C24.0583 102.783 22.6343 101.629 22.1435 100.21C21.7807 99.1618 21.5634 99.1096 21.5573 97.3719C21.5508 95.6342 22.0554 93.7244 22.8667 92.0426C24.4393 89.0759 26.5576 86.5512 29.0001 84.1826C29.6241 83.5176 30.875 82.618 31.7074 82.0251C31.896 81.9072 32.2072 82.2269 32.4014 82.4304ZM71.7779 53.34C70.2435 54.8061 68.4733 55.9967 66.8085 57.182L61.733 61.0314C61.733 61.0314 56.3881 64.9362 56.2939 64.8811C56.2008 64.8276 56.3869 64.3795 56.393 64.3114C56.3991 64.2433 57.7077 55.3864 57.91 50.8769L58.6807 46.1065L59.2218 42.8569L59.3969 41.7376C59.4433 41.2319 60.5755 34.3282 60.7856 32.6092C61.0509 31.3838 61.4238 30.2442 61.4787 28.941C61.5904 28.1317 61.4717 26.7369 61.3056 26.465C61.1386 26.1939 60.5325 25.8677 60.0531 26.0038C59.5741 26.1392 58.0672 28.819 57.912 29.2315C57.3412 30.3954 56.8671 31.5459 56.4064 32.7924C56.0128 33.7337 55.7271 34.7606 55.4395 35.7915C55.2319 36.6101 54.5941 39.7025 54.2305 41.0377C54.176 41.2574 53.7949 41.46 53.381 41.9661C52.954 42.3215 52.3706 43.072 51.9936 43.72C50.4172 45.9748 48.3928 49.3759 48.3928 49.3759L48.3502 49.4391L44.5268 55.5428C41.8666 59.5227 39.21 63.5126 36.2329 67.3312C34.9243 69.0709 33.4857 70.522 31.8269 71.8038C30.8173 72.6123 29.8837 72.3152 29.2674 71.2855C28.6779 70.454 28.9916 65.4772 29.0415 62.8967C29.0415 62.8967 29.5165 58.9399 29.8102 55.8707L30.9636 49.5579C31.2813 47.9235 31.3678 46.3565 31.6234 44.5836C31.6234 44.5836 31.7005 42.8609 31.7558 42.4585C31.8988 41.043 31.9577 40.47 32.0036 39.0707C32.1036 37.263 32.2913 35.3454 32.2803 33.4541C32.2002 31.4964 31.9532 29.8276 31.3394 27.6706C30.8498 25.9507 30.1579 24.2102 28.8079 22.8636C27.2401 21.3383 25.3522 20.5522 23.1584 20.5927C22.3556 20.5825 21.4907 20.8772 20.6119 21.0753C19.3785 21.3679 18.1731 21.7719 17.0051 22.2716L16.9998 22.2696C16.9998 22.2696 16.0597 22.5735 14.4395 23.5683C13.5863 24.0664 12.7596 24.6143 11.9698 25.2201C10.038 26.7272 8.2224 28.4219 6.52299 30.2065C5.5057 31.2606 4.53594 32.39 3.74331 33.6292C3.74169 33.6308 3.74088 33.6308 3.74006 33.6332C-3.80674 43.1543 1.34675 55.816 7.93436 57.4835C10.8022 58.1538 11.6497 58.0788 11.6679 57.7639C11.6927 57.3291 0.916915 53.5166 1.493 43.564C1.55394 42.8163 1.63642 42.0654 1.73108 41.3214C1.91349 40.1786 2.40629 37.9843 3.71162 35.441L4.12886 34.7606C4.98039 33.3792 5.88474 31.994 6.96257 30.735C9.60899 27.7954 13.5611 24.9437 19.467 23.095C19.7116 23.0282 19.9594 22.9649 20.215 22.9147C23.3319 22.1743 25.2519 23.2547 26.0969 26.3564C26.1997 26.7547 26.3541 27.2114 26.4877 27.6552C26.9155 29.9877 27.156 33.8614 26.6316 40.2362C26.3927 41.5094 26.1859 43.8631 26.0559 45.7393C25.9267 46.7755 25.7829 47.8579 25.62 48.995C25.62 48.995 22.6099 64.0771 25.2673 69.5815C25.665 70.4896 26.1505 71.2932 26.4394 71.7066C27.36 73.3688 28.9745 74.7596 30.7292 74.5222C31.6043 74.3224 32.34 73.7433 33.077 73.1622C34.1666 72.1454 35.1432 71.0444 36.1199 69.9328C36.3933 69.7051 36.9186 68.8565 37.1937 68.6268C37.8214 67.9605 37.8864 67.845 38.4052 67.0913C39.9656 64.9257 41.3071 62.5802 42.7559 60.3291L46.2615 54.9548L49.9976 48.9585L50.9096 47.3724C52.2381 45.3248 53.2676 44.0633 53.8965 43.3707C53.864 44.122 51.955 58.5173 51.8692 59.5223C51.8692 59.5223 51.3187 65.6843 51.3387 66.2788C51.3882 67.7636 51.1144 68.0841 50.0719 68.5964L45.1866 71.4322C43.4953 72.4121 41.8166 73.4985 40.2321 74.57C38.6424 75.5429 37.0466 76.5159 35.4674 77.5906L32.4144 79.8186C32.0426 80.0609 32.0426 80.0609 31.8139 80.1955C30.9034 80.0934 29.6083 79.4247 26.313 80.3264C25.2478 80.6433 24.2362 80.9205 23.2941 81.4213C20.5493 82.8218 18.1666 84.7787 16.121 87.102C14.5143 89.0212 13.406 91.1479 12.5634 93.4362C12.4155 93.8358 12.2034 94.4898 12.0275 95.0466C11.9397 95.2091 11.6038 96.6952 11.6298 96.8735C11.5221 97.7747 11.4774 98.6881 11.4624 99.4297C11.427 99.5318 11.4457 100.566 11.4664 100.971C11.4673 100.996 11.4673 101.011 11.4673 101.011L11.4685 101.012C11.5168 101.973 11.5725 102.902 11.6773 103.847C11.7963 104.929 12.4143 106.781 13.0553 108.181C13.6964 109.581 17.1513 114.716 21.8396 115.391C27.2048 116.132 31.0022 113.919 31.0022 113.919C33.0099 113.1 34.2568 112.289 35.4288 111.286C36.0931 110.894 36.5786 110.336 37.019 110.036C38.6981 108.897 39.6406 108.047 40.7952 106.722L43.3506 103.65C44.5723 102.02 45.8878 100.38 47.0095 98.7586C47.8549 97.3662 48.704 95.9803 49.3524 94.6074C49.8448 93.6555 50.7512 91.6305 50.8844 91.0157C52.7659 85.6382 53.7064 81.5615 53.8157 80.7523C54.2467 79.2083 54.5762 77.6749 54.9061 76.1447C55.2949 74.2085 55.5785 72.2812 55.8661 70.3555C55.9112 69.8477 56.001 68.5019 56.0769 67.8244C56.0891 66.7424 56.1736 66.6792 56.1728 66.1195C57.1779 65.3622 57.3006 65.3727 57.9791 64.7596L58.7782 64.1456C61.5668 62.2459 64.4533 59.9291 67.2732 58.0642C69.8928 56.006 71.5476 54.7336 72.0993 54.2761C73.936 52.771 73.7422 52.707 75.4656 51.1217C75.6529 50.9997 73.2433 52.0825 71.7779 53.34Z" fill="#F9AD19"/>
<path d="M143.156 17.9214C143.129 17.9004 143.101 17.8797 143.075 17.8598C140.874 16.3698 138.492 15.0523 135.999 13.9809C134.792 13.2815 133.531 12.6728 132.24 12.1614C130.635 11.3051 128.845 10.722 127.339 10.3504C123.684 9.4475 119.823 9.18856 116.108 9.89124C112.575 10.5647 109.194 11.9146 106.22 13.9315C103.93 15.4783 101.05 17.829 100.206 20.6313C99.3262 21.28 98.9037 22.3782 99.8462 23.3622C101.061 24.6318 102.377 25.7397 103.793 26.6977C105.423 28.933 109.083 30.4125 111.251 31.0625C114.349 31.9929 117.553 32.4063 120.769 32.3625C122.265 32.5149 123.783 32.401 125.213 32.0091C128.682 31.4912 132.113 30.3874 135.217 28.8017C137.059 27.8591 138.84 26.7666 140.471 25.4909C142.149 24.1807 144.38 22.563 144.843 20.4149C145.126 19.108 144.248 18.2598 143.156 17.9214Z" fill="white"/>
<path d="M147.816 15.5946C146.191 9.59791 139.837 4.82137 134.398 2.41831C128.422 -0.218173 121.559 -0.75025 115.274 1.07575C115.083 1.13168 114.893 1.19165 114.703 1.25122C109.541 2.87541 103.873 6.33858 101.125 11.169C100.545 12.1841 100.154 13.459 100.083 14.6314C99.9985 16.0679 100.861 19.6065 102.863 17.8372C104.356 16.519 106.22 15.4913 107.934 14.5001C109.693 13.4866 111.614 12.7065 113.544 12.0788C115.32 11.5021 117.132 11.0673 118.969 10.7909C120.181 11.0632 121.447 11.0754 122.743 10.9879C123.4 10.9433 123.957 10.8874 124.496 10.8691C125.584 11.0296 126.665 11.2432 127.733 11.5082C128.182 11.6209 128.659 11.644 129.105 11.573C130.592 12.2757 132.07 13.0133 133.608 13.5676C135.619 14.571 137.589 15.6599 139.515 16.8306C139.727 16.9578 139.956 17.0551 140.195 17.1195C140.484 17.6026 141.017 17.9794 141.799 18.0759C142.084 18.1124 142.368 18.148 142.655 18.1845C143.223 18.2546 143.796 18.0868 144.272 17.774C144.93 18.1116 145.813 18.1034 146.445 17.8372C147.245 17.498 148.068 16.5259 147.816 15.5946Z" fill="#F9AD19"/>
<path d="M125.686 19.5659C125.329 18.8713 124.757 18.3429 124.078 17.9644C123.144 17.2937 121.941 17.0555 120.799 17.2362C120.642 17.2443 120.491 17.2524 120.339 17.2727C118.181 17.545 116.107 19.1574 116.028 21.4567C115.949 23.6406 117.863 25.2846 119.939 25.4909C120.374 25.5334 120.829 25.5132 121.275 25.4321C121.907 25.4107 122.547 25.2409 123.139 24.911C124.918 23.9149 126.764 21.6865 125.686 19.5659Z" fill="#132136"/>
<path d="M139.344 23.4972C138.339 24.4673 137.244 25.3548 136.12 26.1795C134.249 27.5504 132.233 28.6709 130.093 29.528C131.444 27.894 132.312 25.816 132.666 23.7541C133.125 21.0852 132.677 18.2506 131.366 15.8795C131.152 15.4954 130.917 15.1047 130.658 14.7165C131.366 15.0148 132.062 15.3276 132.754 15.666C134.122 16.3362 135.468 17.0381 136.814 17.7428C137.656 18.3247 138.502 18.9018 139.358 19.4594C140.16 19.9814 140.976 20.481 141.807 20.9551C141.815 20.9612 141.826 20.9677 141.834 20.9726C140.963 21.7741 140.2 22.6612 139.344 23.4972ZM127.354 29.3338C126.559 29.9964 125.638 30.522 124.666 30.8656C124.26 31.0059 123.796 31.1072 123.361 31.2494C122.178 31.3908 120.987 31.4524 119.797 31.4342C119.507 31.4091 119.214 31.3815 118.923 31.3337C117.585 31.1104 116.411 30.7121 115.287 29.9413C114.14 29.1543 112.982 28.095 112.47 26.7788C111.97 25.491 111.702 24.1196 111.665 22.7406C111.525 17.6148 115.646 12.5258 120.954 12.3086C120.962 12.3086 120.968 12.3074 120.972 12.3074C122.331 12.2831 123.688 12.3673 125.034 12.5477C125.43 12.6911 125.823 12.8447 126.217 12.993C127.249 14.1394 128.392 15.1817 129.176 16.5534C130.366 18.6214 130.913 21.0224 130.639 23.3947C130.366 25.769 129.194 27.8122 127.354 29.3338ZM157.998 21.2376C157.984 21.1156 157.626 21.0111 157.196 20.9308C154.735 20.4676 152.273 19.8926 150.003 18.8041C147.574 17.6423 145.367 16.0141 143.053 14.6464C142.883 14.5297 142.715 14.4227 142.556 14.3186C143.595 14.246 144.633 14.103 145.677 13.8582C146.786 13.598 147.879 13.2447 148.921 12.7981C150.64 12.1056 153.627 10.5357 153.699 10.4311C153.699 10.4311 147.77 11.89 142.07 11.4977C138.985 11.2983 136.169 9.92984 133.192 9.16191C128.529 7.95633 123.827 6.87475 118.99 7.37765C114.75 7.81773 110.614 9.24822 107.002 11.503C104.802 12.8763 102.792 14.5609 101.078 16.5109C99.4252 18.3928 97.7368 20.7776 97.9164 23.4032C97.9371 23.6569 98.2897 23.6159 98.3901 23.4514C98.4624 23.3278 98.5473 23.2107 98.6318 23.0932C99.3472 22.1311 100.258 21.3308 101.183 20.5714C102.131 19.7872 103.02 18.9322 104.006 18.1886C105.369 17.1568 106.829 16.2507 108.362 15.484C109.858 14.7319 111.428 14.1123 113.038 13.641C110.383 15.6332 108.99 19.0886 109.277 22.3873C109.568 25.6859 111.446 28.7641 114.109 30.7408C110.503 30.039 107.317 28.2065 104.168 26.4068C102.654 25.5396 101.216 24.5058 100.002 23.2496C99.8669 23.1074 99.6361 22.7974 99.4252 22.771C98.904 22.7037 99.3875 23.5442 99.4732 23.7043C101.164 26.868 104.039 29.066 107.186 30.6748C107.301 30.7323 107.417 30.7882 107.533 30.8494C107.767 30.9649 108.004 31.0768 108.24 31.1882C111.246 32.594 114.52 33.5354 117.819 33.9264C124.613 34.734 131.446 33.1321 137.329 29.6905C138.877 28.7823 140.311 27.7417 141.648 26.549C142.958 25.3824 144.357 24.1553 145.158 22.5741C145.126 22.634 148.217 23.3298 148.517 23.3696C149.732 23.5248 150.961 23.5491 152.183 23.4474C153.26 23.3562 154.377 23.1653 155.436 22.8675C156.196 22.6551 157.952 22.3548 157.999 21.33C157.999 21.2996 157.999 21.268 157.998 21.2376Z" fill="#132136"/>
<path d="M78.0798 23.5094L76.8675 24.591C76.6945 24.6753 76.4365 24.6753 76.2606 24.636C75.1799 24.5027 74.6189 23.8591 74.3995 22.8209C74.0554 21.529 74.0115 20.2331 74.2268 18.8925C74.315 18.4192 74.315 17.9431 74.3995 17.4685C74.4876 17.0382 74.9207 15.3978 75.0475 15.0087C75.1799 14.6635 75.6561 13.7132 75.6561 13.7132C75.6561 13.7132 76.3483 12.549 76.911 12.1611C77.0849 11.9865 77.518 12.1166 77.8641 12.1166C77.776 13.0243 75.5252 17.4037 75.9055 20.043C76.0652 20.9268 76.1302 21.0954 76.1749 21.2693C76.3049 21.8277 76.3483 22.4769 76.8675 22.9085L77.6143 22.2483C77.6143 22.2483 78.2094 21.529 78.3378 21.3544C78.5986 21.0521 78.9009 20.7056 79.1179 20.3619L81.1516 16.8226C81.2804 16.5199 81.7147 14.3182 81.7147 14.3182C81.7147 14.3182 81.8394 13.5312 82.0608 13.1536C82.1904 12.8934 82.3631 12.677 82.5358 12.4639L82.9258 12.1166C83.0546 12.0311 83.2301 11.9865 83.3601 11.9865C83.6177 11.9865 83.9622 12.5919 84.0942 12.8079C84.5257 13.6257 84.1787 14.4037 84.0503 15.1806C83.7058 16.7355 83.3162 18.2458 83.0546 19.7577C82.7092 21.4399 82.4919 23.1212 82.1904 24.8054C82.1474 25.2402 82.0068 26.5378 81.9735 26.7505C81.9243 27.0702 81.8443 27.4406 81.8443 27.7851C81.8443 27.9152 81.9292 28.0878 81.9735 28.2592C82.0174 28.2592 82.0608 28.303 82.1043 28.303C82.3192 27.9995 82.5358 27.7405 82.7092 27.4406C83.0546 26.879 83.3601 26.3165 83.6177 25.7581L85.3053 22.0866C85.7839 21.138 86.2161 20.1447 86.7337 19.1953C86.9929 18.7629 87.3817 18.3767 87.7287 17.9013C87.9891 18.5043 87.8172 18.8925 87.2968 18.8925L87.5987 19.1098L86.5147 21.2231L85.4349 23.6415C84.7865 25.1101 84.2246 26.6233 83.5332 28.0453C83.2715 28.6057 82.8372 29.079 82.4058 29.5523C81.9735 30.0317 81.5412 29.9426 81.1959 29.4243C80.8039 28.8659 80.63 28.2592 80.5024 27.5687C80.2404 26.4916 80.2404 25.4096 80.2851 24.3321C80.331 22.994 80.5459 21.6559 80.7194 20.276C80.7194 20.1447 81.0647 18.9545 81.0155 18.4926L80.593 19.1851L79.1609 22.0461C78.9891 22.3902 78.7725 22.6908 78.556 22.994C78.4268 23.1662 78.0798 23.5094 78.0798 23.5094Z" fill="#132136"/>
<path d="M87.7736 17.2535L87.8488 17.3216C87.9686 17.0829 88.0283 16.6951 88.0304 16.4333C88.0348 15.8461 88.0531 14.8687 87.3572 14.8314C87.2235 14.8241 87.1276 14.7398 86.9513 15.0964C86.775 15.4518 87.7736 17.2535 87.7736 17.2535ZM89.3284 22.8211C89.0265 22.2602 88.6463 21.759 88.3907 21.1981C88.3907 21.1535 87.5989 19.8859 87.2101 19.3235C86.606 18.5045 86.1725 17.6413 85.9547 16.691C85.8235 16.0025 85.6529 15.3116 85.9994 14.6636C86.2586 14.2313 86.5589 13.8868 87.0805 13.8005C87.2101 13.7567 87.4258 13.8451 87.5124 13.9306C88.292 14.5319 88.552 15.3562 88.5947 16.3028C88.5947 16.7802 88.4647 17.2535 88.3753 17.7714C88.3753 17.9015 88.4236 18.0753 88.5094 18.1592C89.1127 18.8927 89.718 19.5853 90.2835 20.3167C90.6711 20.8387 91.0172 21.3545 91.3658 21.8716C91.4515 21.9138 91.4938 22.0005 91.6222 22.1318C91.883 21.44 92.1402 20.7511 92.4477 20.1032L93.7014 17.4262C93.8721 16.9958 94.0061 16.5618 94.2198 16.1334C94.3937 15.7432 94.6521 15.3979 94.869 15.0089L95.2172 14.2313C95.3468 14.0136 95.4748 13.8005 95.6925 13.6258C95.7783 13.5423 95.9944 13.5424 96.1671 13.5853C96.2118 13.5853 96.341 13.7567 96.341 13.8451C96.2979 14.2313 96.2548 14.6211 96.1248 15.0089C95.7783 15.915 95.3899 16.8228 94.9548 17.6839C94.6521 18.3768 94.2198 19.0248 93.8721 19.7145L92.4014 22.8211C92.2726 23.08 92.3157 23.2944 92.4887 23.5566C93.0502 24.5912 93.658 25.6286 94.176 26.7057C94.739 27.829 95.1709 29.0358 95.6458 30.2442C95.9944 31.0657 96.341 31.9312 96.7302 32.7498C96.9053 33.1364 97.0674 33.0991 97.4228 32.7924C98.2614 32.071 98.8054 31.3947 98.9398 31.3947C99.0638 31.3947 98.3613 33.0359 97.9477 33.431C97.7409 33.6454 97.1478 34.1268 96.9053 34.1305C96.6611 34.1329 96.2118 34.216 95.9489 34.002C95.0417 33.2677 94.4368 32.3178 94.0061 31.2375C93.7014 30.5469 93.2659 29.9423 92.9218 29.2935C92.8377 29.1209 92.7926 28.9503 92.7061 28.8214L91.6656 26.794C91.4938 26.4062 91.3211 26.0168 91.0603 25.5419C90.7588 26.0168 90.4984 26.3167 90.2388 26.6631C89.9808 27.0084 89.7627 27.3974 89.5055 27.6552C88.8108 28.3477 88.1177 29.1209 87.1654 29.4244C86.6905 29.5983 86.1725 29.5983 85.6529 29.6408C85.5241 29.6408 85.3478 29.4244 85.3059 29.2935C85.2166 29.0358 85.3059 28.9074 85.609 28.9503H85.9547C86.515 29.0358 86.9078 28.6464 87.3389 28.3477C88.1177 27.7853 88.8108 27.1385 89.4178 26.4062C89.6774 26.0168 89.9317 25.6444 90.1523 25.2821C90.5732 24.5875 90.548 24.4967 90.0812 23.9432C90.0008 23.8488 89.6774 23.3394 89.6774 23.3827L89.3284 22.8211Z" fill="#132136"/>
<path d="M76.3671 45.8803L77.1675 45.3101C78.1247 44.7088 78.8706 44.1686 79.8809 43.2888C81.0668 42.2567 82.2401 40.8825 82.9491 39.3296C83.3318 38.4928 83.0913 37.4202 82.5672 37.0656C81.7051 36.2863 80.6927 36.3876 79.8618 37.0591C78.6081 38.0738 77.3702 39.7166 76.9916 41.2541C76.7137 42.3782 76.3671 45.8803 76.3671 45.8803ZM94.3526 39.5874C94.1571 41.3056 93.8009 41.4239 92.8571 42.7507C92.7242 42.997 92.8258 42.794 92.7242 42.997C91.9255 44.5836 90.5633 47.1191 89.7975 48.2745C88.5978 50.0802 87.9161 51.4929 86.3138 53.0251C84.3901 54.8636 82.1414 56.3727 79.3719 56.489C78.0515 56.5826 76.7259 56.6754 75.4762 56.329C74.2026 55.8901 72.9947 55.0124 72.3041 53.7735C71.8218 52.7256 71.4164 52.0294 71.1474 51.0159C70.8785 50.0028 70.3056 44.5361 71.3294 41.4263C71.6004 40.6106 72.5133 38.798 72.5616 38.7125C73.8836 36.3665 75.1199 35.6541 76.814 34.5685C77.694 34.0028 79.1468 33.5935 79.2455 33.5761C80.962 33.2827 81.777 33.4675 82.8963 34.0583C84.1037 34.6232 84.7106 35.6468 84.8029 36.8986C84.8987 38.242 84.36 39.5213 83.7665 40.6373C82.4819 42.8925 80.4225 44.6626 78.2169 46.2685C78.1206 46.2969 78.0576 46.4205 77.9609 46.4517C76.0771 47.4393 76.0771 47.4393 76.3099 49.5457C76.3911 50.1422 76.3728 50.7695 76.5471 51.3389C77.1565 53.3274 79.5165 54.5804 81.5479 53.7553C82.8512 53.2532 84.3799 52.7937 85.3733 51.6562C86.6782 50.1629 88.2196 48.7449 89.195 47.1118C90.1843 45.456 93.4413 39.6591 94.3526 39.5874Z" fill="#F9AD19"/>
<path d="M73.7205 59.5453C73.7213 60.1706 73.3735 61.5452 72.7617 62.6632C72.5736 63.0044 72.5212 63.2419 72.4025 63.5426C72.1563 64.0289 71.9755 64.516 71.6721 64.9382C71.4259 65.2442 71.0623 65.1818 70.8209 64.7559C70.3939 64.1521 70.4549 63.483 70.6377 62.8136C70.9424 61.8458 71.0029 60.8129 71.1853 59.782C71.3068 59.1753 71.4953 58.1772 71.7314 57.9633C71.9678 57.7477 72.5853 57.7193 72.9494 57.7193C73.0688 57.6605 73.3735 57.7809 73.3735 57.9021C73.3735 57.9021 73.7188 59.2163 73.7205 59.5453Z" fill="#132136"/>
<path d="M121.333 64.4105C121.443 63.6053 121.824 62.726 122.425 62.0302C122.822 61.4341 123.812 61.4341 124.214 62.0302C124.611 62.5274 124.909 63.3241 124.808 64.0142C124.611 65.3033 124.114 66.6888 123.715 67.9783C123.615 68.2761 123.218 68.6749 123.02 68.6749C122.623 68.6749 122.122 68.4751 121.928 68.1768C121.63 67.7813 121.526 67.188 121.333 66.5936C121.333 66.5936 121.181 65.5002 121.333 64.4105Z" fill="#132136"/>
<path d="M54.6386 88.1471C54.5715 88.8817 54.4249 89.6574 54.2136 90.6705C54.03 90.839 53.8675 91.0376 53.629 91.2864C52.3594 92.612 50.8643 93.6996 49.4709 94.7909C48.7745 95.2825 47.8795 95.4835 46.9869 95.6845C46.1919 95.8778 45.4959 95.1848 45.4959 94.2941C45.487 91.3371 46.2613 88.8007 47.5183 86.753C48.2801 85.5118 48.575 85.098 49.5269 84.059C50.5397 82.9539 51.6537 82.9932 53.3446 84.0833L55.085 85.0814C54.8929 86.5504 54.8368 87.1575 54.6386 88.1471ZM63.886 74.9638C64.3894 73.0009 64.4044 72.7881 65.039 70.8045C65.6732 68.8213 66.0287 68.0108 66.9643 66.5361C67.0654 66.5361 67.165 66.6334 67.2617 66.6334C67.3636 67.4264 67.7065 67.6165 67.4624 69.0105C67.1759 70.9374 66.2907 73.2242 65.4729 74.8617C65.1154 75.5717 64.7318 76.5009 64.3288 77.2393C63.9136 77.9983 63.6439 78.3918 63.3895 78.7228C63.1352 79.0543 62.8878 79.2241 62.8878 79.2241H62.6883C63.0869 77.8346 63.6431 75.9129 63.886 74.9638ZM59.6068 92.6083C60.0049 90.6251 60.4063 88.6447 60.9016 86.6606C60.9016 86.4629 61.4951 84.2795 61.5959 83.9832L62.3918 81.8043C62.8655 80.8524 63.5248 79.9957 64.1025 79.1423C64.1034 79.141 64.105 79.1423 64.1058 79.1402C64.1094 79.1342 64.1151 79.124 64.1192 79.1183C64.1399 79.0867 64.1627 79.0547 64.1834 79.0247C64.1858 79.0187 64.1834 79.0114 64.1858 79.0041C64.4686 78.4882 65.3018 77.0281 65.3018 77.0281C65.7625 76.3246 66.0754 75.5936 66.3667 74.8617C67.165 73.2785 67.9576 71.6924 68.5548 70.0082C69.0513 68.3208 68.9538 66.6334 68.2558 64.9492C68.0575 64.5504 67.6614 64.0548 67.2617 63.7602C66.1688 63.1649 63.886 63.7602 62.9869 65.0481C62.094 66.2383 61.2989 67.5237 60.5038 68.9145C59.6068 70.8989 58.7146 72.8821 57.9188 74.8617C57.2232 76.6472 56.6256 78.4315 56.13 80.2149C55.8326 81.3066 55.5344 82.4948 55.3386 83.685C54.8368 83.2919 54.6386 82.7926 54.3416 82.3983C53.549 81.0092 52.452 79.6188 50.8643 79.6188C48.2821 79.522 45.9912 80.4139 44.3023 82.4948C42.9125 84.2795 42.0195 86.2643 41.3211 88.4425C40.8263 90.1291 40.8263 91.8128 41.1229 93.499C41.2009 94.8375 42.1276 96.2814 42.5972 96.8767C43.0673 97.4716 44.2028 98.3599 44.3023 98.3599C46.2028 99.0419 47.8795 98.556 49.3701 97.3662C50.8643 96.1752 52.2526 94.8874 53.6461 93.6996C53.8126 95.0138 53.5108 98.201 54.1015 101.819C54.6024 104.583 55.4149 106.615 55.731 107.08C56.4054 107.744 57.5206 107.974 58.115 107.282C58.8044 106.478 59.4094 105.595 59.9042 104.701C61.6918 101.827 63.3839 98.7529 65.0784 95.7809C65.3762 95.2825 65.4729 94.6872 65.869 94.1981C66.0282 94.0007 67.3905 91.4611 67.3905 91.4611L68.4516 89.8337C68.4516 89.7327 68.2558 89.4345 68.1555 89.4345C67.9576 89.3364 67.6614 89.4345 67.5599 89.6327C67.2832 90.001 64.9728 93.9002 64.5795 94.4943L60.8 100.835C60.1081 102.024 59.3086 103.217 58.5172 104.404C58.3177 104.701 57.9188 104.902 57.4231 105.197C57.4231 104.902 57.324 104.803 57.4231 104.701L58.3177 99.3507C58.4136 98.4571 59.3086 93.9002 59.6068 92.6083Z" fill="#132136"/>
<path d="M42.6401 26.142V26.146C42.6568 26.1289 42.6511 26.133 42.6401 26.142Z" fill="#331C0F"/>
<path d="M75.2257 17.8159C74.9206 17.9865 74.4879 18.7212 74.533 19.0247L74.663 19.1524C74.8767 18.677 75.0932 18.2459 75.2257 17.8159Z" fill="#331C0F"/>
<path d="M67.6936 14.8787C66.6576 14.7073 65.6586 14.621 64.5787 14.4483C64.4496 14.4483 64.3191 14.3608 64.1875 14.2737C66.396 11.3406 68.4306 8.40423 70.9815 5.77099L70.8974 6.16002L69.8594 9.26657C69.7257 9.70139 69.3406 10.8665 69.2935 11.0379C69.0786 11.5995 68.9936 12.2025 68.7759 12.7634C68.6479 13.197 68.4748 13.6257 68.3875 14.0135L68.2583 14.4038C68.2112 14.7073 68.0422 14.9217 67.6936 14.8787ZM74.1435 19.6686L73.5373 21.397C73.4939 21.6126 73.4374 21.6669 73.2684 22.113C73.0982 22.5588 72.8438 23.0799 72.8438 23.0799L72.1073 25.0668C71.9374 25.4534 71.2448 27.138 71.0705 27.6117C70.8097 28.303 70.5062 28.9927 70.2913 29.6407C70.2474 29.7716 69.6839 31.025 69.5978 31.1956L69.1423 32.479C69.0562 32.7367 68.9018 33.0362 68.771 33.2526L67.3495 35.772L66.8291 36.503C66.7864 36.4617 66.7864 36.4617 66.7433 36.4617C66.8291 35.8145 66.8721 35.1665 66.9148 34.5186C66.8721 34.4736 67.2134 32.0531 67.3934 30.5902C67.3934 30.4605 67.8675 27.3973 67.9105 27.2668C67.9536 27.138 68.0422 26.1889 68.1263 25.8007L68.5167 24.0294C68.732 23.1213 68.862 22.2155 69.0786 21.3098C69.3406 20.3162 69.6839 19.3679 69.9443 18.3767L70.1613 17.3815C70.2474 17.0808 70.3258 16.7809 70.3766 16.3898C70.468 15.9348 70.5448 15.4655 70.7008 15.3674C70.8629 15.2657 71.1708 15.1835 71.4154 15.1389C71.6319 15.0963 71.7623 15.0517 71.9785 14.9662C72.5436 14.7073 73.1896 14.1019 73.1461 13.2825C72.4554 13.6703 71.8473 14.1902 70.9815 14.4038C71.1566 13.7132 71.8054 11.512 71.8054 11.3406C71.8473 11.2105 72.1073 10.2185 72.1511 10.0896C72.3705 9.22402 72.5842 8.40423 72.7557 7.58483C72.8865 7.06694 73.0604 4.43614 72.7134 3.70103C72.5842 3.35375 72.412 3.22407 72.1073 3.35374C71.8473 3.43925 71.5889 3.65848 71.4154 3.82909C70.7678 4.73723 70.2474 5.64091 69.5978 6.46233L66.6978 10.1747C66.396 10.5637 66.0494 11.0379 65.7025 11.4249L65.269 12.1612L64.3191 13.2825L63.7118 14.0601C63.6687 14.1019 63.4973 14.1019 63.4111 14.0601C63.0203 13.9305 62.2842 13.7132 62.2842 13.7132C62.2842 13.7132 59.4305 12.8497 57.9586 12.4639C57.0502 12.2913 54.3672 11.7713 53.9325 11.7713C53.07 11.7284 52.3351 11.7 50.5158 11.9865C50.0121 12.0927 49.694 12.2913 49.3023 12.3764C48.3959 12.6365 47.5745 13.0661 46.7493 13.4964C46.2748 13.7132 45.0621 14.5784 44.9768 14.7073C43.7637 15.6568 42.9414 16.8226 42.295 18.1166C42.0765 18.5899 41.9412 18.983 41.7596 19.5892C41.5548 20.2453 41.374 21.2142 41.3228 21.7625C41.2716 22.3112 41.2534 23.0382 41.3846 23.9017C41.3846 24.0719 41.721 25.1183 41.721 25.1183C42.0216 25.9733 43.2014 27.4378 43.721 27.7406C44.2402 28.0421 44.6701 27.8723 44.6701 27.8281C44.4978 27.7851 44.4137 27.7284 44.0668 27.5071C44.0668 27.5071 43.4634 27.0938 43.1583 26.7056C42.7066 26.1188 42.5965 25.7111 42.5083 25.5815C42.2499 25.0668 42.0732 24.4618 41.9895 23.9017C41.6783 21.8131 41.8814 20.5914 42.295 19.3234C42.6278 18.3042 43.4622 16.7801 44.5011 15.786C44.6294 15.6993 45.2795 15.0518 45.366 15.0088C46.7258 13.9244 48.2204 13.3696 49.7382 12.8497C49.7382 12.8497 51.2345 12.3075 53.3264 12.3764C54.2791 12.4193 56.5716 12.9798 56.8751 13.0661C57.3935 13.2399 57.9172 13.3696 58.3905 13.5422C59.0828 13.7132 59.775 13.973 60.4677 14.2307C61.29 14.4909 62.0676 14.7916 62.9342 15.0517C62.4576 15.6993 62.0676 16.3027 61.6366 16.8656L60.0781 18.7212C59.6885 19.1953 59.2989 19.7578 58.8256 20.1865C57.5706 21.397 56.1869 22.4769 54.5813 23.3389C53.3686 23.9423 52.1596 24.5027 50.7746 24.636C49.7776 24.6753 48.9566 24.5027 48.4378 23.5978C48.1351 22.9506 48.0035 22.2601 48.1757 21.5291L48.3066 20.9103C48.6966 19.8575 49.0362 19.1495 49.3019 18.6774C49.694 18.1166 50.0389 17.5569 50.5573 17.0808C51.1638 16.5617 51.809 16.2034 52.5939 16.002C53.1444 15.8622 53.9325 15.9149 54.1072 15.9595C53.8472 15.7431 53.7066 15.6223 53.2935 15.6061C52.8194 15.6499 52.4887 15.6649 51.9044 15.8205C51.67 15.8805 51.2512 16.1333 50.9465 16.3027C50.3249 16.6581 49.8301 17.1213 49.3962 17.6501C49.3832 17.6639 49.0947 18.0254 48.9375 18.2649C48.9025 18.3163 48.8331 18.4213 48.8359 18.4213C48.7181 18.6061 48.6007 18.7961 48.4938 18.972C48.4918 18.9757 48.4853 18.9769 48.4837 18.9801C48.3516 19.1973 48.2095 19.4348 48.0799 19.6788L48.0591 19.7173C48.0591 19.7173 48.0591 19.7193 48.0583 19.7213C47.9381 19.9491 47.8276 20.1813 47.7455 20.4037C47.3567 21.4833 47.3998 22.5183 47.7894 23.6416C48.2204 24.6753 49.0017 25.0668 49.9511 25.282C50.7307 25.498 51.5542 25.282 52.2892 25.0668C52.8957 24.8512 53.458 24.5911 53.9752 24.3321C55.014 23.7307 55.9679 23.1662 56.9625 22.5183C57.4821 22.1738 57.9172 21.743 58.347 21.2693C58.867 20.8385 59.3448 20.4037 59.775 19.8858C60.163 19.5406 60.4259 19.0652 60.772 18.6774L62.4873 16.447C62.6173 16.3189 62.792 16.0284 62.8781 15.8561C63.2393 15.3095 63.5838 15.2264 64.1022 15.3561C64.881 15.5267 67.0854 15.7431 67.4791 15.7431C67.6936 15.7431 67.7813 15.786 67.7383 16.002C67.6075 16.6054 67.4791 17.1679 67.3044 17.7255C67.1325 18.4193 66.957 19.1098 66.8291 19.7983C66.6141 20.751 66.4386 21.743 66.3078 22.6479L66.0047 24.2896C65.8325 25.3233 65.7025 26.4061 65.5741 27.4407C65.531 27.7851 65.488 28.1316 65.488 28.4761C65.4437 28.6463 65.4437 28.8659 65.4437 29.0357C65.4006 29.338 65.269 31.5834 65.2292 32.3177C65.2292 32.447 65.3125 34.9076 65.269 35.4672C65.1845 36.2453 65.488 37.9291 65.488 38.0571C65.5741 38.6196 65.9202 38.9195 66.4386 38.7484C66.6978 38.6621 66.957 38.4469 67.044 38.3189L67.9979 36.7186C68.1701 36.4195 69.0367 34.4294 69.0367 34.4294C69.2935 33.8276 69.5543 33.2607 69.7741 32.6978C69.9012 32.3951 70.2039 31.5834 70.2039 31.5421C70.2039 31.412 71.9866 27.4986 72.6285 25.498C73.3634 23.5095 74.0553 21.5291 74.7472 19.5406L74.6192 19.4105C74.4457 19.498 74.2268 19.5406 74.1435 19.6686Z" fill="#132136"/>
<path d="M119.855 18.9005C119.855 20.057 118.915 20.9943 117.755 20.9943C116.596 20.9943 115.656 20.057 115.656 18.9005C115.656 17.7439 116.596 16.8066 117.755 16.8066C118.915 16.8066 119.855 17.7439 119.855 18.9005Z" fill="white"/>
<path d="M131.923 83.0574C131.736 83.183 131.569 83.3702 131.421 83.5433C131.283 83.7123 128.315 87.3436 125.481 90.6896C125.092 91.1597 124.695 91.6253 124.292 92.0845C123.013 93.5397 121.667 94.9414 120.262 96.2884C120.036 96.3107 119.865 96.222 119.746 96.0469C119.661 95.8143 119.586 95.5711 119.548 95.3442C119.535 95.1505 119.542 94.9329 119.568 94.6962C119.607 94.4243 119.656 94.1561 119.711 93.8902C119.741 93.7573 119.778 93.5899 119.82 93.3889C120.042 92.4261 120.308 91.4928 120.443 90.56C120.844 88.8045 121.174 87.0506 121.444 85.2453C121.447 85.2246 121.45 85.2031 121.453 85.1821C121.515 84.7618 121.578 84.3416 121.633 83.9149C122.134 81.1418 123.124 78.5601 123.229 75.6881C123.248 75.1463 123.042 74.7111 122.744 74.3132C122.64 74.1162 122.454 73.9991 122.165 73.8099C121.513 73.3819 121.039 73.4075 120.545 73.9027C119.45 75.0912 119.153 76.6818 118.555 78.1678C118.555 78.1678 118.056 80.2523 117.96 80.5494C117.463 82.5294 117.364 84.6107 116.864 86.5911C116.665 87.588 116.469 89.7669 116.469 89.7669C116.469 89.7669 116.469 90.8886 116.478 92.0055C116.478 92.0055 116.286 93.731 116.647 95.4058C116.771 96.1664 117.06 97.0717 117.78 97.7384C117.838 97.7923 117.896 97.8461 117.96 97.8968C117.964 97.8984 117.967 97.9005 117.971 97.9021C118.306 98.1793 118.707 98.3835 119.2 98.4698C119.308 98.4889 119.42 98.5022 119.536 98.5099H119.539C119.562 98.5115 119.587 98.5083 119.611 98.5083C121.097 98.5529 122.642 96.97 124.226 94.7907C126.626 91.4872 129.136 87.0745 131.515 84.3562L132.173 83.521L131.923 83.0574Z" fill="#132136"/>
<path d="M96.8346 77.4131C96.5868 77.7155 95.7344 77.3823 95.2932 77.3001C93.9184 77.0419 92.908 75.9421 92.908 74.3913C92.908 72.8413 94.0492 71.5858 95.4573 71.5858C96.3556 71.5858 97.3566 71.9031 97.8104 72.6751C98.07 73.1136 98.1013 73.319 98.1013 73.8815C98.1013 74.3123 97.793 75.2881 97.6382 75.729C97.3973 76.4146 97.2766 76.8746 96.8346 77.4131ZM117.281 85.1001C117.281 85.1812 116.628 85.9013 116.531 86.069L115.047 87.9007L112.573 91.1446C112.573 91.1446 111.879 92.0629 111.582 92.4771L108.814 95.9726C108.394 96.4666 108.222 96.6389 107.925 97.0538C106.537 98.7197 105.253 100.47 103.866 102.048C102.682 103.381 101.574 104.732 100.106 105.792C99.7101 106.078 99.1263 106.249 98.3264 106.461C97.3192 104.091 99.4318 99.1562 100.163 97.2889C100.908 95.3871 102.287 93.6417 103.43 91.8437C104.573 90.0452 105.649 89.148 106.739 87.7346C107.63 86.4025 110.695 81.2406 102.584 78.9141C101.295 78.4943 100.01 78.1632 98.7217 77.9959C98.4243 77.9136 97.9327 77.9136 97.8336 77.7458C97.7332 77.497 97.9327 77.1639 98.0298 76.9139C98.4113 75.9531 98.9882 74.8909 99.1101 73.965C99.251 72.8789 99.3827 72.0656 99.2523 71.5635C99.0536 70.625 98.5852 70.0224 98.1021 69.6427C98.1021 69.6427 97.9859 69.5325 97.914 69.5033C96.4413 68.5534 94.9487 68.5575 93.4232 69.0227C92.8211 69.2808 91.3053 69.8303 90.4123 72.0178C89.549 74.1315 90.3274 78.2974 92.301 80.2324C92.301 80.2324 94.0053 81.5879 95.2286 82.0166C95.2286 82.0166 85.2158 114.51 84.4203 116.491C84.2241 116.888 83.8255 117.188 83.5281 117.681C82.8293 116.983 82.2667 116.012 82.2354 114.634C82.1521 112.649 82.0367 111.335 82.0367 111.335C82.0879 109.71 82.0757 105.292 82.0757 105.292C82.0757 105.198 82.159 102.973 82.3077 98.4341C82.4564 93.895 83.5476 87.3241 83.7061 86.1979C83.8641 85.0721 84.8209 78.2261 85.1195 76.64L86.4061 71.0833C86.6097 69.896 86.8099 68.6065 87.1077 67.4163C87.5034 65.1373 88.0982 62.8582 88.4988 60.6728C88.6962 60.0783 88.7954 59.3861 88.6962 58.7917C88.4988 58.0967 87.8114 56.9571 87.5034 56.8072C87.1959 56.6589 86.2123 56.7108 85.8117 57.0082C85.1195 57.8004 84.521 58.6912 83.9263 59.5839C83.4294 60.182 83.3299 61.0723 82.8293 61.5639C82.1383 62.361 81.3388 63.0531 80.4466 63.6517C79.591 64.2028 78.735 64.7025 77.8782 65.192L73.9427 67.3551C73.6863 67.4103 73.4994 67.5128 73.3865 67.6607L73.3788 67.6647C73.3788 67.6647 73.3767 67.6704 73.3759 67.6716C73.2817 67.8025 73.2402 67.9646 73.252 68.1579C73.2504 68.2203 73.2597 68.2783 73.2788 68.3318C73.2841 68.3589 73.2833 68.382 73.2906 68.4096L73.3166 68.4031C73.4783 68.6215 73.9975 68.5964 75.4227 67.6647C75.6157 67.5403 75.7916 67.42 75.9565 67.3053L79.7531 64.8406L82.6327 62.8582L82.3349 64.345C81.7397 66.6261 81.3916 67.559 80.7968 69.7375C80.4982 71.0258 80.0505 73.5642 79.7531 74.8484C79.3533 76.3393 78.4604 86.4516 78.3596 87.1453C78.3596 87.2572 78.3539 87.412 78.345 87.5939C78.2178 88.9077 78.1077 90.2401 78.0212 91.5843C77.9529 92.3206 77.8928 92.9508 77.8619 93.2912C77.8619 93.4897 77.8619 94.0048 77.8635 94.7217C77.7571 97.6568 77.7721 100.612 77.9554 103.508C77.9822 104.632 78.0159 105.635 78.0594 106.378C78.1638 107.175 78.4604 109.553 78.5607 110.045L79.4533 114.31C79.7884 115.73 80.1988 117.146 80.9695 118.388C80.9719 118.393 80.9739 118.399 80.9764 118.405C80.9776 118.404 80.9784 118.404 80.9796 118.404C81.1214 118.631 81.2713 118.854 81.4395 119.069C82.0367 119.862 83.1275 120.159 84.0238 119.661C84.8209 119.168 85.5135 118.472 85.8117 117.581C86.5134 115.797 96.1293 82.6853 96.2126 82.2788C98.6063 82.7355 103.652 83.593 101.494 85.4024C101.024 85.8218 99.5736 87.4428 98.7217 88.7314C97.8693 90.0201 96.4498 93.0606 96.2495 93.8095L95.5849 95.6014C95.4858 95.9378 94.9641 97.474 94.8654 98.0527C94.5688 99.4711 94.3718 100.885 94.2735 102.298C94.1731 104.294 94.4685 106.211 96.1529 107.877C96.6444 108.291 97.1381 108.375 97.7332 108.375C99.2169 108.291 100.402 107.709 101.394 106.877C101.789 106.461 102.778 105.629 102.881 105.542C103.472 104.962 104.068 104.377 104.558 103.797C105.649 102.547 106.537 101.297 107.53 100.049C108.418 98.8875 109.41 97.7241 110.395 96.5558L114.058 91.6447C115.008 90.1721 115.938 88.8964 116.531 88.1491C117.424 87.1494 118.115 86.069 119.006 85.073C119.894 84.072 120.787 82.6565 121.775 81.6568C121.884 81.545 118.85 83.715 117.281 85.1001Z" fill="#132136"/>
<path d="M135.599 10.3156C139.505 10.0166 146.577 4.58881 146.577 4.58881L139.663 7.15315C132.749 9.71709 129.304 9.24742 129.304 9.24742" fill="#132136"/>
<path d="M126.63 9.53846C130.894 8.70448 137.973 1.56378 137.973 1.56378L130.693 5.38477C123.41 9.20576 119.553 9.09513 119.553 9.09513" fill="#132136"/>
<path d="M119.215 9.46594C122.726 7.73638 127.358 0.380096 127.358 0.380096L121.862 5.20081C116.365 10.0215 113.009 10.9122 113.009 10.9122" fill="#132136"/>
<path d="M111.584 11.5565C114.78 9.30009 118.199 1.31082 118.199 1.31082L113.528 6.92985C108.856 12.5505 105.68 13.9538 105.68 13.9538" fill="#132136"/>
<path d="M104.474 16.5904C107.268 13.8534 109.363 5.42163 109.363 5.42163L105.652 11.7134C101.94 18.0063 99.0307 19.8984 99.0307 19.8984" fill="#132136"/>
<path d="M132.868 82.4808C132.868 82.4808 133.216 82.1521 133.622 81.646C134.028 81.1395 134.35 81.4349 134.375 81.4434C134.401 81.4519 134.621 81.646 134.621 81.646L133.392 82.7102L132.868 82.5237" fill="#351D0F"/>
<path d="M133.315 102.528C132.25 102.317 131.373 101.115 131.144 100.079C130.978 98.7096 131.355 97.3395 131.699 96.0249C132.202 94.7168 132.883 93.4865 133.508 92.6327C133.587 92.539 133.949 92.1058 134.141 91.8765C136.068 89.965 137.715 88.7488 137.719 88.746C137.847 88.7379 142.971 91.4307 141.386 97.1486C141.274 97.577 141.158 98.0041 141.019 98.4259C140.751 99.1242 140.363 99.8483 139.827 100.593C138.931 101.535 137.252 102.924 133.315 102.528ZM146.28 82.4352L139.729 85.7225C139.519 85.838 138.916 86.1971 138.764 86.1999C138.527 86.2052 138.577 86.3036 137.836 85.7651C137.094 85.2261 135.808 84.7779 134.26 80.6635C132.712 76.5492 134.275 74.9886 134.275 74.9886C134.275 74.9886 133.539 75.3108 133.163 75.5644C132.426 76.0613 131.951 76.4081 131.502 77.0691C130.784 78.1 130.429 79.2027 130.517 80.2316C130.607 81.5543 130.966 82.804 131.951 83.9046C132.398 84.4943 133.335 85.4316 133.563 85.5977C133.791 85.7635 134.235 86.1343 134.416 86.2882C134.597 86.4426 135.314 86.9297 135.772 87.1968C136.186 87.4383 136.673 87.5826 136.701 87.771C136.73 87.9692 135.85 88.5049 135.785 88.5616C135.215 88.9434 126.154 95.1492 129.448 101.318C130.193 103.524 133.897 104.107 134.861 104.091C135.414 104.082 136.158 103.993 136.905 103.851C136.904 103.851 136.902 103.852 136.901 103.853C136.862 103.865 136.891 103.859 136.966 103.838C137.568 103.721 138.169 103.569 138.669 103.391C139.007 103.269 139.888 102.751 139.942 102.724C143.452 100.785 144.394 98.4721 144.642 93.7949C144.759 90.9092 141.55 88.0377 139.915 86.7668C139.905 86.7445 139.898 86.7231 139.898 86.7028C139.897 86.5395 140.151 86.4285 140.522 86.283L143.109 84.9072C143.561 84.6859 145.537 83.4836 146.135 83.161C146.615 82.9013 147.27 82.3595 147.27 81.9952C146.817 82.141 146.548 82.2898 146.28 82.4352Z" fill="#132136"/>
<path d="M8.93152 56.2005V57.7039C8.93152 57.7039 12.2922 58.7839 14.1459 57.1378C15.9449 55.5403 16.6851 52.328 16.5835 50.5693C16.5835 50.5693 14.4324 59.0367 8.93152 56.1117" fill="#FEC01A"/>
<path d="M123.191 44.1557L123.045 43.973L121.497 41.751C121.272 41.302 119.974 40.0912 120.148 39.4059C120.306 38.7875 121.016 38.3256 121.455 38.4666C122.982 38.9537 123.16 40.4308 123.359 41.7348C123.519 42.7868 123.373 43.4303 123.191 44.1557ZM149.003 77.0209C148.509 77.9732 147.903 77.9412 147.409 77.0959C146.311 75.3226 145.305 73.4378 144.309 71.6544C142.913 69.0118 141.621 66.3652 140.054 63.9439C138.595 61.6122 136.95 59.3979 135.404 57.176C134.944 56.6265 134.791 56.1439 135.022 55.5226L137.592 48.0578C138.211 46.3902 139.032 44.8029 139.553 43.1544C140.321 41.0739 140.982 38.905 141.544 36.75C141.745 35.8297 141.744 34.9321 141.742 34.0365C141.719 33.8375 141.377 33.4761 141.279 33.4878C140.878 33.4311 140.382 33.4858 140.203 33.7034C139.758 34.152 139.515 34.676 139.273 35.2044C139.273 35.2044 137.776 38.8605 137.482 39.7909C137.091 40.8275 136.905 41.8483 136.622 42.8792L134.431 49.3031C133.908 50.8592 133.424 52.7508 133.003 54.3928C132.675 54.1298 130.471 51.5704 129.448 50.4839C127.985 48.9525 126.518 47.3774 124.951 45.8581C124.733 45.6843 124.459 45.5258 124.426 45.2316C124.491 44.0269 124.799 42.6843 124.678 41.5987C124.343 39.4424 123.543 37.6326 121.614 36.4497C121.389 36.2767 120.875 36.1316 120.591 36.2637C119.425 36.5895 118.823 37.4567 118.337 38.5051C117.713 40.0742 118.282 41.6068 118.752 43.1495C119.489 45.2628 120.694 47.1213 122.282 48.8427C123.314 50.028 127.175 55.0899 128.008 56.2962C128.008 56.2962 129.326 58.0222 129.519 58.2219C130.853 59.6018 131.222 60.0325 130.502 61.7037C130.21 62.6342 129.609 63.4998 129.11 64.4513C127.912 66.2777 126.593 68.0186 124.956 69.4985C124.178 70.1797 123.795 70.7774 122.404 71.181C122.247 71.2013 122.063 71.2183 121.862 71.2264L121.325 71.2232C120.176 71.1632 118.9 70.9638 118.075 69.3275C118.075 69.3275 119.083 72.1621 120.67 72.3177C122.257 72.4729 123.621 72.2825 124.733 71.9141C126.832 70.9873 128.219 69.0381 129.621 67.2871C130.15 66.631 130.547 65.6901 131.053 64.8366C131.558 63.9804 132.075 63.227 132.646 62.066C133.359 63.0868 133.854 63.9297 134.345 64.7726L137.229 69.1439C137.461 69.415 137.6 69.7988 137.845 70.1716C138.795 71.5608 139.938 72.8336 140.801 74.3314C142.064 76.6919 144.746 79.6185 145.946 80.1526C147.27 80.7418 149.228 80.1121 149.97 79.2339C151.377 77.5688 152.898 72.492 154.163 67.5039C155.756 61.2264 156.939 55.0092 156.939 55.0092C156.939 55.0092 153.418 67.4366 149.003 77.0209Z" fill="#F9AD19"/>
<path d="M122.754 46.1454C122.079 47.3145 121.392 48.3835 120.909 49.438C119.963 51.7373 119.076 54.1558 118.23 56.4393L115.304 65.2439C114.854 66.5885 114.304 67.9432 113.655 69.3141C113.335 70.0459 112.602 71.3901 112.488 71.4351C112.374 71.4805 112.29 71.4456 112.18 71.3678C112.069 71.2904 111.83 70.6745 111.765 70.3175C111.701 69.9608 111.79 68.7188 111.8 67.9209C111.746 67.4314 111.828 66.4973 111.776 66.0013C111.863 64.9975 111.813 64.4314 111.804 63.43C112.069 59.5106 112.138 55.6146 112.505 51.6854C112.713 48.1696 113.22 44.6254 113.617 40.988C113.716 39.1814 114.314 37.321 113.117 35.5594C112.766 35.0966 111.823 33.8047 111.232 33.8695C110.936 33.9044 110.552 34.0487 110.274 34.276L109.474 35.1598C109.133 35.6972 108.793 36.2341 108.562 36.8578C108.154 37.6986 108.365 38.6736 108.066 39.6089C107.791 40.7302 107.933 42.0177 107.669 43.2419C107.548 43.9527 107.637 44.7417 107.416 45.4618C107.416 45.4618 105.208 51.9699 100.468 58.5976C99.3041 60.2489 99.1724 60.4357 99.1724 60.4357C97.8765 59.5787 97.614 58.1113 97.1748 56.8652C97.0355 56.481 97.0383 53.9726 97.1472 52.0793C97.1813 51.4844 98.9072 36.0594 98.7154 35.5497C98.7564 35.657 96.9051 35.4479 96.5549 35.8888C96.5106 35.9269 96.4732 35.9626 96.4305 35.9995C96.0137 36.2884 95.462 36.8104 94.8924 37.7408C94.8766 37.7659 94.8615 37.7927 94.8465 37.8182C94.218 38.8661 93.5737 40.4198 93.065 42.7118C93.0516 42.7609 93.035 42.8083 93.022 42.8581C93.0073 42.9266 93 42.9943 92.987 43.0624C92.7453 44.2213 92.5389 45.5619 92.3849 47.1091C92.2968 47.6294 92.209 48.1489 92.1643 48.6384C92.1205 49.2925 92.1062 51.8828 92.0977 52.5786C92.0977 52.5786 92.0981 52.6989 92.1026 52.9072C92.088 54.3426 92.2058 55.7431 92.4601 57.1189C92.8302 59.5872 93.5786 62.3533 95.0939 63.443C95.0956 63.4438 95.0972 63.4442 95.0988 63.4458C95.564 63.8547 96.1137 64.1534 96.7584 64.3317C97.1265 64.4561 97.4677 64.5165 97.7859 64.529C100.714 64.5299 103.895 57.8195 105.672 53.4044C105.672 53.4044 106.87 50.0665 107.077 49.6276C107.299 49.1571 107.602 47.9755 107.683 47.7611C107.639 49.2568 107.398 53.4567 107.398 53.4567C107.398 53.4567 107.096 59.7614 107.336 62.8258C107.513 65.3006 107.787 67.7645 108.65 70.1643C109.121 71.705 109.665 73.0447 110.698 74.2248C111.619 75.3205 112.628 75.4109 113.497 74.2158C114.366 73.0244 115.233 71.8351 115.682 70.4881C116.905 67.0597 117.809 63.4706 118.919 59.9543L120.773 54.1659L122.715 49.0631L122.969 48.5209C124.155 48.3912 123.498 47.4588 122.754 46.1454Z" fill="#F9AD19"/>
<path d="M50.3837 79.1063C50.3837 79.1063 49.5123 84.4989 49.1772 85.7184C48.8415 86.9386 52.9778 84.3132 52.9778 84.3132L54.211 79.2254L50.3837 79.1063Z" fill="#FEC01A"/>
<path d="M132.608 75.9687C132.608 75.9687 134.966 73.8612 136.781 75.0875C136.781 75.0875 134.06 74.4402 133.597 76.8869C133.087 79.5766 132.496 79.6733 132.463 79.3878C132.43 79.1019 132.608 75.9687 132.608 75.9687Z" fill="#331C0F"/>
<path d="M136.782 75.0875C136.782 75.0875 132.604 74.3718 133.817 79.2392C135.031 84.1061 131.819 80.1173 131.819 80.1173C131.819 80.1173 132.771 76.8373 132.771 76.7992C132.771 76.7611 133.419 75.748 133.456 75.7103C133.495 75.6723 134.102 75.3051 134.3 75.2415C134.498 75.1783 135.374 75.0506 135.374 75.0506L136.11 74.8869" fill="#331C0F"/>
</g>
<defs>
<clipPath id="clip0_25_56">
<rect width="158" height="120" fill="white"/>
</clipPath>
</defs>
</svg>
