<svg xmlns="http://www.w3.org/2000/svg" width="158" height="120" fill="none"><g clip-path="url(#a)"><path fill="#F9AD19" d="M51.039 73.268c-.11 1.121-.3 2.283-.402 4.044-.276 2.301-.562 3.343-.783 4.958-.058.412-1.348 6.906-1.737 8.166-.388 1.261-2.014 5.53-3.31 7.365l-3.254 4.95c-1.912 2.607-4.273 4.758-6.656 6.717-.637.571-1.3.944-1.3.944-4.324 3.368-8.09 3.887-11.267 3.424-3.177-.462-5.018-2.214-5.96-3.276-1.375-1.552-2.44-3.534-2.577-3.853-.287-.769-.661-1.897-.85-2.675-.051-.49-.213-3.302-.224-3.405a18.2 18.2 0 0 1 .244-4.117 7 7 0 0 0 .132-.601c.343-2.33 1.42-4.346 2.608-6.272 1.01-1.701 2.152-3.13 3.721-4.297 1.573-1.17 3.357-2.332 4.976-2.942 1.62-.61 2.203-.695 3.774-.964.287-.024 1.82-.127 2.306-.007-2.028 1.826-3.514 3.38-5.027 5.042-2.684 2.892-4.725 6.11-5.07 10.233-.222 2.52.954 5.212 1.913 6.125s2.595 1.093 3.452.767 2.55-1.21 3.462-1.923 2.463-2.117 3.276-3.166 2.981-4.66 3.652-6.727c.364-1.237.605-2.662.66-3.962-.017-2.893-1.268-5.147-3.769-6.968.549-.46 3.336-2.456 8.17-5.687a307 307 0 0 1 9.267-5.709c.187-.118.925-.56.925-.56.077.687-.175 2.662-.352 4.376M32.4 82.43c1.71 1.79 2.37 2.938 2.522 4.696.12 2.875-.364 4.825-1.365 6.63-.58 1.063-1.068 2.11-1.672 2.979-1.659 2.177-3.536 4.179-6.205 5.373-1.623.675-3.047-.479-3.538-1.898-.362-1.048-.58-1.1-.586-2.838s.498-3.648 1.31-5.33c1.572-2.966 3.69-5.49 6.133-7.86.624-.664 1.875-1.564 2.707-2.157.189-.118.5.202.694.405m39.377-29.09c-1.535 1.466-3.305 2.657-4.97 3.842l-5.075 3.85s-5.345 3.904-5.44 3.85c-.092-.054.094-.503.1-.57.006-.069 1.315-8.926 1.517-13.435l.77-4.77.542-3.25.175-1.12c.046-.505 1.178-7.409 1.389-9.128.265-1.225.638-2.365.693-3.668.111-.81-.007-2.204-.173-2.476-.167-.271-.773-.597-1.253-.461s-1.986 2.815-2.141 3.227a37 37 0 0 0-1.506 3.561c-.393.942-.679 1.969-.966 3-.208.818-.846 3.91-1.21 5.246-.054.22-.435.422-.849.928-.427.355-1.01 1.106-1.387 1.754-1.577 2.255-3.601 5.656-3.601 5.656l-.043.063-3.823 6.104c-2.66 3.98-5.317 7.97-8.294 11.788a23 23 0 0 1-4.406 4.473c-1.01.808-1.943.511-2.56-.519-.59-.831-.275-5.808-.226-8.388 0 0 .476-3.957.77-7.026l1.153-6.313c.317-1.635.404-3.202.66-4.974 0 0 .077-1.723.132-2.126.143-1.415.202-1.988.248-3.387.1-1.808.287-3.726.276-5.617-.08-1.958-.327-3.626-.94-5.783-.49-1.72-1.182-3.46-2.532-4.807-1.568-1.526-3.456-2.312-5.65-2.271-.802-.01-1.667.284-2.546.482a22 22 0 0 0-3.607 1.197L17 22.27s-.94.303-2.56 1.298a24 24 0 0 0-2.47 1.652c-1.932 1.507-3.748 3.202-5.447 4.986-1.017 1.055-1.987 2.184-2.78 3.423l-.003.004c-7.547 9.521-2.393 22.183 4.194 23.85 2.868.67 3.716.596 3.734.28.025-.434-10.751-4.246-10.175-14.199.06-.748.143-1.499.238-2.243.182-1.142.675-3.337 1.98-5.88l.418-.68c.851-1.382 1.756-2.767 2.834-4.026 2.646-2.94 6.598-5.791 12.504-7.64.245-.067.492-.13.748-.18 3.117-.74 5.037.34 5.882 3.441.103.399.257.855.39 1.3.429 2.332.669 6.205.145 12.58-.24 1.273-.446 3.627-.576 5.503a180 180 0 0 1-.436 3.256s-3.01 15.082-.353 20.587c.398.908.884 1.711 1.172 2.125.921 1.662 2.535 3.053 4.29 2.815.875-.2 1.611-.779 2.348-1.36 1.09-1.017 2.066-2.118 3.043-3.23.273-.227.799-1.076 1.074-1.305.627-.666.692-.782 1.211-1.536 1.56-2.165 2.902-4.51 4.35-6.762l3.506-5.374 3.737-5.996.912-1.587c1.328-2.047 2.358-3.309 2.987-4.001-.033.751-1.942 15.146-2.028 16.151 0 0-.55 6.162-.53 6.757.05 1.485-.225 1.805-1.267 2.317l-4.885 2.836c-1.692.98-3.37 2.067-4.955 3.138-1.59.973-3.185 1.946-4.765 3.02l-3.053 2.229c-.371.242-.371.242-.6.376-.91-.102-2.206-.77-5.501.131-1.065.317-2.077.595-3.019 1.095-2.745 1.4-5.127 3.358-7.173 5.681-1.607 1.92-2.715 4.046-3.558 6.334-.148.4-.36 1.054-.536 1.61-.087.163-.423 1.65-.397 1.828a27 27 0 0 0-.168 2.556c-.035.102-.016 1.136.004 1.541l.001.04.002.001c.048.961.104 1.89.208 2.835.12 1.082.737 2.934 1.378 4.334s4.096 6.535 8.785 7.21c5.365.741 9.162-1.472 9.162-1.472 2.008-.819 3.255-1.63 4.427-2.633.664-.392 1.15-.95 1.59-1.25 1.68-1.139 2.622-1.989 3.776-3.314l2.556-3.072c1.221-1.63 2.537-3.27 3.659-4.891.845-1.393 1.694-2.779 2.342-4.152.493-.951 1.4-2.977 1.532-3.591 1.882-5.378 2.822-9.455 2.932-10.264.43-1.544.76-3.077 1.09-4.607.389-1.936.672-3.864.96-5.79.045-.507.135-1.853.21-2.53.013-1.083.098-1.146.097-1.706 1.005-.757 1.128-.746 1.806-1.36l.8-.613c2.788-1.9 5.674-4.217 8.494-6.082 2.62-2.058 4.275-3.33 4.826-3.788 1.837-1.505 1.643-1.569 3.367-3.154.187-.122-2.223.96-3.688 2.218"/><path fill="#fff" d="m143.156 17.921-.081-.061a43 43 0 0 0-7.076-3.88 28 28 0 0 0-3.759-1.819c-1.605-.856-3.395-1.439-4.901-1.81-3.655-.904-7.516-1.162-11.231-.46-3.533.674-6.914 2.024-9.888 4.04-2.29 1.547-5.17 3.898-6.014 6.7-.88.649-1.302 1.747-.36 2.731a24.3 24.3 0 0 0 3.947 3.336c1.63 2.235 5.29 3.715 7.458 4.365 3.098.93 6.302 1.343 9.518 1.3 1.496.152 3.014.038 4.444-.354a32.8 32.8 0 0 0 10.004-3.207c1.842-.943 3.623-2.035 5.254-3.311 1.678-1.31 3.909-2.928 4.372-5.076.283-1.307-.595-2.155-1.687-2.494"/><path fill="#F9AD19" d="M147.816 15.595c-1.625-5.997-7.979-10.774-13.418-13.177-5.976-2.636-12.839-3.168-19.124-1.342q-.286.085-.571.175c-5.162 1.624-10.83 5.088-13.578 9.918a8.3 8.3 0 0 0-1.042 3.462c-.084 1.437.778 4.976 2.78 3.206 1.493-1.318 3.357-2.346 5.071-3.337 1.759-1.013 3.68-1.793 5.61-2.421a34 34 0 0 1 5.425-1.288c1.212.272 2.478.284 3.774.197.657-.045 1.214-.1 1.753-.119q1.633.24 3.237.64c.449.112.926.135 1.372.064 1.487.703 2.965 1.44 4.503 1.995a81 81 0 0 1 5.907 3.263q.32.191.68.288c.289.484.822.86 1.604.957l.856.108c.568.07 1.141-.097 1.617-.41.658.338 1.541.33 2.173.063.8-.339 1.623-1.311 1.371-2.242"/><path fill="#132136" d="M125.686 19.566c-.357-.695-.929-1.223-1.608-1.602-.934-.67-2.137-.909-3.279-.728a6 6 0 0 0-.46.037c-2.158.272-4.232 1.884-4.311 4.184-.079 2.184 1.835 3.828 3.911 4.034.435.042.89.022 1.336-.059a4.1 4.1 0 0 0 1.864-.521c1.779-.996 3.625-3.225 2.547-5.345"/><path fill="#132136" d="M139.344 23.497c-1.005.97-2.1 1.858-3.224 2.683a27.4 27.4 0 0 1-6.027 3.348c1.351-1.634 2.219-3.712 2.573-5.774.459-2.669.011-5.503-1.3-7.875a17 17 0 0 0-.708-1.162 41 41 0 0 1 2.096.949c1.368.67 2.714 1.372 4.06 2.077a110 110 0 0 0 2.544 1.716 49 49 0 0 0 2.449 1.496l.027.018c-.871.801-1.634 1.688-2.49 2.524m-11.99 5.837a8.8 8.8 0 0 1-2.688 1.532c-.406.14-.87.241-1.305.383a27 27 0 0 1-3.564.185c-.29-.025-.583-.053-.874-.1-1.338-.224-2.512-.622-3.636-1.393-1.147-.787-2.305-1.846-2.817-3.162a12.1 12.1 0 0 1-.805-4.038c-.14-5.126 3.981-10.215 9.289-10.432l.018-.002c1.359-.024 2.716.06 4.062.24.396.144.789.298 1.183.446 1.032 1.146 2.175 2.189 2.959 3.56 1.19 2.068 1.737 4.47 1.463 6.842-.273 2.374-1.445 4.417-3.285 5.939m30.644-8.096c-.014-.122-.372-.227-.802-.307-2.461-.463-4.923-1.038-7.193-2.127-2.429-1.162-4.636-2.79-6.95-4.158q-.257-.173-.497-.327a19.6 19.6 0 0 0 3.121-.46 19.7 19.7 0 0 0 3.244-1.06c1.719-.693 4.706-2.263 4.778-2.368 0 0-5.929 1.459-11.629 1.067-3.085-.2-5.901-1.568-8.878-2.336-4.663-1.206-9.365-2.287-14.202-1.784a28.26 28.26 0 0 0-11.988 4.125 26.7 26.7 0 0 0-5.924 5.008c-1.653 1.882-3.341 4.267-3.162 6.892.021.254.374.213.474.048.072-.123.157-.24.242-.358.715-.962 1.626-1.762 2.551-2.522.948-.784 1.837-1.639 2.823-2.382a28 28 0 0 1 4.356-2.705 28 28 0 0 1 4.676-1.843c-2.655 1.992-4.048 5.448-3.761 8.746.291 3.299 2.169 6.377 4.832 8.354-3.606-.702-6.792-2.535-9.941-4.334-1.514-.867-2.952-1.901-4.166-3.157-.135-.143-.366-.453-.577-.479-.521-.067-.037.773.048.933 1.691 3.164 4.566 5.362 7.713 6.97q.173.085.347.175.352.173.707.34a31.5 31.5 0 0 0 9.579 2.737c6.794.808 13.627-.794 19.51-4.236a27 27 0 0 0 4.319-3.141c1.31-1.167 2.709-2.394 3.51-3.975-.032.06 3.059.756 3.359.796a17.7 17.7 0 0 0 6.919-.502c.76-.213 2.516-.513 2.563-1.538zM78.08 23.51l-1.212 1.081c-.173.084-.431.084-.607.045-1.081-.133-1.642-.777-1.861-1.815-.345-1.292-.389-2.588-.173-3.929.088-.473.088-.949.172-1.424.089-.43.522-2.07.648-2.46.133-.344.61-1.295.61-1.295s.691-1.164 1.254-1.552c.174-.175.607-.044.953-.044-.088.907-2.339 5.287-1.959 7.926.16.884.225 1.052.27 1.226.13.559.173 1.208.693 1.64l.746-.66s.595-.72.724-.895c.26-.302.563-.648.78-.992l2.034-3.54c.128-.302.563-2.504.563-2.504s.124-.787.346-1.164c.13-.26.302-.477.475-.69l.39-.347a.85.85 0 0 1 .434-.13c.258 0 .602.605.734.82.432.819.085 1.597-.044 2.374-.344 1.554-.734 3.065-.995 4.577-.346 1.682-.563 3.363-.865 5.047a85 85 0 0 1-.216 1.945c-.05.32-.13.69-.13 1.035 0 .13.085.303.13.474.043 0 .087.044.13.044.215-.303.432-.562.605-.862q.52-.844.909-1.683l1.687-3.671c.479-.949.911-1.942 1.429-2.892.259-.432.648-.818.995-1.294.26.603.088.991-.432.991l.302.218-1.084 2.113-1.08 2.419c-.648 1.468-1.21 2.981-1.902 4.403-.261.56-.696 1.034-1.127 1.507-.433.48-.865.39-1.21-.128-.392-.558-.566-1.165-.694-1.855-.262-1.077-.262-2.16-.217-3.237.046-1.338.26-2.676.434-4.056 0-.131.346-1.322.297-1.783l-.423.692-1.432 2.861c-.172.344-.389.645-.605.948-.13.172-.476.515-.476.515"/><path fill="#132136" d="m87.774 17.254.075.068c.12-.24.18-.627.181-.889.005-.587.023-1.564-.673-1.602-.133-.007-.23-.091-.406.265s.823 2.157.823 2.157m1.554 5.567c-.302-.56-.682-1.062-.937-1.623 0-.044-.792-1.312-1.18-1.875-.605-.819-1.038-1.682-1.256-2.632-.132-.688-.302-1.38.044-2.027.26-.433.56-.777 1.082-.864.13-.043.345.045.431.13.78.602 1.04 1.426 1.083 2.373 0 .477-.13.95-.22 1.468 0 .13.049.304.134.388.604.734 1.209 1.426 1.775 2.158.387.522.733 1.038 1.082 1.555.085.042.128.128.256.26.261-.692.518-1.38.826-2.029l1.253-2.677c.171-.43.305-.864.519-1.293.174-.39.432-.735.649-1.124l.348-.778c.13-.217.258-.43.475-.605.086-.084.302-.084.475-.04.045 0 .174.17.174.26-.043.385-.086.775-.216 1.163a29 29 0 0 1-1.17 2.675c-.303.693-.735 1.34-1.083 2.03l-1.47 3.107c-.13.259-.086.473.087.736.561 1.034 1.169 2.072 1.687 3.149.563 1.123.995 2.33 1.47 3.538.348.822.695 1.687 1.084 2.506.175.386.337.35.693.042.838-.721 1.382-1.397 1.517-1.397.124 0-.579 1.64-.992 2.036-.207.214-.8.696-1.043.7-.244.002-.693.085-.956-.129-.907-.734-1.512-1.684-1.943-2.765-.305-.69-.74-1.295-1.084-1.943-.084-.173-.13-.344-.216-.473l-1.04-2.027a15 15 0 0 0-.606-1.252c-.301.475-.562.775-.821 1.121-.258.345-.476.734-.734.992-.694.693-1.387 1.466-2.34 1.77-.475.173-.993.173-1.512.216-.129 0-.305-.217-.347-.347-.09-.258 0-.387.303-.344h.346c.56.086.953-.304 1.384-.602a11.2 11.2 0 0 0 2.079-1.942c.26-.39.514-.762.734-1.124.421-.695.396-.785-.07-1.339-.081-.094-.405-.604-.405-.56z"/><path fill="#F9AD19" d="m76.367 45.88.8-.57a20 20 0 0 0 2.714-2.021c1.186-1.032 2.36-2.407 3.068-3.96.383-.836.142-1.909-.382-2.263-.862-.78-1.874-.678-2.705-.007-1.254 1.015-2.492 2.658-2.87 4.195-.278 1.124-.625 4.626-.625 4.626m17.986-6.293c-.196 1.719-.552 1.837-1.496 3.164-.133.246-.031.043-.133.246-.799 1.587-2.16 4.122-2.927 5.278-1.2 1.805-1.88 3.218-3.483 4.75-1.924 1.839-4.173 3.348-6.942 3.464-1.32.094-2.646.186-3.896-.16-1.273-.439-2.481-1.317-3.172-2.556-.482-1.047-.888-1.744-1.157-2.757s-.841-6.48.182-9.59c.271-.815 1.184-2.628 1.233-2.714 1.322-2.346 2.558-3.058 4.252-4.144.88-.565 2.333-.974 2.432-.992 1.716-.293 2.531-.108 3.65.482 1.208.565 1.815 1.589 1.907 2.84.096 1.344-.443 2.623-1.037 3.74-1.284 2.255-3.344 4.025-5.55 5.63-.095.029-.158.152-.255.184-1.884.987-1.884.987-1.651 3.094.081.596.063 1.224.237 1.793.61 1.988 2.97 3.241 5 2.416 1.304-.502 2.833-.961 3.826-2.099 1.305-1.493 2.847-2.911 3.822-4.544.99-1.656 4.246-7.453 5.158-7.525"/><path fill="#132136" d="M73.72 59.545c.001.626-.346 2-.958 3.118-.188.341-.24.579-.36.88-.246.486-.427.973-.73 1.395-.246.306-.61.244-.851-.182-.427-.604-.366-1.273-.183-1.942.304-.968.365-2.001.547-3.032.122-.607.31-1.605.546-1.819.237-.215.854-.244 1.218-.244.12-.059.425.062.425.183 0 0 .345 1.314.347 1.643m47.612 4.865a4.74 4.74 0 0 1 1.092-2.38c.397-.596 1.387-.596 1.789 0 .397.497.695 1.294.594 1.984-.197 1.29-.694 2.675-1.093 3.964-.1.298-.497.697-.695.697-.397 0-.898-.2-1.092-.498-.298-.396-.402-.989-.595-1.583 0 0-.152-1.094 0-2.183M54.639 88.147c-.068.735-.214 1.51-.425 2.523-.184.169-.346.368-.585.616-1.27 1.326-2.765 2.414-4.158 3.505-.696.492-1.591.693-2.484.894-.795.193-1.491-.5-1.491-1.39-.009-2.958.765-5.494 2.022-7.542.762-1.241 1.057-1.655 2.009-2.694 1.013-1.105 2.127-1.066 3.818.024l1.74.998c-.192 1.47-.248 2.076-.446 3.066m9.247-13.183c.503-1.963.518-2.176 1.153-4.16.634-1.983.99-2.793 1.925-4.268.101 0 .201.097.298.097.102.793.445.984.2 2.377-.286 1.927-1.171 4.214-1.99 5.852-.357.71-.74 1.639-1.143 2.377-.415.76-.685 1.153-.94 1.484s-.501.501-.501.501h-.2c.399-1.39.955-3.311 1.198-4.26m-4.28 17.644c.399-1.983.8-3.963 1.296-5.947 0-.198.593-2.382.694-2.678l.796-2.179c.473-.952 1.133-1.808 1.71-2.662l.004-.002.013-.022c.02-.031.044-.063.064-.093.003-.006 0-.014.003-.02.283-.517 1.116-1.977 1.116-1.977.46-.703.773-1.434 1.065-2.166.798-1.584 1.59-3.17 2.188-4.854.496-1.687.399-3.375-.3-5.059a3.7 3.7 0 0 0-.993-1.189c-1.093-.595-3.376 0-4.275 1.288-.893 1.19-1.688 2.476-2.483 3.867-.897 1.984-1.79 3.967-2.585 5.947a56 56 0 0 0-1.789 5.353c-.297 1.092-.596 2.28-.791 3.47-.502-.393-.7-.892-.997-1.287-.793-1.389-1.89-2.78-3.478-2.78-2.582-.096-4.873.796-6.562 2.877-1.39 1.784-2.282 3.77-2.98 5.947-.496 1.687-.496 3.37-.2 5.057.079 1.339 1.006 2.782 1.475 3.378.47.595 1.606 1.483 1.705 1.483 1.9.682 3.578.196 5.068-.994 1.494-1.19 2.883-2.479 4.276-3.666.167 1.314-.135 4.501.456 8.119.5 2.764 1.313 4.796 1.629 5.261.674.664 1.79.894 2.384.202a15.6 15.6 0 0 0 1.79-2.581c1.787-2.874 3.479-5.948 5.173-8.92.298-.499.395-1.094.791-1.583.16-.197 1.522-2.737 1.522-2.737l1.06-1.627c0-.101-.195-.4-.295-.4a.48.48 0 0 0-.596.199c-.277.368-2.587 4.267-2.98 4.861l-3.78 6.341c-.692 1.189-1.491 2.382-2.283 3.569-.2.297-.598.498-1.094.793 0-.295-.099-.394 0-.496l.895-5.35c.096-.894.99-5.45 1.289-6.743"/><path fill="#331C0F" d="M42.64 26.142v.004c.017-.017.011-.013 0-.004m32.586-8.326c-.305.17-.738.905-.693 1.209l.13.127c.214-.475.43-.906.563-1.336"/><path fill="#132136" d="M67.694 14.879c-1.036-.172-2.035-.258-3.115-.43-.13 0-.26-.088-.391-.175 2.208-2.933 4.243-5.87 6.793-8.503l-.084.389-1.038 3.107c-.133.434-.518 1.6-.566 1.77-.214.563-.3 1.165-.517 1.726-.128.434-.301.863-.388 1.25l-.13.39c-.047.304-.216.519-.564.476m6.45 4.79-.607 1.728c-.043.216-.1.27-.269.716-.17.446-.424.967-.424.967l-.737 1.987a87 87 0 0 0-1.037 2.545c-.26.691-.564 1.38-.779 2.029-.044.13-.607 1.384-.693 1.555l-.456 1.283a4.2 4.2 0 0 1-.371.774l-1.421 2.519-.52.731c-.044-.041-.044-.041-.087-.041.086-.648.13-1.296.172-1.943-.043-.045.298-2.466.478-3.929 0-.13.475-3.193.517-3.323.044-.129.132-1.078.216-1.466l.39-1.772c.216-.908.346-1.814.563-2.72.262-.993.605-1.941.865-2.932l.217-.995c.086-.301.165-.601.216-.992.091-.455.168-.925.324-1.023.162-.101.47-.184.714-.228a3 3 0 0 0 .563-.173c.566-.259 1.212-.864 1.168-1.683-.69.387-1.299.907-2.165 1.12.176-.69.824-2.891.824-3.062.042-.13.302-1.122.346-1.251.22-.866.433-1.686.605-2.505.13-.518.304-3.149-.043-3.884-.129-.347-.301-.477-.606-.347-.26.085-.518.304-.692.475-.647.908-1.168 1.812-1.817 2.633l-2.9 3.713c-.302.389-.649.863-.995 1.25l-.434.736-.95 1.122-.607.777c-.043.042-.215.042-.3 0-.392-.13-1.128-.347-1.128-.347s-2.853-.863-4.325-1.25c-.909-.172-3.592-.692-4.027-.692-.862-.043-1.597-.071-3.416.215-.504.107-.822.305-1.214.39-.906.26-1.727.69-2.553 1.12-.474.217-1.687 1.082-1.772 1.211-1.213.95-2.036 2.116-2.682 3.41-.218.473-.354.866-.535 1.472a12.7 12.7 0 0 0-.437 2.174 8.7 8.7 0 0 0 .062 2.139c0 .17.336 1.216.336 1.216.3.855 1.48 2.32 2 2.623.52.301.95.131.95.087-.173-.043-.257-.1-.604-.32 0 0-.604-.414-.909-.802-.451-.587-.562-.995-.65-1.125a5.8 5.8 0 0 1-.519-1.68c-.31-2.088-.108-3.31.306-4.578.333-1.019 1.167-2.543 2.206-3.537.128-.087.779-.734.865-.777 1.36-1.085 2.854-1.64 4.372-2.16 0 0 1.496-.542 3.588-.473.953.043 3.246.604 3.55.69.518.174 1.041.304 1.515.476.692.171 1.384.431 2.077.689.822.26 1.6.56 2.466.82-.476.648-.866 1.252-1.297 1.815l-1.559 1.855c-.39.474-.78 1.037-1.252 1.465-1.255 1.211-2.64 2.29-4.245 3.153-1.212.603-2.421 1.164-3.806 1.297-.997.04-1.818-.133-2.337-1.038-.303-.647-.434-1.338-.262-2.069l.13-.619c.39-1.052.73-1.76.996-2.233.392-.56.737-1.12 1.255-1.596.607-.52 1.252-.878 2.037-1.079.55-.14 1.338-.087 1.513-.042-.26-.217-.4-.338-.813-.354-.475.044-.805.059-1.39.214-.234.06-.653.313-.958.483-.621.355-1.116.818-1.55 1.347a9 9 0 0 0-.459.615 31 31 0 0 0-.444.707c-.001.004-.008.005-.01.008-.131.217-.273.455-.403.699l-.02.038-.002.004c-.12.228-.23.46-.312.683-.39 1.08-.346 2.114.043 3.238.431 1.033 1.213 1.425 2.162 1.64.78.216 1.603 0 2.338-.215a15 15 0 0 0 1.686-.735 65 65 0 0 0 2.987-1.814c.52-.344.955-.775 1.385-1.249.52-.43.998-.865 1.428-1.383.388-.345.65-.82.997-1.209l1.715-2.23c.13-.128.305-.419.391-.59.361-.547.706-.63 1.224-.5.779.17 2.983.386 3.377.386.215 0 .302.043.26.259-.132.603-.26 1.166-.435 1.724-.172.693-.347 1.384-.475 2.072-.215.953-.39 1.945-.521 2.85l-.303 1.642c-.172 1.033-.302 2.116-.43 3.15a8 8 0 0 0-.087 1.036c-.044.17-.044.39-.044.56-.043.302-.175 2.547-.215 3.282 0 .129.084 2.59.04 3.15-.085.777.219 2.461.219 2.59.086.562.432.861.95.69.26-.086.519-.301.606-.43l.954-1.6c.172-.299 1.039-2.289 1.039-2.289.256-.601.517-1.168.737-1.731.127-.303.43-1.115.43-1.156 0-.13 1.783-4.043 2.425-6.044a329 329 0 0 0 2.118-5.957l-.128-.13c-.173.087-.392.13-.475.258"/><path fill="#fff" d="M119.855 18.9c0 1.157-.94 2.094-2.1 2.094a2.096 2.096 0 0 1-2.099-2.093c0-1.157.94-2.094 2.099-2.094s2.1.937 2.1 2.094"/><path fill="#132136" d="M131.923 83.057c-.187.126-.354.313-.502.486-.138.17-3.106 3.8-5.94 7.147q-.584.705-1.189 1.395a68 68 0 0 1-4.03 4.203.53.53 0 0 1-.516-.241 4 4 0 0 1-.198-.703 3.7 3.7 0 0 1 .02-.648q.06-.407.143-.806.045-.2.109-.501c.222-.963.488-1.896.623-2.829.401-1.755.731-3.51 1.001-5.315l.009-.063c.062-.42.125-.84.18-1.267.501-2.773 1.491-5.355 1.596-8.227.019-.542-.187-.977-.485-1.375-.104-.197-.29-.314-.579-.503-.652-.428-1.126-.403-1.62.093-1.095 1.188-1.392 2.779-1.99 4.265 0 0-.499 2.084-.595 2.381-.497 1.98-.596 4.062-1.096 6.042-.199.997-.395 3.176-.395 3.176s0 1.122.009 2.239c0 0-.192 1.725.169 3.4.124.76.413 1.666 1.133 2.332q.085.082.18.159l.011.005a2.6 2.6 0 0 0 1.229.568q.162.028.336.04h.003l.072-.002c1.486.045 3.031-1.538 4.615-3.717 2.4-3.304 4.91-7.716 7.289-10.435l.658-.835z"/><path fill="#132136" d="M96.835 77.413c-.248.303-1.1-.03-1.542-.113-1.375-.258-2.385-1.358-2.385-2.909s1.141-2.805 2.55-2.805c.898 0 1.899.317 2.352 1.09.26.438.291.643.291 1.206 0 .43-.308 1.406-.463 1.847-.24.686-.361 1.146-.803 1.684M117.28 85.1c0 .081-.653.801-.75.969l-1.484 1.832-2.474 3.244s-.694.918-.991 1.332l-2.768 3.496c-.42.494-.592.666-.889 1.08-1.388 1.667-2.672 3.417-4.059 4.995-1.184 1.333-2.292 2.684-3.76 3.744-.396.286-.98.457-1.78.669-1.007-2.37 1.106-7.305 1.837-9.172.745-1.902 2.124-3.647 3.267-5.445s2.219-2.696 3.309-4.11c.891-1.331 3.956-6.493-4.155-8.82-1.289-.42-2.574-.75-3.862-.918-.298-.082-.79-.082-.888-.25-.1-.249.099-.582.196-.832.381-.96.958-2.023 1.08-2.949.141-1.086.273-1.9.142-2.401-.198-.939-.667-1.542-1.15-1.921 0 0-.116-.11-.188-.14-1.473-.95-2.965-.945-4.49-.48-.603.258-2.119.807-3.012 2.995-.863 2.114-.085 6.28 1.889 8.214 0 0 1.704 1.356 2.928 1.785 0 0-10.013 32.493-10.809 34.474-.196.397-.594.697-.892 1.19-.699-.698-1.261-1.669-1.293-3.047a80 80 0 0 0-.198-3.299c.05-1.625.039-6.043.039-6.043 0-.094.083-2.319.232-6.858.148-4.539 1.24-11.11 1.398-12.236s1.115-7.972 1.413-9.558l1.287-5.557c.204-1.187.404-2.477.702-3.667.395-2.279.99-4.558 1.39-6.743.198-.595.297-1.287.198-1.881-.197-.695-.885-1.835-1.193-1.985-.307-.148-1.29-.096-1.691.201-.692.792-1.291 1.683-1.886 2.576-.497.598-.596 1.488-1.097 1.98a12 12 0 0 1-2.382 2.088 56 56 0 0 1-2.569 1.54l-3.935 2.163q-.387.083-.556.306l-.008.004-.003.007a.73.73 0 0 0-.124.486.5.5 0 0 0 .027.174c.005.027.004.05.012.078l.026-.007c.161.218.68.193 2.106-.738q.288-.187.534-.36l3.796-2.464 2.88-1.983-.298 1.487c-.595 2.281-.943 3.214-1.538 5.392-.299 1.289-.746 3.827-1.044 5.111-.4 1.491-1.293 11.604-1.393 12.297 0 .112-.006.267-.015.449a124 124 0 0 0-.324 3.99c-.068.737-.128 1.367-.16 1.707l.002 1.43a89 89 0 0 0 .092 8.787c.027 1.124.06 2.127.104 2.87.105.797.401 3.175.502 3.667l.892 4.265c.335 1.42.746 2.836 1.516 4.078l.007.017.004-.001c.141.227.291.45.46.665.597.793 1.688 1.09 2.584.592.797-.493 1.49-1.189 1.788-2.08.701-1.784 10.317-34.896 10.4-35.302 2.394.457 7.44 1.314 5.282 3.123-.47.42-1.92 2.04-2.772 3.33-.853 1.288-2.272 4.329-2.472 5.078l-.665 1.791c-.1.337-.62 1.873-.72 2.452a31 31 0 0 0-.591 4.245c-.1 1.996.195 3.913 1.879 5.579.491.414.985.498 1.58.498 1.484-.084 2.669-.666 3.661-1.498.395-.416 1.384-1.248 1.487-1.335.591-.58 1.187-1.165 1.677-1.745 1.091-1.25 1.979-2.5 2.972-3.748.888-1.162 1.88-2.325 2.865-3.493l3.663-4.911a47 47 0 0 1 2.473-3.496c.893-1 1.584-2.08 2.475-3.076.888-1.001 1.781-2.416 2.769-3.416.109-.112-2.925 2.058-4.494 3.443m18.319-74.784c3.906-.3 10.978-5.727 10.978-5.727l-6.914 2.564c-6.914 2.564-10.359 2.094-10.359 2.094m-2.674.291c4.264-.834 11.343-7.974 11.343-7.974l-7.28 3.82c-7.283 3.822-11.14 3.711-11.14 3.711"/><path fill="#132136" d="M119.215 9.466c3.511-1.73 8.143-9.086 8.143-9.086l-5.496 4.82c-5.497 4.821-8.853 5.712-8.853 5.712m-1.425.645C114.78 9.3 118.199 1.31 118.199 1.31l-4.671 5.619c-4.672 5.62-7.848 7.024-7.848 7.024"/><path fill="#132136" d="M104.474 16.59c2.794-2.737 4.889-11.168 4.889-11.168l-3.711 6.291c-3.712 6.293-6.621 8.185-6.621 8.185"/><path fill="#351D0F" d="M132.868 82.48s.348-.328.754-.834c.406-.507.728-.211.753-.203.026.009.246.203.246.203l-1.229 1.064-.524-.186"/><path fill="#132136" d="M133.315 102.528c-1.065-.211-1.942-1.413-2.171-2.449-.166-1.37.211-2.74.555-4.054.503-1.308 1.184-2.538 1.809-3.392l.633-.757c1.927-1.911 3.574-3.127 3.578-3.13.128-.008 5.252 2.685 3.667 8.403-.112.428-.228.855-.367 1.277a9.6 9.6 0 0 1-1.192 2.167c-.896.942-2.575 2.331-6.512 1.935m12.965-20.093-6.551 3.287c-.21.116-.813.475-.965.478-.237.005-.187.104-.928-.435s-2.028-.987-3.576-5.102c-1.548-4.114.015-5.674.015-5.674s-.736.322-1.112.575c-.737.497-1.212.844-1.661 1.505-.718 1.031-1.073 2.134-.985 3.163.09 1.322.449 2.572 1.434 3.673.447.59 1.384 1.527 1.612 1.693.228.165.672.536.853.69.181.155.898.642 1.356.909.414.241.901.386.929.574.029.198-.851.734-.916.79-.57.382-9.631 6.588-6.337 12.757.745 2.206 4.449 2.789 5.413 2.773.553-.009 1.297-.098 2.044-.24l-.004.002c-.039.012-.01.006.065-.015a12 12 0 0 0 1.703-.447c.338-.122 1.219-.64 1.273-.667 3.51-1.939 4.452-4.252 4.7-8.93.117-2.885-3.092-5.756-4.727-7.027a.2.2 0 0 1-.017-.064c-.001-.163.253-.275.624-.42l2.587-1.376c.452-.221 2.428-1.423 3.026-1.746.48-.26 1.135-.802 1.135-1.166-.453.146-.722.295-.99.44"/><path fill="#FEC01A" d="M8.932 56.2v1.504s3.36 1.08 5.214-.566c1.799-1.598 2.54-4.81 2.438-6.569 0 0-2.152 8.468-7.652 5.543"/><path fill="#F9AD19" d="m123.191 44.156-.146-.183-1.548-2.222c-.225-.449-1.523-1.66-1.349-2.345.158-.618.868-1.08 1.307-.94 1.527.488 1.705 1.965 1.904 3.269.16 1.052.014 1.695-.168 2.42m25.812 32.865c-.494.952-1.1.92-1.594.075-1.098-1.773-2.104-3.658-3.1-5.442-1.396-2.642-2.688-5.289-4.255-7.71-1.459-2.332-3.104-4.546-4.65-6.768-.46-.55-.613-1.032-.382-1.653l2.57-7.465c.619-1.668 1.44-3.255 1.961-4.904a69 69 0 0 0 1.991-6.404c.201-.92.2-1.818.198-2.714-.023-.199-.365-.56-.463-.548-.401-.057-.897-.002-1.076.215-.445.449-.688.973-.93 1.501 0 0-1.497 3.657-1.791 4.587-.391 1.037-.577 2.057-.86 3.088l-2.191 6.424c-.523 1.556-1.007 3.448-1.428 5.09-.328-.263-2.532-2.823-3.555-3.91-1.463-1.53-2.93-3.106-4.497-4.625-.218-.174-.492-.332-.525-.626.065-1.205.373-2.548.252-3.633-.335-2.157-1.135-3.966-3.064-5.15-.225-.172-.739-.317-1.023-.185-1.166.325-1.768 1.193-2.254 2.241-.624 1.57-.055 3.102.415 4.645.737 2.113 1.942 3.971 3.53 5.693 1.032 1.185 4.893 6.247 5.726 7.453 0 0 1.318 1.726 1.511 1.926 1.334 1.38 1.703 1.81.983 3.482-.292.93-.893 1.796-1.392 2.747-1.198 1.827-2.517 3.568-4.154 5.048-.778.68-1.161 1.278-2.552 1.682a6 6 0 0 1-.542.045l-.537-.003c-1.149-.06-2.425-.26-3.25-1.895 0 0 1.008 2.834 2.595 2.99 1.587.155 2.951-.035 4.063-.404 2.099-.927 3.486-2.876 4.888-4.627.529-.656.926-1.597 1.432-2.45.505-.857 1.022-1.61 1.593-2.771.713 1.02 1.208 1.864 1.699 2.707l2.884 4.37c.232.272.371.656.616 1.029.95 1.389 2.093 2.662 2.956 4.16 1.263 2.36 3.945 5.287 5.145 5.82 1.324.59 3.282-.04 4.024-.918 1.407-1.665 2.928-6.742 4.193-11.73 1.593-6.278 2.776-12.495 2.776-12.495s-3.521 12.428-7.936 22.012"/><path fill="#F9AD19" d="M122.754 46.145c-.675 1.17-1.362 2.238-1.845 3.293-.946 2.3-1.833 4.718-2.679 7.001l-2.926 8.805q-.675 2.016-1.649 4.07c-.32.732-1.053 2.076-1.167 2.121-.114.046-.198.01-.308-.067-.111-.078-.35-.694-.415-1.05-.064-.357.025-1.6.035-2.397-.054-.49.028-1.424-.024-1.92.087-1.004.037-1.57.028-2.571.265-3.92.334-7.815.701-11.745.208-3.515.715-7.06 1.112-10.697.099-1.807.697-3.667-.5-5.429-.351-.462-1.294-1.754-1.885-1.69-.296.035-.68.18-.958.407l-.8.884c-.341.537-.681 1.074-.912 1.698-.408.84-.197 1.816-.496 2.75-.275 1.122-.133 2.41-.397 3.634-.121.71-.032 1.5-.253 2.22 0 0-2.208 6.508-6.948 13.136l-1.296 1.838c-1.296-.857-1.558-2.325-1.997-3.57-.14-.385-.137-2.893-.028-4.787.034-.595 1.76-16.02 1.568-16.53.041.108-1.81-.101-2.16.34-.044.038-.082.074-.125.11-.416.29-.968.811-1.538 1.742l-.045.077c-.629 1.048-1.273 2.602-1.782 4.894l-.043.146c-.015.069-.022.136-.035.204a39 39 0 0 0-.602 4.047 21 21 0 0 0-.22 1.53c-.044.653-.059 3.244-.067 3.94 0 0 0 .12.005.328a22 22 0 0 0 .357 4.212c.37 2.468 1.119 5.234 2.634 6.324q.002 0 .005.003a4.15 4.15 0 0 0 1.66.886c.367.124.709.184 1.027.197 2.928 0 6.109-6.71 7.886-11.125 0 0 1.198-3.338 1.405-3.776.222-.47.525-1.653.606-1.867-.044 1.496-.285 5.696-.285 5.696s-.302 6.304-.062 9.369c.177 2.475.451 4.938 1.314 7.338.471 1.541 1.015 2.88 2.048 4.06.921 1.096 1.93 1.187 2.799-.008.869-1.192 1.736-2.38 2.185-3.728 1.223-3.428 2.127-7.017 3.237-10.534l1.854-5.788 1.942-5.103.254-.542c1.186-.13.529-1.062-.215-2.376"/><path fill="#FEC01A" d="M50.384 79.106s-.872 5.393-1.207 6.612 3.8-1.405 3.8-1.405l1.234-5.088z"/><path fill="#331C0F" d="M132.608 75.969s2.358-2.108 4.173-.881c0 0-2.721-.648-3.184 1.799-.51 2.69-1.101 2.786-1.134 2.5-.033-.285.145-3.418.145-3.418"/><path fill="#331C0F" d="M136.782 75.088s-4.178-.716-2.965 4.151-1.998.878-1.998.878.952-3.28.952-3.318.648-1.051.685-1.089c.039-.038.646-.405.844-.468.198-.064 1.074-.191 1.074-.191l.736-.164"/></g><defs><clipPath id="a"><path fill="#fff" d="M0 0h158v120H0z"/></clipPath></defs></svg>