<svg xmlns="http://www.w3.org/2000/svg" width="158" height="121" fill="none"><path fill="#fff" d="M50.999 73.786c-.11 1.135-.3 2.311-.402 4.094-.275 2.33-.562 3.384-.782 5.019-.058.417-1.347 6.99-1.735 8.267s-2.013 5.599-3.309 7.456l-3.25 5.011c-1.912 2.639-4.27 4.816-6.652 6.8a8 8 0 0 1-1.298.955c-4.321 3.41-8.084 3.935-11.259 3.467s-5.014-2.242-5.954-3.316c-1.375-1.572-2.439-3.579-2.576-3.901-.287-.779-.66-1.921-.849-2.708-.052-.496-.213-3.343-.224-3.447-.103-1.736.09-3.276.243-4.168q.079-.295.133-.61c.342-2.357 1.419-4.398 2.605-6.347 1.01-1.724 2.151-3.17 3.719-4.352 1.572-1.184 3.354-2.36 4.972-2.977s2.2-.704 3.77-.976c.288-.024 1.82-.13 2.305-.007-2.027 1.848-3.511 3.422-5.023 5.103-2.682 2.929-4.721 6.186-5.066 10.36-.222 2.551.953 5.276 1.911 6.201s2.594 1.106 3.45.776 2.549-1.225 3.46-1.947c.91-.722 2.46-2.143 3.273-3.205.812-1.061 2.979-4.718 3.648-6.81.364-1.252.606-2.695.66-4.011-.017-2.928-1.267-5.21-3.766-7.053.548-.467 3.334-2.487 8.163-5.758a306 306 0 0 1 9.26-5.779c.187-.12.925-.568.925-.568.076.696-.176 2.695-.352 4.431m-18.623 9.275c1.709 1.812 2.368 2.975 2.52 4.754.119 2.91-.364 4.884-1.364 6.712-.58 1.076-1.067 2.136-1.67 3.015-1.658 2.205-3.534 4.231-6.201 5.439-1.622.684-3.045-.485-3.535-1.92-.363-1.062-.58-1.115-.586-2.874s.498-3.692 1.309-5.395c1.571-3.003 3.688-5.559 6.128-7.957.624-.673 1.874-1.584 2.706-2.184.188-.12.499.204.693.41m39.346-29.45c-1.534 1.485-3.302 2.69-4.966 3.89l-5.072 3.897s-5.34 3.953-5.434 3.898c-.093-.055.093-.508.099-.577.006-.07 1.313-9.035 1.516-13.6l.77-4.83.54-3.29.175-1.133c.047-.512 1.178-7.5 1.388-9.24.265-1.241.638-2.395.692-3.714.112-.82-.007-2.232-.173-2.507s-.772-.604-1.251-.467-1.984 2.85-2.14 3.268a38 38 0 0 0-1.504 3.605c-.393.953-.679 1.992-.966 3.036-.208.829-.845 3.96-1.208 5.31-.055.223-.435.428-.849.94-.427.36-1.01 1.12-1.386 1.776-1.575 2.283-3.598 5.726-3.598 5.726l-.043.064-3.82 6.179c-2.658 4.029-5.313 8.068-8.288 11.934a23.3 23.3 0 0 1-4.402 4.528c-1.009.818-1.942.517-2.558-.525-.589-.842-.275-5.88-.225-8.492 0 0 .474-4.006.768-7.113l1.152-6.39c.318-1.655.404-3.242.66-5.036 0 0 .077-1.744.132-2.152.143-1.433.201-2.013.247-3.43.1-1.83.288-3.77.277-5.685-.08-1.982-.327-3.672-.94-5.855-.49-1.741-1.18-3.503-2.53-4.867-1.566-1.544-3.453-2.34-5.645-2.299-.802-.01-1.666.288-2.544.49a22 22 0 0 0-3.604 1.21l-.006-.002s-.939.308-2.558 1.315a24 24 0 0 0-2.468 1.672c-1.93 1.526-3.744 3.241-5.442 5.048-1.017 1.067-1.986 2.21-2.778 3.465l-.003.004c-7.54 9.639-2.391 22.457 4.191 24.145 2.866.678 3.712.602 3.73.283.025-.44-10.742-4.3-10.166-14.375.06-.757.143-1.517.238-2.27.182-1.157.674-3.378 1.979-5.953l.416-.689c.851-1.398 1.755-2.8 2.832-4.075 2.644-2.976 6.593-5.863 12.495-7.734.244-.068.492-.132.747-.183 3.114-.75 5.033.344 5.877 3.484.103.404.257.866.39 1.315.428 2.361.669 6.283.144 12.736-.238 1.29-.445 3.672-.575 5.572a190 190 0 0 1-.435 3.295s-3.008 15.269-.353 20.84c.398.92.883 1.734 1.172 2.152.92 1.683 2.533 3.09 4.286 2.85.874-.202 1.61-.788 2.346-1.376 1.089-1.03 2.065-2.144 3.04-3.27.274-.23.799-1.089 1.073-1.322.628-.674.692-.791 1.21-1.554 1.56-2.192 2.9-4.567 4.348-6.846l3.503-5.44 3.733-6.07.912-1.606c1.327-2.073 2.356-3.35 2.984-4.051-.032.76-1.94 15.333-2.026 16.35 0 0-.55 6.239-.53 6.84.05 1.504-.224 1.828-1.266 2.347l-4.881 2.87c-1.69.992-3.367 2.092-4.95 3.177-1.589.985-3.184 1.97-4.761 3.058l-3.051 2.255c-.372.246-.372.246-.6.382-.91-.104-2.204-.78-5.497.132-1.064.321-2.075.602-3.016 1.109-2.743 1.418-5.124 3.399-7.168 5.75-1.605 1.944-2.713 4.096-3.555 6.413-.147.404-.36 1.067-.535 1.63-.088.165-.424 1.67-.398 1.85a27 27 0 0 0-.167 2.587c-.035.104-.016 1.151.004 1.561l.001.04.001.001c.049.973.104 1.914.209 2.87.119 1.096.736 2.971 1.377 4.388.64 1.417 4.093 6.616 8.777 7.299 5.361.75 9.156-1.49 9.156-1.49 2.006-.829 3.252-1.65 4.423-2.666.664-.397 1.149-.962 1.589-1.266 1.678-1.153 2.62-2.012 3.773-3.354l2.553-3.11c1.221-1.65 2.536-3.311 3.656-4.952.845-1.41 1.694-2.812 2.342-4.202.492-.964 1.397-3.014 1.53-3.636 1.88-5.444 2.82-9.571 2.93-10.39.43-1.564.76-3.116 1.089-4.665.388-1.96.672-3.911.96-5.86.044-.515.134-1.877.21-2.563.012-1.095.096-1.16.096-1.726 1.004-.767 1.127-.756 1.805-1.377l.798-.621c2.786-1.923 5.67-4.269 8.488-6.157 2.618-2.083 4.271-3.371 4.823-3.834 1.835-1.524 1.641-1.589 3.363-3.194.187-.123-2.22.973-3.684 2.246m67.513-30.211c-1.005.983-2.099 1.881-3.222 2.716a27.3 27.3 0 0 1-6.022 3.39c1.35-1.655 2.217-3.758 2.571-5.846.459-2.701.01-5.57-1.299-7.971a18 18 0 0 0-.707-1.178 40 40 0 0 1 2.093.962c1.367.678 2.712 1.389 4.058 2.102.841.59 1.686 1.173 2.542 1.738a49 49 0 0 0 2.473 1.532c-.87.811-1.632 1.71-2.487 2.555m-11.981 5.91a8.8 8.8 0 0 1-2.686 1.55c-.406.142-.869.244-1.304.388a26 26 0 0 1-3.561.187c-.29-.025-.583-.053-.873-.101-1.338-.226-2.511-.63-3.633-1.41-1.146-.797-2.304-1.869-2.815-3.201a12.4 12.4 0 0 1-.805-4.088c-.14-5.19 3.978-10.341 9.282-10.561l.018-.002a26.6 26.6 0 0 1 4.059.244c.395.145.788.3 1.182.45 1.031 1.161 2.173 2.216 2.956 3.605 1.189 2.093 1.737 4.524 1.463 6.926s-1.444 4.472-3.283 6.012m30.62-8.197c-.014-.123-.372-.23-.801-.31-2.46-.47-4.919-1.052-7.188-2.153-2.427-1.177-4.632-2.825-6.945-4.21q-.255-.175-.496-.332a19.4 19.4 0 0 0 3.119-.466c1.108-.263 2.2-.62 3.241-1.073 1.717-.7 4.702-2.29 4.775-2.396 0 0-5.925 1.477-11.621 1.08-3.082-.202-5.896-1.587-8.87-2.365-4.66-1.22-9.358-2.315-14.191-1.806a28 28 0 0 0-11.979 4.176 26.8 26.8 0 0 0-5.919 5.07c-1.652 1.905-3.339 4.32-3.16 6.977.021.257.374.216.474.05.072-.126.157-.245.241-.364.715-.974 1.626-1.784 2.55-2.553.947-.793 1.835-1.659 2.82-2.412a28 28 0 0 1 4.353-2.738 27.6 27.6 0 0 1 4.673-1.865c-2.653 2.016-4.046 5.514-3.759 8.854.291 3.34 2.168 6.455 4.828 8.457-3.603-.711-6.786-2.566-9.932-4.388-1.514-.878-2.95-1.925-4.163-3.196-.136-.144-.366-.458-.577-.485-.52-.068-.038.783.048.945 1.689 3.203 4.562 5.428 7.707 7.057q.171.085.347.176.35.175.706.343a31.2 31.2 0 0 0 9.572 2.772c6.789.818 13.616-.804 19.494-4.288a27 27 0 0 0 4.315-3.18c1.31-1.181 2.707-2.423 3.508-4.024-.032.06 3.057.765 3.356.805a17.4 17.4 0 0 0 6.914-.508c.759-.215 2.514-.519 2.561-1.556zm-79.855 2.301-1.212 1.095c-.173.085-.43.085-.606.046-1.08-.135-1.64-.787-1.86-1.838-.344-1.308-.388-2.62-.172-3.977.088-.479.088-.96.172-1.441.088-.436.52-2.097.648-2.49.132-.35.608-1.312.608-1.312s.691-1.179 1.254-1.571c.173-.177.606-.045.952-.045-.088.919-2.337 5.352-1.957 8.024.16.895.224 1.065.27 1.241.129.566.172 1.223.691 1.66l.746-.669s.595-.728.723-.904c.26-.306.563-.657.78-1.005l2.032-3.583c.129-.307.563-2.535.563-2.535s.124-.797.345-1.18c.13-.263.303-.482.475-.698l.39-.351a.84.84 0 0 1 .434-.132c.257 0 .601.613.733.832.431.827.085 1.615-.044 2.402-.344 1.574-.733 3.103-.995 4.633-.345 1.703-.562 3.405-.863 5.11-.043.44-.184 1.754-.217 1.97-.049.323-.129.698-.129 1.047 0 .131.085.306.13.48.043 0 .086.044.13.044.215-.307.431-.57.604-.873q.52-.855.908-1.703l1.686-3.717c.478-.96.91-1.966 1.428-2.927.259-.438.647-.829.994-1.31.26.61.088 1.003-.432 1.003l.302.22-1.083 2.14-1.08 2.448c-.647 1.487-1.209 3.019-1.9 4.458-.26.567-.695 1.046-1.126 1.526-.432.485-.864.395-1.209-.13-.392-.565-.565-1.18-.693-1.879-.262-1.09-.262-2.185-.217-3.276.046-1.355.26-2.71.434-4.106 0-.133.345-1.338.296-1.806l-.422.701-1.431 2.897c-.172.348-.388.652-.605.96-.129.174-.475.521-.475.521"/><path fill="#fff" d="m87.705 17.082.075.069c.12-.242.18-.634.181-.9.005-.594.023-1.583-.672-1.62-.134-.008-.23-.094-.406.267-.176.36.822 2.184.822 2.184m1.553 5.636c-.301-.567-.681-1.075-.937-1.643 0-.045-.79-1.328-1.18-1.897-.603-.83-1.036-1.703-1.254-2.665-.13-.697-.301-1.397.045-2.053.259-.437.559-.786 1.08-.874.13-.044.345.046.432.132.779.609 1.038 1.443 1.081 2.402 0 .483-.13.962-.22 1.486 0 .132.05.308.135.393.603.742 1.208 1.444 1.773 2.184.387.529.733 1.05 1.081 1.574.086.043.128.13.256.263.26-.7.518-1.397.825-2.053l1.253-2.71c.17-.436.304-.875.518-1.309.174-.395.432-.744.649-1.138l.347-.787c.13-.22.258-.437.475-.613.086-.085.302-.085.475-.041.044 0 .173.173.173.263-.043.39-.086.785-.216 1.178a29 29 0 0 1-1.169 2.708c-.302.701-.734 1.357-1.082 2.055l-1.47 3.145c-.128.262-.085.48.088.745.561 1.047 1.168 2.098 1.686 3.188.563 1.137.994 2.359 1.469 3.582.348.832.694 1.708 1.083 2.537.175.391.337.353.692.043.838-.73 1.382-1.415 1.516-1.415.124 0-.578 1.661-.991 2.061-.207.217-.8.705-1.042.708-.244.003-.693.087-.955-.13-.907-.743-1.511-1.705-1.942-2.798-.304-.7-.74-1.312-1.083-1.968-.084-.175-.13-.348-.216-.478l-1.04-2.053a16 16 0 0 0-.604-1.267c-.301.48-.562.784-.821 1.135-.258.35-.476.743-.733 1.004-.694.701-1.386 1.484-2.338 1.791-.475.176-.992.176-1.511.22-.129 0-.305-.22-.347-.352-.09-.261 0-.391.303-.348h.345c.56.087.953-.307 1.383-.61a11.3 11.3 0 0 0 2.078-1.965c.259-.395.513-.771.734-1.138.42-.703.395-.795-.072-1.356-.08-.095-.403-.611-.403-.567zM76.307 46.062l.8-.578a20 20 0 0 0 2.711-2.046c1.185-1.045 2.358-2.436 3.066-4.008.382-.847.142-1.933-.382-2.292-.861-.789-1.873-.686-2.703-.006-1.253 1.027-2.49 2.69-2.868 4.247-.278 1.138-.624 4.683-.624 4.683m17.971-6.37c-.195 1.739-.55 1.858-1.494 3.202-.133.249-.031.043-.133.249-.798 1.606-2.159 4.173-2.924 5.342-1.199 1.828-1.88 3.259-3.481 4.81-1.922 1.86-4.17 3.389-6.936 3.506-1.32.095-2.645.19-3.893-.162-1.273-.444-2.48-1.333-3.17-2.587-.482-1.06-.887-1.765-1.156-2.791s-.84-6.56.182-9.708c.271-.826 1.183-2.661 1.232-2.748 1.32-2.374 2.556-3.096 4.249-4.195.879-.572 2.33-.987 2.43-1.004 1.714-.297 2.529-.11 3.647.488 1.206.572 1.813 1.608 1.905 2.875.096 1.36-.442 2.655-1.035 3.785-1.284 2.283-3.342 4.075-5.546 5.7-.096.03-.159.155-.255.186-1.883 1-1.883 1-1.65 3.132.081.604.063 1.24.237 1.816.609 2.013 2.967 3.281 4.997 2.446 1.302-.508 2.83-.974 3.822-2.125 1.304-1.512 2.844-2.947 3.819-4.6.988-1.677 4.243-7.545 5.153-7.618M73.663 59.894c0 .633-.347 2.025-.959 3.157-.187.345-.24.586-.358.89-.246.492-.427.985-.73 1.413-.246.31-.61.246-.85-.185-.427-.611-.367-1.288-.184-1.966.305-.98.365-2.025.547-3.07.122-.613.31-1.624.546-1.84.236-.218.853-.247 1.217-.247.12-.06.424.062.424.185 0 0 .345 1.33.346 1.663m47.575 4.926a4.84 4.84 0 0 1 1.092-2.41c.397-.604 1.386-.604 1.787 0 .397.503.695 1.31.594 2.008-.197 1.305-.693 2.708-1.092 4.013-.1.302-.497.705-.695.705-.396 0-.897-.202-1.091-.504-.297-.4-.401-1-.595-1.603 0 0-.151-1.106 0-2.21M54.596 88.85c-.067.743-.214 1.528-.425 2.554-.184.17-.346.371-.584.623-1.269 1.342-2.763 2.443-4.155 3.548-.696.498-1.59.701-2.482.904-.794.196-1.49-.505-1.49-1.407-.009-2.993.765-5.561 2.02-7.634.762-1.257 1.057-1.675 2.008-2.727 1.012-1.12 2.125-1.08 3.815.024l1.739 1.01c-.192 1.488-.248 2.102-.446 3.104m9.24-13.347c.503-1.987.518-2.202 1.152-4.21s.989-2.829 1.924-4.321c.1 0 .2.098.297.098.102.803.444.995.2 2.406-.286 1.951-1.17 4.266-1.988 5.924-.357.719-.74 1.66-1.143 2.407-.415.768-.684 1.166-.938 1.502a2.5 2.5 0 0 1-.502.507h-.199c.398-1.407.954-3.352 1.197-4.313M59.56 93.365c.398-2.007.799-4.012 1.294-6.02 0-.2.593-2.411.693-2.711l.796-2.206c.473-.964 1.132-1.83 1.71-2.695l.002-.002.014-.022q.031-.048.064-.095l.002-.02c.283-.523 1.115-2.001 1.115-2.001.46-.712.773-1.452 1.064-2.193.798-1.603 1.59-3.209 2.187-4.914.496-1.708.399-3.416-.299-5.121a3.7 3.7 0 0 0-.993-1.204c-1.092-.602-3.373 0-4.272 1.304-.892 1.205-1.686 2.506-2.48 3.914-.897 2.01-1.788 4.017-2.584 6.02a58 58 0 0 0-1.787 5.42c-.297 1.105-.595 2.308-.791 3.513-.501-.398-.7-.903-.996-1.303-.792-1.406-1.888-2.813-3.475-2.813-2.58-.098-4.869.805-6.556 2.911-1.39 1.807-2.282 3.816-2.98 6.021-.494 1.708-.494 3.412-.197 5.12.077 1.354 1.003 2.816 1.473 3.418s1.604 1.502 1.703 1.502c1.9.69 3.575.198 5.064-1.006 1.493-1.206 2.88-2.51 4.273-3.712.166 1.33-.135 4.557.455 8.22.5 2.798 1.312 4.855 1.628 5.325.674.673 1.788.906 2.382.205a16 16 0 0 0 1.788-2.612c1.786-2.91 3.477-6.022 5.17-9.03.298-.505.394-1.108.79-1.603.16-.2 1.52-2.771 1.52-2.771l1.06-1.647c0-.103-.195-.405-.295-.405-.198-.099-.494 0-.595.201-.277.373-2.585 4.32-2.978 4.922l-3.777 6.419c-.691 1.204-1.49 2.411-2.28 3.613-.2.301-.599.504-1.094.803 0-.299-.1-.4 0-.502l.894-5.417c.096-.905.99-5.518 1.288-6.826M42.607 26.08v.003c.015-.016.01-.012 0-.003m32.56-8.43c-.305.173-.738.917-.693 1.224l.13.13c.214-.482.43-.918.563-1.354"/><path fill="#fff" d="M67.64 14.678c-1.035-.174-2.033-.26-3.112-.436-.13 0-.26-.088-.39-.176 2.206-2.97 4.239-5.942 6.788-8.608l-.084.394-1.037 3.145c-.134.44-.519 1.62-.566 1.793-.215.568-.3 1.179-.517 1.747-.128.439-.301.873-.388 1.265l-.13.395c-.046.308-.215.525-.564.481m6.445 4.85-.605 1.749c-.044.218-.1.273-.27.725-.17.45-.423.979-.423.979l-.736 2.01a89 89 0 0 0-1.036 2.577c-.261.7-.564 1.398-.779 2.054a44 44 0 0 1-.693 1.574l-.455 1.3c-.086.26-.24.564-.371.783l-1.42 2.55-.52.74c-.043-.042-.043-.042-.086-.042.086-.655.129-1.31.171-1.967-.042-.045.299-2.496.478-3.977 0-.13.474-3.232.517-3.364.043-.13.132-1.091.216-1.484l.39-1.793c.215-.92.345-1.837.561-2.753.262-1.006.605-1.966.865-2.97l.217-1.007a6.5 6.5 0 0 0 .215-1.004c.092-.46.168-.936.324-1.035.162-.103.47-.186.714-.232.217-.043.347-.088.563-.174.565-.262 1.21-.875 1.167-1.705-.69.393-1.298.92-2.163 1.135.175-.699.823-2.927.823-3.1.042-.132.302-1.137.346-1.267.219-.876.432-1.706.603-2.536.131-.524.305-3.187-.042-3.932-.129-.351-.3-.482-.605-.351-.26.086-.518.308-.692.481-.647.92-1.167 1.834-1.816 2.666l-2.898 3.758c-.301.394-.647.874-.994 1.266l-.433.745-.95 1.135-.606.787c-.043.043-.215.043-.3 0-.391-.13-1.127-.35-1.127-.35s-2.851-.875-4.322-1.266c-.908-.174-3.588-.7-4.023-.7-.862-.044-1.596-.073-3.414.217-.503.108-.821.309-1.212.395-.906.263-1.727.698-2.551 1.134-.475.22-1.686 1.095-1.772 1.226-1.212.96-2.033 2.141-2.68 3.45-.218.48-.353.878-.534 1.492a13 13 0 0 0-.437 2.2 9 9 0 0 0 .062 2.165c0 .173.336 1.232.336 1.232.3.866 1.48 2.348 1.999 2.655.518.305.948.133.948.088-.172-.043-.256-.1-.603-.325 0 0-.603-.418-.908-.811-.451-.594-.561-1.007-.65-1.138a5.9 5.9 0 0 1-.517-1.7c-.312-2.115-.108-3.352.305-4.635.332-1.032 1.166-2.575 2.204-3.581.128-.088.778-.744.864-.787 1.359-1.098 2.852-1.66 4.37-2.186 0 0 1.494-.549 3.584-.48.952.044 3.243.612 3.546.7.518.175 1.042.306 1.515.481.691.173 1.383.436 2.075.697.822.264 1.599.568 2.465.831-.476.656-.866 1.267-1.297 1.836l-1.557 1.879c-.39.48-.779 1.05-1.252 1.483-1.254 1.226-2.636 2.319-4.24 3.192-1.212.61-2.42 1.178-3.804 1.313-.996.04-1.817-.135-2.335-1.051-.303-.655-.434-1.354-.262-2.094l.13-.627c.39-1.066.73-1.782.995-2.26.392-.568.736-1.135 1.255-1.617.606-.525 1.25-.888 2.035-1.092.55-.141 1.337-.088 1.512-.043-.26-.219-.4-.341-.813-.358-.474.045-.805.06-1.388.217-.235.061-.653.317-.958.489-.62.36-1.115.828-1.549 1.364a10 10 0 0 0-.458.622 31 31 0 0 0-.443.716c-.002.004-.009.005-.01.008-.132.22-.274.46-.404.707l-.02.04-.002.003a6 6 0 0 0-.312.691c-.389 1.093-.346 2.14.044 3.278.43 1.047 1.211 1.443 2.16 1.66.779.22 1.602 0 2.336-.217a15 15 0 0 0 1.685-.744 65 65 0 0 0 2.985-1.836c.519-.349.954-.785 1.383-1.264.52-.437.997-.877 1.427-1.401.388-.35.65-.83.996-1.223l1.714-2.258c.13-.13.305-.424.39-.598.362-.554.706-.638 1.224-.507.778.173 2.98.392 3.374.392.214 0 .302.044.26.262-.132.611-.26 1.18-.435 1.745-.171.702-.347 1.401-.474 2.098a39 39 0 0 0-.521 2.885l-.303 1.662c-.172 1.047-.302 2.143-.43 3.19a9 9 0 0 0-.087 1.048c-.044.172-.044.395-.044.567-.043.306-.174 2.579-.214 3.322 0 .131.083 2.622.04 3.189-.085.787.218 2.492.218 2.621.087.57.432.874.95.7.26-.087.518-.305.605-.434l.954-1.62c.172-.303 1.038-2.318 1.038-2.318.256-.61.517-1.183.736-1.753.127-.306.43-1.128.43-1.17 0-.132 1.781-4.093 2.422-6.119a336 336 0 0 0 2.118-6.03l-.128-.132c-.174.088-.393.131-.476.261"/><path fill="#fff" fill-rule="evenodd" d="M117.663 20.867a2.11 2.11 0 0 0 2.098-2.12 2.12 2.12 0 0 0-.535-1.413 5.4 5.4 0 0 1 1.478-.27c1.141-.183 2.344.058 3.277.737.678.383 1.249.918 1.606 1.621 1.078 2.147-.767 4.403-2.545 5.412a4.06 4.06 0 0 1-1.862.527 4.8 4.8 0 0 1-1.335.06c-2.075-.21-3.987-1.874-3.908-4.084a3.9 3.9 0 0 1 .205-1.13c.383.407.923.66 1.521.66" clip-rule="evenodd"/><path fill="#fff" d="M131.82 83.699c-.187.127-.354.317-.502.492-.138.17-3.103 3.847-5.935 7.234q-.584.715-1.189 1.412a69 69 0 0 1-4.026 4.256.52.52 0 0 1-.516-.244 4 4 0 0 1-.198-.712 4 4 0 0 1 .02-.656q.06-.412.143-.816.046-.202.109-.507c.222-.975.488-1.92.623-2.864.4-1.777.73-3.553.999-5.38l.01-.064c.062-.426.124-.851.18-1.283.5-2.807 1.49-5.421 1.594-8.328.02-.549-.187-.99-.484-1.392-.104-.2-.29-.318-.579-.51-.651-.433-1.125-.407-1.619.094-1.094 1.203-1.391 2.814-1.988 4.318 0 0-.498 2.11-.595 2.41-.496 2.005-.595 4.112-1.095 6.117-.198 1.01-.394 3.215-.394 3.215s0 1.136.009 2.266c0 0-.192 1.747.168 3.443.125.77.413 1.686 1.133 2.36q.086.084.179.161l.011.006c.335.28.736.487 1.228.574q.162.03.336.041h.003c.023.002.048-.002.072-.002 1.485.045 3.029-1.557 4.611-3.763 2.398-3.344 4.906-7.811 7.283-10.563l.658-.846z"/><path fill="#fff" d="M96.759 77.984c-.248.306-1.1-.032-1.54-.115-1.374-.261-2.384-1.375-2.384-2.945s1.14-2.84 2.547-2.84c.898 0 1.898.322 2.352 1.103.259.444.29.652.29 1.221 0 .436-.308 1.424-.463 1.87-.24.695-.36 1.16-.803 1.706m20.43 7.781c0 .082-.653.811-.75.981l-1.483 1.855-2.472 3.283s-.693.93-.989 1.35l-2.767 3.538c-.419.5-.591.674-.888 1.094-1.386 1.687-2.669 3.458-4.056 5.056-1.183 1.35-2.29 2.717-3.757 3.791-.395.289-.978.462-1.778.676-1.006-2.398 1.105-7.394 1.835-9.284.745-1.926 2.123-3.693 3.265-5.513s2.217-2.729 3.307-4.16c.889-1.348 3.952-6.574-4.153-8.929-1.288-.425-2.572-.76-3.859-.93-.297-.083-.788-.083-.887-.253-.1-.252.099-.589.196-.842.381-.973.957-2.048 1.08-2.985.14-1.1.272-1.923.141-2.431-.198-.95-.666-1.56-1.149-1.945 0 0-.116-.111-.188-.141-1.471-.962-2.963-.957-4.487-.486-.602.26-2.116.817-3.009 3.032-.862 2.14-.084 6.357 1.888 8.316 0 0 1.703 1.372 2.925 1.806 0 0-10.005 32.894-10.8 34.9-.196.401-.594.705-.891 1.204-.699-.706-1.261-1.69-1.292-3.084-.083-2.009-.199-3.34-.199-3.34.051-1.645.04-6.117.04-6.117 0-.095.082-2.348.231-6.943s1.239-11.247 1.397-12.387 1.114-8.07 1.413-9.676l1.285-5.625c.204-1.202.404-2.508.701-3.713.396-2.307.99-4.614 1.39-6.827.198-.601.297-1.302.198-1.904-.198-.703-.885-1.857-1.192-2.009-.308-.15-1.29-.097-1.69.204-.692.802-1.29 1.703-1.885 2.607-.496.606-.596 1.507-1.096 2.005a12 12 0 0 1-2.38 2.113 56 56 0 0 1-2.567 1.56l-3.932 2.19q-.386.083-.556.309l-.008.004-.003.007a.75.75 0 0 0-.123.492.5.5 0 0 0 .026.176c.005.027.005.05.012.079l.026-.007c.162.221.68.196 2.104-.747q.288-.19.534-.364l3.793-2.495 2.878-2.007-.298 1.505c-.594 2.31-.942 3.254-1.537 5.46-.298 1.303-.745 3.873-1.043 5.173-.399 1.51-1.291 11.746-1.392 12.449 0 .113-.006.27-.015.454q-.192 1.997-.323 4.04l-.16 1.728.002 1.448c-.106 2.971-.091 5.963.092 8.895.027 1.137.06 2.153.104 2.904.104.807.4 3.215.501 3.713l.892 4.317c.335 1.439.745 2.871 1.515 4.129l.007.017.003-.001c.142.23.291.456.46.673.596.803 1.686 1.104 2.582.6.796-.499 1.488-1.204 1.786-2.106.701-1.806 10.31-35.326 10.393-35.738 2.392.463 7.434 1.33 5.277 3.162-.469.425-1.919 2.066-2.77 3.37-.852 1.305-2.27 4.383-2.47 5.141l-.664 1.814c-.1.34-.62 1.896-.72 2.482a32 32 0 0 0-.59 4.297c-.1 2.021.194 3.961 1.877 5.648.492.42.985.505 1.58.505 1.482-.085 2.666-.675 3.657-1.517.395-.422 1.383-1.264 1.487-1.352.59-.586 1.185-1.179 1.675-1.766 1.09-1.266 1.978-2.53 2.969-3.794.888-1.176 1.879-2.354 2.863-3.537l3.66-4.971a48 48 0 0 1 2.471-3.54c.893-1.011 1.583-2.105 2.473-3.113.888-1.013 1.78-2.446 2.767-3.459.109-.113-2.923 2.084-4.49 3.486m18.304-75.707c3.903-.303 10.97-5.797 10.97-5.797l-6.908 2.596c-6.909 2.595-10.351 2.12-10.351 2.12m-2.672.294c4.26-.844 11.334-8.073 11.334-8.073l-7.275 3.868c-7.277 3.869-11.131 3.757-11.131 3.757"/><path fill="#fff" d="M119.122 9.198C122.63 7.448 127.258 0 127.258 0l-5.492 4.88c-5.493 4.88-8.846 5.782-8.846 5.782m-1.424.651C114.69 9.028 118.106.94 118.106.94l-4.667 5.689c-4.669 5.69-7.842 7.11-7.842 7.11"/><path fill="#fff" d="M104.392 16.411c2.792-2.77 4.885-11.307 4.885-11.307l-3.708 6.37c-3.709 6.37-6.616 8.286-6.616 8.286m33.81 63.353s.348-.332.754-.845.727-.213.753-.205c.025.009.245.205.245.205l-1.227 1.078-.525-.19"/><path fill="#fff" d="M133.21 103.407c-1.064-.213-1.94-1.43-2.169-2.478-.166-1.387.211-2.774.554-4.105.503-1.324 1.184-2.57 1.808-3.434l.633-.765c1.925-1.936 3.571-3.167 3.575-3.17.128-.008 5.248 2.718 3.664 8.507-.112.433-.228.866-.367 1.293a9.8 9.8 0 0 1-1.191 2.194c-.895.953-2.573 2.36-6.507 1.958m12.956-20.34-6.546 3.328c-.21.117-.813.48-.965.483-.237.005-.186.105-.927-.44-.741-.546-2.026-1-3.573-5.165s.015-5.745.015-5.745-.736.326-1.112.583c-.736.503-1.21.854-1.659 1.523-.717 1.044-1.072 2.16-.984 3.202.09 1.339.448 2.604 1.433 3.718.446.597 1.382 1.546 1.61 1.714s.672.543.853.7.897.649 1.355.92c.414.244.9.39.928.58.028.201-.851.743-.916.8-.57.387-9.623 6.67-6.332 12.915.745 2.233 4.446 2.823 5.409 2.807.552-.009 1.296-.099 2.043-.243l-.004.002c-.039.012-.011.006.065-.015a12 12 0 0 0 1.701-.453c.338-.123 1.219-.647 1.273-.675 3.506-1.963 4.447-4.304 4.696-9.04.116-2.92-3.09-5.828-4.724-7.114a.2.2 0 0 1-.017-.065c-.001-.165.253-.278.624-.425l2.584-1.393c.452-.224 2.427-1.44 3.024-1.767.48-.263 1.134-.812 1.134-1.18-.452.147-.721.298-.988.445M8.924 56.508v1.522s3.358 1.094 5.21-.573c1.798-1.617 2.538-4.869 2.436-6.65 0 0-2.149 8.573-7.646 5.611"/><path fill="#fff" d="m123.094 44.316-.145-.185-1.547-2.25c-.226-.454-1.523-1.68-1.348-2.374.157-.626.867-1.093 1.305-.95 1.526.493 1.704 1.988 1.903 3.308.16 1.065.014 1.716-.168 2.45m25.792 33.27c-.494.965-1.099.932-1.593.076-1.096-1.795-2.102-3.703-3.098-5.508-1.395-2.675-2.686-5.355-4.251-7.806-1.458-2.36-3.101-4.602-4.646-6.851-.46-.556-.613-1.045-.382-1.674l2.568-7.557c.619-1.688 1.439-3.295 1.959-4.964a70 70 0 0 0 1.99-6.483c.2-.932.199-1.84.197-2.747-.023-.202-.364-.568-.462-.556-.401-.057-.897-.002-1.075.218-.445.455-.688.985-.929 1.52 0 0-1.496 3.701-1.79 4.643-.39 1.05-.577 2.083-.859 3.127l-2.19 6.503c-.522 1.575-1.006 3.49-1.426 5.152-.328-.266-2.531-2.857-3.553-3.957-1.461-1.55-2.928-3.145-4.493-4.683-.218-.176-.492-.336-.524-.634.064-1.22.372-2.579.251-3.678-.335-2.183-1.134-4.015-3.061-5.212-.225-.175-.739-.322-1.023-.189-1.165.33-1.767 1.208-2.252 2.27-.624 1.588-.055 3.14.415 4.701.736 2.14 1.94 4.02 3.527 5.764 1.031 1.2 4.889 6.324 5.721 7.545 0 0 1.318 1.747 1.51 1.95 1.334 1.397 1.702 1.833.983 3.524-.293.942-.893 1.819-1.392 2.782-1.196 1.849-2.515 3.611-4.15 5.11-.778.689-1.161 1.294-2.55 1.703a7 7 0 0 1-.541.046l-.537-.004c-1.149-.06-2.424-.262-3.248-1.919 0 0 1.008 2.87 2.593 3.027 1.586.157 2.949-.035 4.06-.408 2.097-.938 3.483-2.912 4.884-4.684.529-.665.925-1.617 1.431-2.481.505-.867 1.021-1.63 1.592-2.805.713 1.033 1.207 1.887 1.698 2.74l2.881 4.425c.232.275.371.663.616 1.04.949 1.407 2.091 2.696 2.954 4.212 1.262 2.39 3.941 5.352 5.141 5.893 1.323.596 3.279-.041 4.021-.93 1.405-1.686 2.925-6.825 4.189-11.875 1.592-6.355 2.774-12.649 2.774-12.649s-3.518 12.581-7.93 22.284"/><path fill="#fff" d="M122.658 46.331c-.674 1.184-1.361 2.266-1.844 3.333-.945 2.328-1.832 4.776-2.676 7.088l-2.925 8.913a37 37 0 0 1-1.647 4.12c-.32.742-1.052 2.102-1.166 2.148s-.198.01-.308-.068c-.111-.078-.35-.702-.414-1.063-.064-.362.024-1.619.034-2.427-.054-.495.029-1.44-.024-1.943.088-1.016.037-1.59.028-2.603.265-3.968.334-7.912.701-11.89.207-3.559.714-7.147 1.111-10.829.099-1.829.697-3.712-.5-5.496-.351-.468-1.293-1.776-1.883-1.71a1.97 1.97 0 0 0-.957.411l-.8.895c-.34.544-.68 1.087-.911 1.719-.408.851-.197 1.838-.495 2.785-.276 1.135-.134 2.438-.398 3.678-.121.72-.032 1.518-.252 2.247 0 0-2.207 6.588-6.942 13.298l-1.295 1.86c-1.295-.867-1.558-2.352-1.996-3.614-.14-.389-.137-2.928-.028-4.845.034-.602 1.758-16.217 1.567-16.733.04.108-1.809-.103-2.159.343-.044.038-.082.075-.124.112-.417.292-.968.82-1.537 1.763l-.046.078c-.628 1.061-1.272 2.634-1.78 4.954l-.043.148c-.015.07-.022.138-.035.207a40 40 0 0 0-.602 4.097 21 21 0 0 0-.22 1.548c-.044.662-.058 3.284-.067 3.989 0 0 0 .121.005.332a22.4 22.4 0 0 0 .358 4.264c.37 2.499 1.117 5.3 2.631 6.402l.005.003a4.1 4.1 0 0 0 1.658.897c.368.126.71.187 1.027.2 2.926 0 6.105-6.793 7.88-11.262 0 0 1.197-3.38 1.404-3.824.221-.476.525-1.672.605-1.89-.043 1.515-.284 5.767-.284 5.767s-.302 6.382-.062 9.484c.177 2.506.45 5 1.313 7.43.47 1.56 1.014 2.915 2.046 4.11.921 1.11 1.929 1.2 2.797-.009.868-1.206 1.735-2.41 2.183-3.774 1.222-3.47 2.125-7.104 3.235-10.664l1.852-5.86 1.94-5.165.254-.55c1.185-.13.53-1.074-.214-2.404M50.352 79.704s-.888 5.454-1.227 6.688 3.805-1.433 3.805-1.433l1.249-5.147zm82.152-3.184s2.355-2.132 4.169-.89c0 0-2.719-.656-3.181 1.82-.508 2.724-1.098 2.822-1.132 2.532-.033-.289.144-3.461.144-3.461"/><path fill="#fff" d="M136.674 75.629s-4.174-.725-2.962 4.203c1.213 4.927-1.997.889-1.997.889s.952-3.32.952-3.36c0-.038.647-1.064.685-1.102s.645-.41.843-.474 1.072-.194 1.072-.194l.736-.165"/></svg>