<svg xmlns="http://www.w3.org/2000/svg" width="66" height="88" fill="none"><g clip-path="url(#a)"><path fill="#132136" d="M29.872.945a5.67 5.67 0 0 1 6.256 0l3.06 2.011a5.74 5.74 0 0 0 3.454.928l3.661-.223a5.68 5.68 0 0 1 5.414 3.128l1.65 3.283a5.7 5.7 0 0 0 2.527 2.526l3.317 1.668a5.68 5.68 0 0 1 3.128 5.414l-.223 3.66a5.7 5.7 0 0 0 .928 3.455l2.028 3.06a5.67 5.67 0 0 1 0 6.256l-2.028 3.077a5.74 5.74 0 0 0-.928 3.454l.223 3.661a5.68 5.68 0 0 1-3.128 5.414l-3.283 1.65a5.7 5.7 0 0 0-2.526 2.527l-1.668 3.317a5.68 5.68 0 0 1-5.414 3.128l-3.66-.223a5.7 5.7 0 0 0-3.455.928l-3.06 2.028a5.67 5.67 0 0 1-6.256 0l-3.076-2.028a5.74 5.74 0 0 0-3.455-.928l-3.661.223a5.68 5.68 0 0 1-5.414-3.128l-1.65-3.283a5.7 5.7 0 0 0-2.527-2.526L6.79 51.734a5.68 5.68 0 0 1-3.128-5.414l.223-3.66a5.7 5.7 0 0 0-.928-3.455l-2.01-3.077a5.67 5.67 0 0 1 0-6.256l2.01-3.06a5.74 5.74 0 0 0 .928-3.454l-.223-3.661a5.68 5.68 0 0 1 3.128-5.414l3.283-1.65a5.8 5.8 0 0 0 2.544-2.561l1.65-3.283a5.68 5.68 0 0 1 5.414-3.128l3.66.223a5.7 5.7 0 0 0 3.455-.928zM46.75 33a13.75 13.75 0 1 0-27.5 0 13.75 13.75 0 0 0 27.5 0M.223 75.934l7.408-17.617a.13.13 0 0 1 .069.069l1.65 3.283a11.21 11.21 0 0 0 10.656 6.153l3.661-.224c.034 0 .086 0 .12.035l3.06 2.028a11.7 11.7 0 0 0 2.767 1.323l-6.463 15.349A2.72 2.72 0 0 1 20.867 88a2.73 2.73 0 0 1-2.544-1.237l-5.534-8.474-9.643 1.427a2.81 2.81 0 0 1-2.578-1.032c-.619-.773-.739-1.839-.36-2.75zm42.625 10.382-6.462-15.332c.962-.309 1.89-.739 2.767-1.323l3.06-2.028c.034-.017.068-.035.12-.035l3.66.224a11.21 11.21 0 0 0 10.657-6.153l1.65-3.283a.13.13 0 0 1 .069-.069l7.425 17.617c.378.911.24 1.96-.361 2.75a2.72 2.72 0 0 1-2.578 1.032l-9.642-1.427-5.535 8.456a2.73 2.73 0 0 1-2.544 1.238 2.75 2.75 0 0 1-2.286-1.667"/></g><defs><clipPath id="a"><path fill="#fff" d="M0 0h66v88H0z"/></clipPath></defs></svg>