<svg xmlns="http://www.w3.org/2000/svg" width="60" height="60" fill="none"><path fill="#132136" d="M9.508 14a8.125 8.125 0 0 1 8.08-9h24.825a8.125 8.125 0 0 1 8.077 9L46.6 49.978A5.625 5.625 0 0 1 41.007 55H18.99a5.626 5.626 0 0 1-5.592-5.02zm3.75-1.508h33.485a4.375 4.375 0 0 0-4.33-3.742H17.588a4.376 4.376 0 0 0-4.33 3.742m16.222 13.53a.625.625 0 0 1 1.037 0l1.676 2.5a1.874 1.874 0 1 0 3.114-2.084l-1.672-2.5a4.375 4.375 0 0 0-7.275 0l-1.67 2.5a1.875 1.875 0 1 0 3.117 2.085zm-4.75 8.048a1.877 1.877 0 0 0-1.326-2.836 1.87 1.87 0 0 0-1.889.906l-.91 1.517c-2 3.333.4 7.576 4.287 7.576h1.98a1.875 1.875 0 1 0 0-3.75h-1.98a1.25 1.25 0 0 1-1.072-1.895zm11.185-2.575a1.876 1.876 0 0 0-.645 2.575l.91 1.517a1.25 1.25 0 0 1-1.072 1.893h-1.985a1.875 1.875 0 1 0 0 3.75h1.985c3.885 0 6.287-4.237 4.29-7.57l-.91-1.517a1.875 1.875 0 0 0-2.573-.646"/></svg>