<svg xmlns="http://www.w3.org/2000/svg" width="88" height="88" fill="none"><path fill="#132136" fill-rule="evenodd" d="M14.137 25.52c.066 3.34-1.751 7.854-4.114 10.212a11.695 11.695 0 0 0 0 16.544c2.332 2.324 4.048 6.354 4.114 9.645a11.65 11.65 0 0 0 3.423 8.026 11.65 11.65 0 0 0 7.692 3.41c3.48.176 8.038 2.2 10.502 4.664a11.695 11.695 0 0 0 16.54 0c2.464-2.464 7.022-4.488 10.503-4.664a11.65 11.65 0 0 0 7.691-3.41 11.66 11.66 0 0 0 3.419-8.035c.066-3.282 1.76-7.286 4.087-9.61a11.717 11.717 0 0 0 .027-16.57c-2.359-2.354-4.18-6.872-4.11-10.208a11.66 11.66 0 0 0-3.423-8.5 11.67 11.67 0 0 0-8.866-3.41c-3.142.158-7.106-1.364-9.328-3.59a11.695 11.695 0 0 0-16.544 0c-2.218 2.221-6.186 3.748-9.328 3.59a11.67 11.67 0 0 0-8.862 3.41 11.66 11.66 0 0 0-3.423 8.496m43.243 3.634a4.4 4.4 0 0 1 1.712 5.984L46.912 57.06a4.5 4.5 0 0 1-1.31 1.51 4.404 4.404 0 0 1-5.412-.199l-12.14-9.71a4.4 4.4 0 1 1 5.5-6.873l8.153 6.525 9.693-17.45a4.4 4.4 0 0 1 5.984-1.708" clip-rule="evenodd"/></svg>