<svg xmlns="http://www.w3.org/2000/svg" width="67" height="67" fill="none"><path fill="#fff" d="M8.554 20.965A27.92 27.92 0 0 1 33.5 5.583c7.523 0 13.844 2.767 18.676 7.272l-8.004 8.007c-2.894-2.767-6.574-4.176-10.672-4.176-7.272 0-13.428 4.913-15.62 11.51a16.8 16.8 0 0 0-.876 5.304c0 1.842.318 3.629.877 5.304 2.194 6.6 8.347 11.51 15.619 11.51 3.755 0 6.951-.991 9.453-2.666a12.84 12.84 0 0 0 5.572-8.425H33.5V28.424h26.292c.33 1.826.508 3.73.508 5.71 0 8.503-3.043 15.66-8.325 20.518-4.617 4.266-10.937 6.764-18.475 6.764A27.905 27.905 0 0 1 5.583 33.5c0-4.506 1.078-8.766 2.97-12.535"/></svg>