<svg width="64" height="64" viewBox="0 0 64 64" fill="none" xmlns="http://www.w3.org/2000/svg">
<path d="M60 25.5C60 43 34.0525 57.165 32.9475 57.75C32.6563 57.9067 32.3307 57.9887 32 57.9887C31.6693 57.9887 31.3437 57.9067 31.0525 57.75C29.9475 57.165 4 43 4 25.5C4.00463 21.3906 5.63915 17.4508 8.54496 14.545C11.4508 11.6392 15.3906 10.0046 19.5 10C24.6625 10 29.1825 12.22 32 15.9725C34.8175 12.22 39.3375 10 44.5 10C48.6094 10.0046 52.5492 11.6392 55.455 14.545C58.3609 17.4508 59.9954 21.3906 60 25.5Z" fill="#F9AD19"/>
</svg>
