<svg width="83" height="83" viewBox="0 0 83 83" fill="none" xmlns="http://www.w3.org/2000/svg">
<path d="M41.5 7.78125C34.8311 7.78125 28.3119 9.75882 22.7669 13.4639C17.2219 17.1689 12.9 22.4351 10.348 28.5964C7.79586 34.7577 7.12812 41.5374 8.42916 48.0782C9.73021 54.619 12.9416 60.6271 17.6573 65.3428C22.3729 70.0584 28.381 73.2698 34.9218 74.5709C41.4626 75.8719 48.2423 75.2042 54.4036 72.6521C60.5649 70.1 65.8311 65.7782 69.5361 60.2331C73.2412 54.6881 75.2188 48.1689 75.2188 41.5C75.2093 32.5601 71.6538 23.9891 65.3323 17.6677C59.0109 11.3462 50.4399 7.79069 41.5 7.78125ZM40.2031 23.3438C40.9726 23.3438 41.7248 23.5719 42.3647 23.9994C43.0045 24.4269 43.5031 25.0346 43.7976 25.7455C44.0921 26.4564 44.1691 27.2387 44.019 27.9934C43.8689 28.7481 43.4983 29.4413 42.9542 29.9855C42.4101 30.5296 41.7169 30.9001 40.9622 31.0502C40.2075 31.2004 39.4252 31.1233 38.7143 30.8288C38.0033 30.5344 37.3957 30.0357 36.9682 29.3959C36.5407 28.7561 36.3125 28.0039 36.3125 27.2344C36.3125 26.2025 36.7224 25.2129 37.4521 24.4833C38.1817 23.7537 39.1713 23.3438 40.2031 23.3438ZM44.0938 59.6562C42.718 59.6562 41.3985 59.1097 40.4256 58.1369C39.4528 57.164 38.9063 55.8446 38.9063 54.4688V41.5C38.2184 41.5 37.5586 41.2267 37.0722 40.7403C36.5858 40.2539 36.3125 39.5942 36.3125 38.9062C36.3125 38.2183 36.5858 37.5586 37.0722 37.0722C37.5586 36.5858 38.2184 36.3125 38.9063 36.3125C40.2821 36.3125 41.6015 36.859 42.5744 37.8319C43.5472 38.8047 44.0938 40.1242 44.0938 41.5V54.4688C44.7817 54.4688 45.4414 54.742 45.9278 55.2284C46.4142 55.7149 46.6875 56.3746 46.6875 57.0625C46.6875 57.7504 46.4142 58.4101 45.9278 58.8966C45.4414 59.383 44.7817 59.6562 44.0938 59.6562Z" fill="white"/>
</svg>
