<svg xmlns="http://www.w3.org/2000/svg" width="67" height="67" fill="none"><path fill="#fff" d="M21.775 5.583h23.45c8.933 0 16.192 7.258 16.192 16.192v23.45a16.19 16.19 0 0 1-16.192 16.191h-23.45c-8.933 0-16.192-7.258-16.192-16.191v-23.45A16.19 16.19 0 0 1 21.775 5.583m-.558 5.583a10.05 10.05 0 0 0-10.05 10.05v24.567c0 5.555 4.494 10.05 10.05 10.05h24.566a10.05 10.05 0 0 0 10.05-10.05V21.216c0-5.555-4.494-10.05-10.05-10.05zm26.94 4.188a3.49 3.49 0 1 1 0 6.98 3.49 3.49 0 0 1 0-6.98M33.5 19.54a13.958 13.958 0 1 1 0 27.917 13.958 13.958 0 0 1 0-27.917m0 5.584a8.375 8.375 0 1 0 0 16.749 8.375 8.375 0 0 0 0-16.75"/></svg>