<svg xmlns="http://www.w3.org/2000/svg" width="64" height="64" fill="none"><path fill="#132136" fill-rule="evenodd" d="M57.402 8.398a2.67 2.67 0 0 1 1.265 2.269v34.666c0 1.01-.571 1.934-1.474 2.386l-16 8a2.67 2.67 0 0 1-2.386 0L24 48.314 9.193 55.719a2.667 2.667 0 0 1-3.86-2.386V18.667c0-1.01.571-1.934 1.474-2.386l16-8a2.67 2.67 0 0 1 2.386 0L40 15.686l14.807-7.403a2.67 2.67 0 0 1 2.595.116M10.667 20.315v28.704l12.14-6.07a2.67 2.67 0 0 1 2.386 0L40 50.351l13.333-6.667V14.981l-12.14 6.07a2.67 2.67 0 0 1-2.386 0L24 13.649zm22.114 7.133a2.667 2.667 0 0 1 3.771 0L40 30.895l3.448-3.447a2.667 2.667 0 1 1 3.77 3.771l-3.447 3.448 3.448 3.447a2.667 2.667 0 1 1-3.771 3.772L40 38.438l-3.448 3.448a2.667 2.667 0 0 1-3.771-3.772l3.448-3.447-3.448-3.448a2.667 2.667 0 0 1 0-3.771M24 29.333A2.667 2.667 0 0 1 26.667 32v.027a2.667 2.667 0 0 1-5.334 0V32A2.667 2.667 0 0 1 24 29.333M16 32a2.667 2.667 0 0 1 2.667 2.667v.026a2.667 2.667 0 1 1-5.334 0v-.026A2.667 2.667 0 0 1 16 32" clip-rule="evenodd"/></svg>