<svg xmlns="http://www.w3.org/2000/svg" width="79" height="79" fill="none"><path fill="#fff" d="M39.5 1.58c-14.82 0-26.86 12.04-26.86 26.86a26.8 26.8 0 0 0 5.654 16.498l.003.006c2.056 2.772 6.257 7.9 10.118 13.56 3.87 5.671 7.308 11.927 7.842 16.16l.003.022a3.19 3.19 0 0 0 3.144 2.734c1.57 0 2.96-1.18 3.151-2.765.522-4.117 3.81-10.123 7.576-15.636 3.769-5.517 7.94-10.605 10.147-13.548-.016.022.06-.083.098-.13a26.8 26.8 0 0 0 5.984-16.9c0-14.821-12.04-26.86-26.86-26.86m0 3.16c.962 0 1.876.173 2.808.284L31.375 18.383l-8.474-6.85C27.174 7.336 33.022 4.74 39.5 4.74m6.335.96a23.55 23.55 0 0 1 14.683 11.986L52.057 28.03C51.827 21.263 46.32 15.8 39.5 15.8c-.82 0-1.535.32-2.311.47zm-24.977 8.242 8.517 6.885-12.319 15.056c-.776-2.344-1.256-4.83-1.256-7.443 0-5.495 1.933-10.483 5.058-14.498M39.5 18.96a9.446 9.446 0 0 1 9.48 9.48 9.446 9.446 0 0 1-9.48 9.48 9.446 9.446 0 0 1-9.48-9.48 9.446 9.446 0 0 1 9.48-9.48m22.395 2.03c.78 2.355 1.305 4.83 1.305 7.45a23.6 23.6 0 0 1-5.29 14.93q-.045.059-.086.12c.104-.155.05-.078-.074.087-2.106 2.808-6.36 7.992-10.23 13.658s-7.437 11.75-8.103 17.034v.01c0-.006.029-.019-.013-.019-.01 0-.013.004-.015-.012-.646-5.067-3.998-10.887-7.666-16.377zm-34.96 7.814c.204 6.79 5.728 12.276 12.565 12.276.798 0 1.493-.314 2.25-.457L29.86 55.158c-3.555-5.018-7.336-9.821-9.045-12.128L20.79 43c-.933-1.199-1.496-2.646-2.188-4.012z"/></svg>