<svg xmlns="http://www.w3.org/2000/svg" width="20" height="29" fill="none"><g clip-path="url(#a)"><path fill="#34A853" d="M5.514 21.482a29 29 0 0 1 2.26 3.37c.575 1.105.815 1.854 1.236 3.185.259.736.492.955.994.955.546 0 .794-.373.986-.95.398-1.258.71-2.217 1.203-3.124.967-1.75 2.168-3.306 3.348-4.8.32-.423 2.386-2.888 3.316-4.833 0 0 1.143-2.136 1.143-5.12 0-2.79-1.128-4.726-1.128-4.726l-3.245.88-1.971 5.25-.488.724-.097.131-.13.165-.228.262-.325.329-1.755 1.446-4.389 2.563z"/><path fill="#FBBC04" d="M.985 14.926c1.071 2.474 3.137 4.65 4.534 6.558l7.422-8.892s-1.046 1.383-2.942 1.383c-2.113 0-3.82-1.706-3.82-3.858 0-1.476.878-2.49.878-2.49L2.019 8.994z"/><path fill="#4285F4" d="M13.024.457c2.465.804 4.575 2.492 5.85 4.98l-5.93 7.15s.877-1.032.877-2.499c0-2.201-1.833-3.846-3.813-3.846-1.873 0-2.948 1.38-2.948 1.38V3.12z"/><path fill="#1A73E8" d="M2.345 3.616C3.817 1.835 6.408 0 9.979 0c1.733 0 3.039.46 3.039.46L7.054 7.627H2.829z"/><path fill="#EA4335" d="M.985 14.926S0 12.974 0 10.147c0-2.672 1.027-5.008 2.345-6.53l4.712 4.01z"/></g><defs><clipPath id="a"><path fill="#fff" d="M0 0h20v29H0z"/></clipPath></defs></svg>