<svg xmlns="http://www.w3.org/2000/svg" width="74" height="74" fill="none"><path fill="#fff" d="M19.24 4.44c-8.157 0-14.8 6.643-14.8 14.8v35.52c0 8.157 6.643 14.8 14.8 14.8h35.52c8.157 0 14.8-6.643 14.8-14.8V19.24c0-8.157-6.643-14.8-14.8-14.8zm1.48 2.96h8.88v26.033a11.8 11.8 0 0 0-4.44-.873c-1.57 0-3.067.314-4.44.873zm11.84 0h7.46c.016.286.012.575.035.858l2.952-.24c-.017-.204-.014-.413-.026-.618h7.339q-.001.408.02.812l2.957-.15q-.018-.33-.017-.662h1.48c6.557 0 11.84 5.283 11.84 11.84v1.445c-.222 0-.442.028-.662.018l-.15 2.957q.404.02.812.02v7.34c-.205-.013-.414-.01-.619-.027l-.24 2.952c.284.023.573.02.859.034v19.263h-.038a1.48 1.48 0 0 0-.057 2.958 11.81 11.81 0 0 1-8.21 9.865 1.48 1.48 0 1 0-2.633.489c-.299.022-.598.046-.902.046h-22.2V53.624C35.262 51.45 37 48.124 37 44.4s-1.738-7.05-4.44-9.224v-2.74l.055.002a1.48 1.48 0 1 0-.055-2.957zm-14.8.095v11.829a1.48 1.48 0 0 0 0 2.896v12.956c-2.702 2.173-4.44 5.5-4.44 9.224s1.738 7.05 4.44 9.224v12.875A11.81 11.81 0 0 1 7.4 54.759V32.862a1.48 1.48 0 1 0 0-2.24V19.24c0-1.338.23-2.618.636-3.816a1.47 1.47 0 0 0 1.376-.396 1.48 1.48 0 0 0-.124-2.202 11.8 11.8 0 0 1 8.472-5.33m25.87 4.394-2.876.7c.345 1.418.808 2.82 1.37 4.165l2.729-1.142a25 25 0 0 1-1.223-3.723m10.426.009-2.786 1c.539 1.504 1.3 2.92 2.258 4.206l2.373-1.766a13.3 13.3 0 0 1-1.845-3.44m-40.841 3.998a1.48 1.48 0 1 0 0 2.959 1.48 1.48 0 0 0 0-2.96m45.446 2.202-1.766 2.376a16.2 16.2 0 0 0 4.206 2.255l1-2.787a13.3 13.3 0 0 1-3.44-1.844m-12.019 1-2.52 1.553a28 28 0 0 0 2.58 3.54l2.25-1.925a25 25 0 0 1-2.31-3.168m5.082 5.94-1.925 2.25a28.4 28.4 0 0 0 3.538 2.584l1.555-2.521a25.4 25.4 0 0 1-3.168-2.312m6.651 4.102-1.142 2.732a28 28 0 0 0 4.163 1.37l.702-2.876a25 25 0 0 1-3.723-1.226m-20.914 3.732a1.48 1.48 0 1 0 0 2.96 1.48 1.48 0 0 0 0-2.96m-24.246.784a1.48 1.48 0 1 0 0 2.959 1.48 1.48 0 0 0 0-2.96M25.16 35.52a8.86 8.86 0 0 1 8.88 8.88 8.86 8.86 0 0 1-8.88 8.88 8.86 8.86 0 0 1-8.88-8.88 8.86 8.86 0 0 1 8.88-8.88m17.153.749a1.48 1.48 0 1 0 0 2.959 1.48 1.48 0 0 0 0-2.96m-17.153 2.21-4.44 11.84 4.44-2.96 4.44 2.96zm22.003 1.183a1.48 1.48 0 1 0 0 2.96 1.48 1.48 0 0 0 0-2.96m4.85 3.397a1.48 1.48 0 0 0-1.332 2.121c-.84.47-2.131.969-3.957.969-3.383 0-4.686-1.68-4.686-1.68-1.318 1.96-2.078 4.355-2.078 6.926 0 6.77 5.294 12.245 11.84 12.245s11.84-5.475 11.84-12.245c0-2.57-.761-4.966-2.081-6.926 0 0-1.303 1.68-4.686 1.68-1.585 0-2.783-.384-3.625-.792a1.48 1.48 0 0 0-.188-1.865 1.48 1.48 0 0 0-1.046-.433m-.213 4.888c1.199.605 2.894 1.162 5.076 1.162 1.344 0 2.47-.201 3.402-.497.265.888.405 1.826.405 2.786-.002 5.118-3.987 9.282-8.883 9.282s-8.88-4.165-8.88-9.285c0-.96.135-1.895.402-2.783.93.296 2.06.497 3.405.497 2.18.001 3.874-.557 5.073-1.162m-14.338 2.685a1.48 1.48 0 1 0 0 2.96 1.48 1.48 0 0 0 0-2.96M20.72 55.367c1.373.559 2.87.873 4.44.873s3.067-.314 4.44-.873V66.6h-8.88z"/></svg>