<svg width="52" height="52" viewBox="0 0 52 52" fill="none" xmlns="http://www.w3.org/2000/svg">
<g clip-path="url(#clip0_59_28)">
<path d="M52 38.9999C52 40.5323 51.3913 42.0019 50.3077 43.0855C49.2242 44.169 47.7546 44.7777 46.2222 44.7777H5.77778C4.24542 44.7777 2.77582 44.169 1.69227 43.0855C0.608728 42.0019 0 40.5323 0 38.9999V33.2222H52V38.9999Z" fill="#CE2028"/>
<path d="M0 18.7778H52V33.2223H0V18.7778Z" fill="#22408C"/>
<path d="M46.2222 7.22217H5.77778C4.24542 7.22217 2.77582 7.8309 1.69227 8.91444C0.608728 9.99798 0 11.4676 0 12.9999L0 18.7777H52V12.9999C52 11.4676 51.3913 9.99798 50.3077 8.91444C49.2242 7.8309 47.7546 7.22217 46.2222 7.22217Z" fill="white"/>
</g>
<defs>
<clipPath id="clip0_59_28">
<rect width="52" height="52" fill="white"/>
</clipPath>
</defs>
</svg>
