<svg xmlns="http://www.w3.org/2000/svg" width="52" height="52" fill="none"><path fill="#fff" d="M52 39a5.777 5.777 0 0 1-5.778 5.778H5.778A5.78 5.78 0 0 1 0 39V13a5.78 5.78 0 0 1 5.778-5.778h40.444A5.78 5.78 0 0 1 52 13z"/><path fill="#C60C30" d="M30.97 18.9a8.67 8.67 0 0 0-12.07 2.13A4.335 4.335 0 0 0 26 26a4.333 4.333 0 1 1 7.1 4.972A8.667 8.667 0 0 0 30.97 18.9"/><path fill="#003478" d="M32.035 24.937A4.333 4.333 0 0 0 26 26a4.335 4.335 0 0 1-7.1-4.972 8.667 8.667 0 1 0 14.198 9.94 4.33 4.33 0 0 0-1.063-6.031"/><path fill="#292F33" d="m35.15 36.937 2.784-3.319 1.107.929-2.785 3.32zm3.711-4.424 2.785-3.318 1.107.929-2.785 3.318zm-1.499 6.285 2.785-3.318 1.106.929-2.785 3.318zm3.715-4.429 2.788-3.318 1.106.93-2.787 3.317zm-1.503 6.286 2.787-3.318 1.105.93-2.786 3.317zm3.713-4.427 2.784-3.322 1.108.929-2.784 3.322zm.006-20.456 1.106-.929 2.788 3.32-1.108.93zm-3.715-4.429 1.106-.929 2.785 3.321-1.108.928zm-2.215 1.86 1.107-.928 6.5 7.745-1.106.929zm-2.212 1.855 1.107-.928 2.784 3.319-1.107.927zm3.712 4.427 1.106-.928 2.788 3.318-1.105.928zM9.244 30.123l1.107-.928 6.498 7.746-1.107.929zm-2.21 1.858 1.105-.927 2.787 3.319-1.108.929zm3.708 4.429 1.107-.93 2.788 3.319-1.107.928zM4.82 33.836l1.106-.929 6.5 7.745-1.108.93zm-.002-15.675 6.497-7.745 1.108.927-6.5 7.747zM7.03 20.02l6.5-7.747 1.107.93-6.5 7.744zm2.214 1.856 6.5-7.747 1.107.93-6.5 7.746z"/></svg>