<svg xmlns="http://www.w3.org/2000/svg" width="184" height="32" fill="none"><path fill="#FABC06" d="M24.625 30a1 1 0 0 1-.587-.187L16 23.985l-8.038 5.828a1 1 0 0 1-1.534-1.13l3.135-9.286-8.126-5.572A1 1 0 0 1 2 12h10.024l3.025-9.31a1 1 0 0 1 1.902 0l3.025 9.313H30a1 1 0 0 1 .566 1.825l-8.128 5.569 3.133 9.283a1 1 0 0 1-.946 1.32M62.625 30a1 1 0 0 1-.587-.187L54 23.985l-8.038 5.828a1.001 1.001 0 0 1-1.535-1.13l3.136-9.286-8.126-5.572A1 1 0 0 1 40 12h10.024l3.025-9.31a1 1 0 0 1 1.902 0l3.025 9.313H68a1 1 0 0 1 .566 1.825l-8.129 5.569 3.134 9.283a1 1 0 0 1-.946 1.32M100.625 30c-.21 0-.416-.065-.587-.187L92 23.985l-8.038 5.828a1.001 1.001 0 0 1-1.535-1.13l3.135-9.286-8.124-5.572A1 1 0 0 1 78 12h10.024l3.025-9.31a1 1 0 0 1 1.902 0l3.025 9.313H106a1 1 0 0 1 .566 1.825l-8.129 5.569 3.134 9.283a1.002 1.002 0 0 1-.946 1.32M138.625 30c-.21 0-.416-.065-.587-.187L130 23.985l-8.038 5.828a1 1 0 0 1-1.18-.005 1 1 0 0 1-.355-1.125l3.135-9.286-8.125-5.572A1 1 0 0 1 116 12h10.024l3.025-9.31a.998.998 0 0 1 1.539-.5c.171.124.298.3.363.5l3.025 9.313H144a1 1 0 0 1 .566 1.825l-8.129 5.569 3.134 9.283a1.002 1.002 0 0 1-.946 1.32M176.625 30c-.21 0-.416-.065-.587-.187L168 23.985l-8.038 5.828a1 1 0 0 1-1.18-.005 1 1 0 0 1-.355-1.125l3.135-9.286-8.125-5.572A1 1 0 0 1 154 12h10.024l3.025-9.31a.998.998 0 0 1 1.539-.5c.171.124.298.3.363.5l3.025 9.313H182a1 1 0 0 1 .566 1.825l-8.129 5.569 3.134 9.283a1.002 1.002 0 0 1-.946 1.32"/></svg>