<svg xmlns="http://www.w3.org/2000/svg" width="88" height="88" fill="none"><path fill="#fff" d="M75.313 24.31c2.53 3.447 4.217 7.48 4.95 11.697.77 4.583.404 9.24-1.136 13.64a26.95 26.95 0 0 1-7.334 11.22 33.4 33.4 0 0 1-8.286 5.793c1.503 3.923-.477 8.323-4.4 9.827a7.7 7.7 0 0 1-2.714.513 7.627 7.627 0 0 1-7.59-7.333H37.547c-.404 4.18-4.144 7.333-8.324 6.856-3.886-.366-6.82-3.593-6.893-7.48.037-.696.147-1.43.367-2.09A30.7 30.7 0 0 1 8.03 56.503c-1.21-1.613-.843-3.923.843-5.17a3.76 3.76 0 0 1 2.31-.806c2.64 0 3.667-.917 4.29-2.31.88-2.64 1.394-5.39 1.43-8.177.11-1.943.33-3.85.624-5.757a26.77 26.77 0 0 1 9.973-15.95A34.36 34.36 0 0 1 48.73 11c5.243 0 10.413 1.283 15.07 3.667a31.9 31.9 0 0 1 11.513 9.643M61.307 63.47c6.526-2.97 11.66-8.323 14.19-15.033C81.437 30.323 66 14.85 48.73 14.85a28 28 0 0 0-3.887.257C34.32 16.5 23.467 23.833 21.303 34.833 19.91 42.167 22 54.23 11.183 54.23c3.484 4.437 8.324 7.847 13.787 9.46 3.117-2.787 7.92-2.493 10.743.66.404.44.734.917.954 1.43h13.016c1.907-3.74 6.527-5.28 10.267-3.3.55.293.917.623 1.357.99M40.223 37.803c-2.126.11-3.996-1.503-4.106-3.666-.11-2.127 1.54-3.96 3.666-4.107 2.127-.11 3.997 1.54 4.107 3.887a3.665 3.665 0 0 1-3.557 3.813zm17.197 0c-2.127.11-3.997-1.503-4.107-3.666-.146-2.127 1.54-3.96 3.667-4.107 2.127-.11 3.997 1.54 4.107 3.887.073 2.016-1.504 3.74-3.667 3.813zm-21.817 6.454c-.22-1.027.477-2.09 1.504-2.274 1.026-.183 2.053.477 2.273 1.504a9.17 9.17 0 0 0 9.46 6.38c4.18.22 7.993-2.347 9.423-6.307.514-.953 1.687-1.393 2.604-.843.66.366 1.063.99 1.063 1.723-.697 2.603-2.31 4.877-4.51 6.453-2.53 1.76-5.5 2.75-8.58 2.787h-.403a12.855 12.855 0 0 1-12.944-9.46z"/></svg>