<svg width="66" height="66" viewBox="0 0 66 66" fill="none" xmlns="http://www.w3.org/2000/svg">
<rect width="66" height="66" rx="10" fill="#F9AD19"/>
<path d="M22.2681 37.8779C22.2269 38.3066 22.1546 38.751 22.1164 39.4246C22.0123 40.3046 21.9042 40.703 21.8209 41.3208C21.7989 41.4782 21.3118 43.962 21.1652 44.4442C21.0186 44.9266 20.4048 46.5596 19.9152 47.2611L18.6871 49.1544C17.9651 50.1516 17.074 50.974 16.1741 51.7236C15.9338 51.9418 15.6838 52.0844 15.6838 52.0844C14.051 53.3729 12.6292 53.5711 11.4298 53.3943C10.2304 53.2176 9.5355 52.5474 9.18029 52.1413C8.66081 51.5475 8.25882 50.7894 8.20698 50.6674C8.09854 50.3734 7.95744 49.9417 7.88643 49.6445C7.8668 49.4571 7.80591 48.3814 7.80146 48.342C7.76265 47.6864 7.83566 47.1043 7.89363 46.7673C7.91281 46.6929 7.93029 46.6168 7.94363 46.5373C8.07308 45.6464 8.47968 44.8753 8.92799 44.1387C9.30943 43.4878 9.74071 42.9416 10.3329 42.4949C10.9268 42.0472 11.6001 41.6032 12.2116 41.3699C12.8229 41.1366 13.043 41.1041 13.6361 41.0012C13.7445 40.992 14.3235 40.9523 14.5068 40.9984C13.741 41.6966 13.1801 42.2915 12.609 42.9267C11.5958 44.033 10.8252 45.2635 10.6949 46.8409C10.6113 47.8044 11.0551 48.8341 11.4171 49.1835C11.779 49.5329 12.3968 49.6015 12.7203 49.4768C13.0438 49.352 13.6833 49.0139 14.0275 48.7412C14.3718 48.4684 14.9573 47.9315 15.2642 47.5303C15.5711 47.1292 16.3896 45.7477 16.6427 44.9576C16.7801 44.4844 16.8714 43.9391 16.8921 43.4419C16.8855 42.3355 16.4131 41.4733 15.4692 40.777C15.6763 40.6008 16.7286 39.8375 18.5533 38.6017C19.6804 37.8666 20.8832 37.1215 22.0517 36.4183C22.1224 36.3729 22.4012 36.2038 22.4012 36.2038C22.4301 36.4668 22.3348 37.2221 22.2681 37.8779ZM15.2321 41.3822C15.8777 42.0666 16.1269 42.5059 16.1841 43.1781C16.2292 44.2778 16.0468 45.0234 15.6688 45.7141C15.4496 46.1207 15.2657 46.5212 15.0376 46.8533C14.4114 47.6861 13.7027 48.4516 12.695 48.9082C12.0824 49.1665 11.5448 48.725 11.3596 48.1826C11.2226 47.7816 11.1406 47.7616 11.1383 47.097C11.1358 46.4323 11.3263 45.7019 11.6326 45.0586C12.2263 43.9239 13.026 42.9583 13.9481 42.0523C14.1836 41.798 14.6559 41.4539 14.9701 41.2272C15.0413 41.1821 15.1588 41.3043 15.2321 41.3822ZM30.0975 30.2557C29.5182 30.8165 28.85 31.2718 28.2215 31.7252L26.3054 33.1975C26.3054 33.1975 24.2876 34.691 24.252 34.6699C24.2169 34.6495 24.2871 34.4781 24.2894 34.452C24.2917 34.426 24.7857 31.0384 24.8621 29.3136L25.1531 27.489L25.3574 26.2461L25.4235 25.818C25.441 25.6246 25.8684 22.9841 25.9477 22.3266C26.0479 21.8579 26.1887 21.4221 26.2094 20.9236C26.2515 20.6141 26.2067 20.0806 26.144 19.9766C26.081 19.8729 25.8521 19.7481 25.6712 19.8002C25.4903 19.852 24.9215 20.8769 24.8629 21.0347C24.6474 21.4799 24.4684 21.9199 24.2945 22.3967C24.1459 22.7567 24.038 23.1495 23.9295 23.5438C23.8511 23.8569 23.6103 25.0396 23.473 25.5504C23.4525 25.6344 23.3086 25.7119 23.1523 25.9054C22.9911 26.0414 22.7709 26.3284 22.6285 26.5763C22.0335 27.4387 21.2692 28.7395 21.2692 28.7395L21.2531 28.7637L19.8097 31.0982C18.8054 32.6204 17.8025 34.1465 16.6786 35.607C16.1846 36.2724 15.6415 36.8275 15.0152 37.3177C14.6341 37.6269 14.2816 37.5133 14.049 37.1195C13.8264 36.8014 13.9448 34.8979 13.9637 33.9109C13.9637 33.9109 14.143 32.3976 14.2539 31.2236L14.6893 28.8091C14.8092 28.184 14.8419 27.5847 14.9384 26.9066C14.9384 26.9066 14.9675 26.2477 14.9884 26.0938C15.0424 25.5524 15.0646 25.3332 15.0819 24.798C15.1197 24.1066 15.1905 23.3731 15.1864 22.6498C15.1562 21.901 15.0629 21.2627 14.8312 20.4377C14.6464 19.7799 14.3852 19.1142 13.8755 18.5991C13.2836 18.0157 12.5709 17.7151 11.7427 17.7306C11.4396 17.7267 11.1131 17.8394 10.7814 17.9151C10.3157 18.0271 9.86065 18.1816 9.4197 18.3727L9.41771 18.3719C9.41771 18.3719 9.0628 18.4882 8.45115 18.8687C8.12906 19.0592 7.81695 19.2687 7.51879 19.5004C6.7895 20.0769 6.10407 20.7251 5.46251 21.4077C5.07846 21.8108 4.71236 22.2428 4.41313 22.7167C4.41251 22.7174 4.41221 22.7174 4.4119 22.7183C1.56283 26.3599 3.50838 31.2027 5.99533 31.8405C7.07799 32.0969 7.39793 32.0682 7.40483 31.9478C7.41419 31.7815 3.34611 30.3233 3.56359 26.5166C3.5866 26.2306 3.61773 25.9434 3.65347 25.6588C3.72233 25.2218 3.90838 24.3825 4.40117 23.4097L4.55868 23.1495C4.88015 22.6211 5.22156 22.0913 5.62846 21.6098C6.62754 20.4854 8.11955 19.3947 10.3491 18.6876C10.4415 18.6621 10.535 18.6379 10.6315 18.6187C11.8082 18.3355 12.533 18.7487 12.852 19.935C12.8909 20.0874 12.9491 20.2621 12.9996 20.4318C13.1611 21.324 13.2519 22.8055 13.0539 25.2438C12.9637 25.7308 12.8856 26.631 12.8366 27.3486C12.7878 27.7449 12.7335 28.1589 12.672 28.5938C12.672 28.5938 11.5356 34.3624 12.5389 36.4677C12.689 36.8151 12.8723 37.1224 12.9813 37.2805C13.3289 37.9163 13.9384 38.4483 14.6008 38.3574C14.9312 38.281 15.2089 38.0595 15.4872 37.8373C15.8985 37.4484 16.2672 37.0273 16.6359 36.6021C16.7392 36.515 16.9375 36.1904 17.0413 36.1026C17.2783 35.8477 17.3028 35.8036 17.4987 35.5153C18.0878 34.687 18.5942 33.7899 19.1411 32.9289L20.4646 30.8733L21.875 28.5799L22.2193 27.9732C22.7209 27.19 23.1095 26.7075 23.3469 26.4427C23.3347 26.73 22.614 32.2359 22.5816 32.6203C22.5816 32.6203 22.3738 34.9771 22.3813 35.2045C22.4 35.7724 22.2966 35.895 21.9031 36.0909L20.0588 37.1756C19.4203 37.5504 18.7865 37.9659 18.1884 38.3757C17.5882 38.7479 16.9858 39.12 16.3896 39.531L15.237 40.3832C15.0967 40.4759 15.0967 40.4759 15.0103 40.5274C14.6666 40.4883 14.1777 40.2326 12.9336 40.5774C12.5315 40.6986 12.1496 40.8046 11.7939 40.9962C10.7577 41.5319 9.8582 42.2803 9.08596 43.1689C8.47937 43.903 8.06097 44.7164 7.74287 45.5917C7.68704 45.7445 7.60698 45.9946 7.54057 46.2076C7.50744 46.2698 7.3806 46.8381 7.39042 46.9063C7.34977 47.251 7.3329 47.6004 7.32723 47.884C7.31388 47.9231 7.32094 48.3188 7.32876 48.4735C7.32907 48.4831 7.32907 48.4888 7.32907 48.4888L7.32953 48.4891C7.34778 48.8566 7.36879 49.2122 7.40836 49.5736C7.4533 49.9875 7.68658 50.6958 7.9286 51.2313C8.17063 51.7668 9.47492 53.7309 11.2448 53.9888C13.2703 54.2725 14.7039 53.4259 14.7039 53.4259C15.4619 53.1128 15.9326 52.8025 16.375 52.4189C16.6258 52.2688 16.8091 52.0554 16.9753 51.9406C17.6092 51.505 17.9651 51.1801 18.401 50.6732L19.3657 49.4983C19.8269 48.8749 20.3235 48.2473 20.747 47.6274C21.0661 47.0948 21.3867 46.5647 21.6315 46.0396C21.8174 45.6755 22.1595 44.901 22.2098 44.6659C22.9201 42.6091 23.2752 41.0498 23.3164 40.7403C23.4792 40.1498 23.6035 39.5633 23.7281 38.978C23.8749 38.2375 23.9819 37.5003 24.0905 36.7638C24.1075 36.5696 24.1414 36.0548 24.1701 35.7957C24.1747 35.3818 24.2066 35.3577 24.2063 35.1436C24.5857 34.8539 24.6321 34.858 24.8882 34.6234L25.1899 34.3886C26.2426 33.662 27.3324 32.7759 28.3969 32.0626C29.3859 31.2754 30.0106 30.7887 30.2188 30.6137C30.9123 30.0381 30.8391 30.0136 31.4897 29.4072C31.5604 29.3606 30.6507 29.7747 30.0975 30.2557Z" fill="white"/>
<path d="M55.6051 18.8416C55.2255 19.2127 54.8123 19.5521 54.3878 19.8675C53.6817 20.3919 52.9205 20.8204 52.1125 21.1483C52.6228 20.5233 52.9502 19.7285 53.0841 18.9399C53.2574 17.9191 53.0879 16.8349 52.5932 15.928C52.5125 15.7811 52.4235 15.6317 52.326 15.4832C52.5932 15.5973 52.856 15.7169 53.1171 15.8463C53.6335 16.1027 54.1416 16.3712 54.6499 16.6407C54.9677 16.8633 55.2872 17.084 55.6105 17.2973C55.9131 17.4969 56.2212 17.688 56.5349 17.8693C56.5381 17.8717 56.5419 17.8741 56.545 17.876C56.2162 18.1826 55.9281 18.5219 55.6051 18.8416ZM51.0786 21.074C50.7783 21.3274 50.4306 21.5285 50.0639 21.6599C49.9105 21.7135 49.7355 21.7523 49.5711 21.8067C49.1246 21.8608 48.6748 21.8843 48.2258 21.8774C48.1162 21.8677 48.0056 21.8572 47.8958 21.8389C47.3904 21.7535 46.9473 21.6012 46.5231 21.3064C46.0901 21.0054 45.6527 20.6002 45.4596 20.0968C45.2709 19.6042 45.1697 19.0797 45.1556 18.5522C45.1027 16.5917 46.6587 14.6453 48.6623 14.5622C48.6656 14.5622 48.6679 14.5618 48.6692 14.5618C49.1821 14.5525 49.6947 14.5847 50.2027 14.6537C50.3522 14.7085 50.5007 14.7673 50.6495 14.824C51.0389 15.2625 51.4705 15.6611 51.7663 16.1858C52.2156 16.9767 52.4223 17.8951 52.3188 18.8024C52.2156 19.7105 51.7732 20.492 51.0786 21.074ZM62.6474 17.9774C62.6422 17.9307 62.5069 17.8907 62.3445 17.86C61.4154 17.6829 60.4861 17.4629 59.6289 17.0466C58.712 16.6023 57.879 15.9795 57.0051 15.4564C56.9411 15.4117 56.8778 15.3708 56.8177 15.331C57.2099 15.3032 57.6017 15.2485 57.9961 15.1549C58.4146 15.0554 58.8272 14.9203 59.2206 14.7494C59.8694 14.4846 60.9971 13.8841 61.0244 13.8441C61.0244 13.8441 58.7861 14.4021 56.6341 14.2521C55.4695 14.1758 54.4063 13.6524 53.2826 13.3587C51.5223 12.8976 49.747 12.4839 47.9211 12.6762C46.3202 12.8446 44.7588 13.3917 43.3952 14.2541C42.5647 14.7794 41.8058 15.4237 41.159 16.1695C40.5349 16.8893 39.8975 17.8015 39.9653 18.8057C39.9731 18.9027 40.1062 18.887 40.1441 18.8241C40.1714 18.7768 40.2035 18.732 40.2354 18.6871C40.5055 18.3191 40.8495 18.013 41.1986 17.7226C41.5564 17.4226 41.8921 17.0956 42.2642 16.8112C42.7788 16.4166 43.33 16.07 43.9088 15.7768C44.4736 15.4891 45.0662 15.2521 45.6742 15.0718C44.6719 15.8338 44.1458 17.1554 44.2542 18.4171C44.3641 19.6788 45.0731 20.8561 46.0782 21.6122C44.7168 21.3437 43.5144 20.6428 42.3256 19.9545C41.7538 19.6228 41.2112 19.2274 40.7527 18.7469C40.7016 18.6925 40.6145 18.5739 40.5349 18.5639C40.3381 18.5381 40.5207 18.8596 40.553 18.9208C41.1912 20.1309 42.2768 20.9716 43.4648 21.5869C43.5081 21.6089 43.5518 21.6303 43.5958 21.6537C43.6841 21.6979 43.7734 21.7406 43.8625 21.7833C44.9973 22.3209 46.2334 22.681 47.4791 22.8306C50.0439 23.1395 52.6235 22.5268 54.8442 21.2104C55.4287 20.8631 55.97 20.465 56.4747 20.0089C56.9695 19.5627 57.4974 19.0933 57.7999 18.4885C57.7879 18.5115 58.9548 18.7776 59.068 18.7928C59.5266 18.8522 59.9908 18.8615 60.452 18.8226C60.8585 18.7877 61.2804 18.7147 61.6801 18.6008C61.9669 18.5195 62.6298 18.4047 62.6477 18.0127C62.6477 18.0011 62.6477 17.989 62.6474 17.9774Z" fill="white"/>
<path d="M32.4766 18.8462L32.0189 19.2599C31.9536 19.2922 31.8562 19.2922 31.7898 19.2771C31.3818 19.2261 31.17 18.98 31.0872 18.5829C30.9573 18.0888 30.9407 17.5931 31.022 17.0804C31.0553 16.8994 31.0553 16.7172 31.0872 16.5357C31.1205 16.3711 31.284 15.7437 31.3318 15.5949C31.3818 15.4629 31.5616 15.0994 31.5616 15.0994C31.5616 15.0994 31.8229 14.6541 32.0353 14.5058C32.101 14.439 32.2645 14.4887 32.3952 14.4887C32.3619 14.8359 31.5122 16.5109 31.6557 17.5204C31.716 17.8585 31.7406 17.9229 31.7574 17.9894C31.8065 18.203 31.8229 18.4513 32.0189 18.6164L32.3008 18.3639C32.3008 18.3639 32.5255 18.0888 32.574 18.022C32.6725 17.9064 32.7866 17.7738 32.8685 17.6424L33.6363 16.2887C33.6849 16.1729 33.8488 15.3308 33.8488 15.3308C33.8488 15.3308 33.8959 15.0298 33.9795 14.8853C34.0284 14.7858 34.0936 14.7031 34.1588 14.6215L34.306 14.4887C34.3547 14.456 34.4209 14.439 34.47 14.439C34.5672 14.439 34.6973 14.6705 34.7471 14.7531C34.91 15.0659 34.779 15.3635 34.7306 15.6606C34.6005 16.2553 34.4534 16.833 34.3547 17.4113C34.2243 18.0547 34.1422 18.6978 34.0284 19.3419C34.0122 19.5082 33.9591 20.0045 33.9465 20.0859C33.928 20.2082 33.8978 20.3498 33.8978 20.4816C33.8978 20.5313 33.9298 20.5974 33.9465 20.6629C33.9631 20.6629 33.9795 20.6797 33.9959 20.6797C34.077 20.5636 34.1588 20.4645 34.2243 20.3498C34.3547 20.135 34.47 19.9199 34.5672 19.7063L35.2043 18.3021C35.385 17.9392 35.5482 17.5593 35.7436 17.1962C35.8415 17.0308 35.9882 16.8831 36.1192 16.7013C36.2175 16.9319 36.1527 17.0804 35.9562 17.0804L36.0701 17.1635L35.6609 17.9718L35.2533 18.8968C35.0085 19.4585 34.7964 20.0372 34.5353 20.5811C34.4366 20.7955 34.2726 20.9765 34.1097 21.1575C33.9465 21.3409 33.7833 21.3068 33.653 21.1085C33.505 20.895 33.4393 20.6629 33.3912 20.3988C33.2922 19.9869 33.2922 19.573 33.3091 19.1609C33.3264 18.6491 33.4076 18.1373 33.4731 17.6095C33.4731 17.5593 33.6034 17.1041 33.5849 16.9274L33.4254 17.1923L32.8847 18.2866C32.8198 18.4181 32.7381 18.5332 32.6563 18.6491C32.6076 18.715 32.4766 18.8462 32.4766 18.8462Z" fill="white"/>
<path d="M36.1363 16.4537L36.1647 16.4797C36.2099 16.3884 36.2325 16.2401 36.2332 16.14C36.2349 15.9154 36.2418 15.5415 35.9791 15.5273C35.9286 15.5245 35.8924 15.4922 35.8259 15.6286C35.7593 15.7646 36.1363 16.4537 36.1363 16.4537ZM36.7233 18.5831C36.6093 18.3686 36.4658 18.1769 36.3693 17.9624C36.3693 17.9453 36.0704 17.4605 35.9236 17.2454C35.6955 16.9321 35.5319 16.602 35.4497 16.2385C35.4001 15.9752 35.3357 15.7109 35.4665 15.4631C35.5644 15.2977 35.6777 15.166 35.8747 15.133C35.9236 15.1162 36.005 15.15 36.0377 15.1827C36.332 15.4127 36.4302 15.728 36.4463 16.09C36.4463 16.2726 36.3972 16.4537 36.3635 16.6518C36.3635 16.7015 36.3817 16.768 36.4141 16.8001C36.6418 17.0806 36.8704 17.3455 37.0838 17.6253C37.2302 17.8249 37.3608 18.0222 37.4924 18.22C37.5248 18.2361 37.5407 18.2693 37.5892 18.3195C37.6877 18.0549 37.7848 17.7914 37.9009 17.5436L38.3742 16.5197C38.4386 16.3551 38.4892 16.1891 38.5699 16.0253C38.6355 15.876 38.7331 15.7439 38.815 15.5952L38.9464 15.2977C38.9953 15.2145 39.0437 15.133 39.1259 15.0662C39.1582 15.0342 39.2398 15.0342 39.305 15.0507C39.3219 15.0507 39.3706 15.1162 39.3706 15.15C39.3544 15.2977 39.3381 15.4468 39.2891 15.5952C39.1582 15.9417 39.0116 16.2889 38.8473 16.6183C38.7331 16.8833 38.5699 17.1311 38.4386 17.395L37.8834 18.5831C37.8348 18.6822 37.851 18.7642 37.9164 18.8645C38.1283 19.2602 38.3578 19.6569 38.5533 20.0689C38.7659 20.4986 38.9289 20.9601 39.1082 21.4223C39.2398 21.7365 39.3706 22.0676 39.5176 22.3807C39.5837 22.5285 39.6449 22.5143 39.7791 22.3969C40.0956 22.1211 40.301 21.8624 40.3518 21.8624C40.3986 21.8624 40.1334 22.4901 39.9772 22.6412C39.8992 22.7232 39.6752 22.9073 39.5837 22.9087C39.4915 22.9097 39.3219 22.9414 39.2226 22.8596C38.8802 22.5788 38.6518 22.2154 38.4892 21.8022C38.3742 21.5381 38.2098 21.3069 38.0799 21.0587C38.0481 20.9927 38.0311 20.9274 37.9984 20.8782L37.6056 20.1027C37.5407 19.9544 37.4756 19.8054 37.3771 19.6238C37.2633 19.8054 37.165 19.9201 37.067 20.0526C36.9696 20.1847 36.8872 20.3335 36.7901 20.4321C36.5279 20.697 36.2662 20.9927 35.9067 21.1088C35.7274 21.1753 35.5319 21.1753 35.3357 21.1916C35.2871 21.1916 35.2205 21.1088 35.2047 21.0587C35.171 20.9601 35.2047 20.911 35.3191 20.9274H35.4497C35.6612 20.9601 35.8095 20.8112 35.9722 20.697C36.2662 20.4818 36.5279 20.2345 36.757 19.9544C36.855 19.8054 36.951 19.663 37.0343 19.5244C37.1932 19.2588 37.1837 19.224 37.0075 19.0123C36.9771 18.9762 36.855 18.7814 36.855 18.798L36.7233 18.5831Z" fill="white"/>
<path d="M31.83 27.4029L32.1322 27.1848C32.4935 26.9548 32.7751 26.7482 33.1566 26.4117C33.6043 26.0169 34.0472 25.4913 34.3148 24.8974C34.4593 24.5773 34.3685 24.167 34.1707 24.0314C33.8452 23.7334 33.463 23.7721 33.1493 24.0289C32.676 24.417 32.2087 25.0454 32.0658 25.6334C31.9609 26.0634 31.83 27.4029 31.83 27.4029ZM38.6199 24.9959C38.5461 25.6531 38.4116 25.6984 38.0553 26.2058C38.0052 26.3001 38.0435 26.2224 38.0052 26.3001C37.7036 26.9069 37.1894 27.8767 36.9002 28.3186C36.4473 29.0092 36.19 29.5495 35.5851 30.1356C34.8588 30.8388 34.0099 31.416 32.9644 31.4605C32.4659 31.4963 31.9655 31.5318 31.4937 31.3992C31.0129 31.2314 30.5569 30.8957 30.2961 30.4219C30.1141 30.021 29.961 29.7548 29.8595 29.3671C29.7579 28.9796 29.5417 26.8887 29.9282 25.6993C30.0305 25.3873 30.3751 24.694 30.3934 24.6613C30.8925 23.764 31.3592 23.4916 31.9987 23.0763C32.3309 22.86 32.8794 22.7034 32.9167 22.6968C33.5647 22.5845 33.8723 22.6552 34.2949 22.8812C34.7507 23.0973 34.9799 23.4888 35.0147 23.9676C35.0509 24.4814 34.8475 24.9707 34.6234 25.3975C34.1385 26.2601 33.361 26.9371 32.5283 27.5513C32.492 27.5622 32.4682 27.6095 32.4317 27.6214C31.7205 27.9991 31.7205 27.9991 31.8084 28.8048C31.8391 29.0329 31.8322 29.2729 31.898 29.4906C32.128 30.2512 33.019 30.7304 33.7858 30.4149C34.2779 30.2228 34.855 30.0471 35.23 29.612C35.7226 29.0408 36.3045 28.4985 36.6728 27.8739C37.0463 27.2406 38.2759 25.0234 38.6199 24.9959Z" fill="white"/>
<path d="M30.8308 32.6293C30.8311 32.8685 30.6998 33.3942 30.4688 33.8219C30.3978 33.9524 30.3781 34.0432 30.3333 34.1582C30.2403 34.3442 30.1721 34.5305 30.0575 34.692C29.9646 34.809 29.8273 34.7852 29.7362 34.6223C29.575 34.3913 29.598 34.1354 29.667 33.8794C29.782 33.5092 29.8049 33.1142 29.8738 32.7198C29.9196 32.4878 29.9908 32.1061 30.0799 32.0242C30.1692 31.9418 30.4023 31.9309 30.5397 31.9309C30.5848 31.9084 30.6998 31.9545 30.6998 32.0008C30.6998 32.0008 30.8302 32.5035 30.8308 32.6293Z" fill="white"/>
<path d="M48.8054 34.4899C48.8473 34.1819 48.991 33.8456 49.2178 33.5794C49.3678 33.3514 49.7416 33.3514 49.8931 33.5794C50.0431 33.7696 50.1557 34.0743 50.1175 34.3383C50.0431 34.8313 49.8554 35.3613 49.7049 35.8545C49.6671 35.9684 49.5171 36.1209 49.4424 36.1209C49.2925 36.1209 49.1033 36.0445 49.0301 35.9304C48.9177 35.7791 48.8784 35.5522 48.8054 35.3248C48.8054 35.3248 48.748 34.9067 48.8054 34.4899Z" fill="white"/>
<path d="M23.6271 43.5689C23.6018 43.8499 23.5464 44.1466 23.4666 44.534C23.3973 44.5985 23.336 44.6745 23.2459 44.7696C22.7666 45.2766 22.2022 45.6926 21.6762 46.11C21.4133 46.298 21.0754 46.3749 20.7384 46.4518C20.4383 46.5257 20.1755 46.2607 20.1755 45.92C20.1722 44.789 20.4645 43.8189 20.939 43.0357C21.2266 42.561 21.338 42.4027 21.6973 42.0053C22.0797 41.5826 22.5002 41.5977 23.1386 42.0146L23.7956 42.3964C23.7231 42.9582 23.7019 43.1904 23.6271 43.5689ZM27.1182 38.5266C27.3082 37.7758 27.3139 37.6944 27.5534 36.9357C27.7928 36.1772 27.9271 35.8672 28.2803 35.3032C28.3185 35.3032 28.356 35.3404 28.3925 35.3404C28.431 35.6437 28.5605 35.7164 28.4683 36.2496C28.3602 36.9866 28.026 37.8612 27.7172 38.4875C27.5823 38.7591 27.4375 39.1145 27.2853 39.3969C27.1286 39.6872 27.0267 39.8377 26.9307 39.9643C26.8347 40.0911 26.7413 40.1561 26.7413 40.1561H26.666C26.8165 39.6246 27.0264 38.8896 27.1182 38.5266ZM25.5027 45.2752C25.653 44.5167 25.8045 43.7592 25.9915 43.0004C25.9915 42.9247 26.2156 42.0896 26.2536 41.9763L26.554 41.1429C26.7329 40.7788 26.9818 40.4512 27.1999 40.1247C27.2002 40.1243 27.2008 40.1247 27.2011 40.124C27.2025 40.1216 27.2047 40.1178 27.2062 40.1156C27.214 40.1035 27.2226 40.0913 27.2304 40.0798C27.2313 40.0775 27.2304 40.0747 27.2313 40.0719C27.3381 39.8746 27.6527 39.3161 27.6527 39.3161C27.8266 39.0471 27.9447 38.7675 28.0547 38.4875C28.356 37.882 28.6553 37.2753 28.8807 36.6312C29.0682 35.9858 29.0313 35.3404 28.7678 34.6962C28.693 34.5437 28.5435 34.3541 28.3925 34.2415C27.98 34.0138 27.1182 34.2415 26.7787 34.734C26.4416 35.1892 26.1415 35.6809 25.8413 36.2128C25.5027 36.9718 25.1659 37.7304 24.8654 38.4875C24.6028 39.1704 24.3772 39.8529 24.1901 40.535C24.0778 40.9526 23.9653 41.407 23.8913 41.8622C23.7019 41.7119 23.6271 41.5209 23.515 41.3701C23.2157 40.8388 22.8016 40.307 22.2022 40.307C21.2274 40.27 20.3625 40.6111 19.7249 41.407C19.2002 42.0896 18.8631 42.8488 18.5995 43.6819C18.4127 44.327 18.4127 44.971 18.5246 45.6159C18.5541 46.1279 18.9039 46.6801 19.0812 46.9078C19.2587 47.1353 19.6874 47.4751 19.7249 47.4751C20.4424 47.7359 21.0754 47.5501 21.6381 47.095C22.2022 46.6395 22.7263 46.1469 23.2524 45.6926C23.3153 46.1953 23.2013 47.4143 23.4243 48.7983C23.6134 49.8555 23.9202 50.6326 24.0395 50.8103C24.2941 51.0644 24.7151 51.1523 24.9395 50.8874C25.1998 50.5801 25.4281 50.2423 25.6149 49.9006C26.2898 48.8012 26.9286 47.6254 27.5683 46.4887C27.6807 46.298 27.7172 46.0704 27.8668 45.8833C27.9269 45.8078 28.4412 44.8364 28.4412 44.8364L28.8418 44.214C28.8418 44.1754 28.7678 44.0613 28.73 44.0613C28.6553 44.0238 28.5435 44.0613 28.5051 44.1371C28.4007 44.278 27.5284 45.7694 27.38 45.9966L25.9531 48.4219C25.6919 48.8767 25.3901 49.3327 25.0913 49.787C25.016 49.9006 24.8654 49.9775 24.6783 50.0903C24.6783 49.9775 24.6409 49.9393 24.6783 49.9006L25.016 47.854C25.0522 47.5123 25.3901 45.7694 25.5027 45.2752Z" fill="white"/>
<path d="M19.0975 19.8541V19.856C19.1051 19.8482 19.1025 19.85 19.0975 19.8541Z" fill="white"/>
<path d="M31.3991 16.6689C31.2839 16.7342 31.1206 17.0152 31.1376 17.1313L31.1867 17.1801C31.2673 16.9983 31.3491 16.8334 31.3991 16.6689Z" fill="white"/>
<path d="M28.5556 15.5456C28.1645 15.48 27.7873 15.447 27.3797 15.381C27.3309 15.381 27.2817 15.3475 27.232 15.3142C28.0657 14.1923 28.8338 13.0692 29.7968 12.0621L29.7651 12.2108L29.3732 13.399C29.3228 13.5653 29.1774 14.011 29.1596 14.0765C29.0784 14.2913 29.0464 14.522 28.9642 14.7365C28.9159 14.9023 28.8505 15.0663 28.8176 15.2146L28.7688 15.3639C28.751 15.48 28.6872 15.562 28.5556 15.5456ZM30.9906 17.3776L30.7617 18.0387C30.7453 18.1211 30.724 18.1419 30.6602 18.3125C30.5959 18.483 30.4999 18.6824 30.4999 18.6824L30.2218 19.4423C30.1577 19.5902 29.8962 20.2345 29.8304 20.4157C29.732 20.6801 29.6174 20.9439 29.5363 21.1917C29.5197 21.2418 29.307 21.7212 29.2745 21.7864L29.1025 22.2773C29.07 22.3759 29.0117 22.4904 28.9623 22.5732L28.4257 23.5368L28.2292 23.8164C28.2131 23.8006 28.2131 23.8006 28.1969 23.8006C28.2292 23.5531 28.2455 23.3052 28.2616 23.0574C28.2455 23.0402 28.3743 22.1144 28.4423 21.5549C28.4423 21.5053 28.6212 20.3337 28.6375 20.2838C28.6538 20.2345 28.6872 19.8715 28.7189 19.723L28.8663 19.0455C28.9476 18.6982 28.9967 18.3517 29.0784 18.0053C29.1774 17.6253 29.307 17.2626 29.4053 16.8835L29.4872 16.5028C29.5197 16.3878 29.5493 16.2731 29.5685 16.1235C29.603 15.9495 29.632 15.77 29.6909 15.7325C29.7521 15.6936 29.8683 15.6621 29.9607 15.6451C30.0424 15.6288 30.0916 15.6117 30.1732 15.579C30.3866 15.48 30.6304 15.2484 30.614 14.935C30.3533 15.0834 30.1237 15.2822 29.7968 15.3639C29.863 15.0998 30.1079 14.2579 30.1079 14.1923C30.1237 14.1425 30.2218 13.7631 30.2384 13.7138C30.3212 13.3828 30.4019 13.0692 30.4666 12.7558C30.516 12.5577 30.5817 11.5515 30.4507 11.2703C30.4019 11.1375 30.3369 11.0879 30.2218 11.1375C30.1237 11.1702 30.0261 11.2541 29.9607 11.3193C29.7162 11.6667 29.5197 12.0123 29.2745 12.3265L28.1797 13.7464C28.0657 13.8952 27.9349 14.0765 27.8039 14.2245L27.6403 14.5062L27.2817 14.935L27.0524 15.2325C27.0361 15.2484 26.9714 15.2484 26.9389 15.2325C26.7913 15.1829 26.5134 15.0998 26.5134 15.0998C26.5134 15.0998 25.4361 14.7695 24.8805 14.6219C24.5375 14.5559 23.5246 14.3571 23.3605 14.3571C23.0349 14.3406 22.7575 14.3298 22.0707 14.4394C21.8805 14.48 21.7604 14.5559 21.6125 14.5885C21.2704 14.688 20.9602 14.8523 20.6487 15.0169C20.4696 15.0998 20.0118 15.4307 19.9796 15.48C19.5216 15.8432 19.2112 16.2891 18.9671 16.784C18.8846 16.965 18.8336 17.1154 18.765 17.3472C18.6877 17.5982 18.6194 17.9688 18.6001 18.1785C18.5808 18.3883 18.5739 18.6664 18.6234 18.9967C18.6234 19.0618 18.7504 19.462 18.7504 19.462C18.8639 19.789 19.3093 20.3492 19.5055 20.4649C19.7015 20.5803 19.8638 20.5153 19.8638 20.4984C19.7987 20.482 19.767 20.4603 19.636 20.3757C19.636 20.3757 19.4082 20.2176 19.2931 20.0691C19.1225 19.8447 19.0809 19.6887 19.0477 19.6391C18.9501 19.4423 18.8834 19.2109 18.8518 18.9967C18.7343 18.1978 18.811 17.7305 18.9671 17.2455C19.0928 16.8557 19.4078 16.2728 19.8 15.8926C19.8484 15.8594 20.0938 15.6117 20.1265 15.5953C20.6398 15.1806 21.2041 14.9684 21.7771 14.7695C21.7771 14.7695 22.342 14.5621 23.1317 14.5885C23.4914 14.6049 24.3568 14.8193 24.4714 14.8523C24.6671 14.9188 24.8648 14.9684 25.0435 15.0344C25.3048 15.0998 25.5662 15.1992 25.8277 15.2977C26.1381 15.3972 26.4317 15.5122 26.7588 15.6117C26.5789 15.8594 26.4317 16.0902 26.2689 16.3055L25.6806 17.0152C25.5335 17.1966 25.3864 17.4117 25.2078 17.5757C24.734 18.0387 24.2116 18.4517 23.6055 18.7814C23.1476 19.0122 22.6912 19.2265 22.1684 19.2775C21.792 19.2926 21.482 19.2265 21.2861 18.8804C21.1719 18.6329 21.1222 18.3688 21.1872 18.0892L21.2366 17.8525C21.3838 17.4498 21.5121 17.1791 21.6124 16.9985C21.7604 16.784 21.8906 16.5699 22.0863 16.3878C22.3153 16.1893 22.5588 16.0522 22.8552 15.9752C23.063 15.9217 23.3605 15.9419 23.4265 15.9589C23.3283 15.8762 23.2752 15.83 23.1193 15.8238C22.9403 15.8405 22.8154 15.8463 22.5949 15.9058C22.5064 15.9287 22.3483 16.0254 22.2332 16.0902C21.9986 16.2261 21.8118 16.4033 21.648 16.6056C21.643 16.6108 21.5342 16.7491 21.4748 16.8407C21.4616 16.8604 21.4354 16.9005 21.4365 16.9005C21.392 16.9712 21.3477 17.0439 21.3073 17.1112C21.3065 17.1126 21.3041 17.113 21.3035 17.1143C21.2536 17.1973 21.2 17.2882 21.151 17.3815L21.1432 17.3962C21.1432 17.3962 21.1432 17.397 21.1429 17.3978C21.0975 17.4849 21.0558 17.5737 21.0248 17.6588C20.878 18.0717 20.8943 18.4675 21.0414 18.8972C21.2041 19.2926 21.499 19.4423 21.8575 19.5246C22.1518 19.6072 22.4627 19.5246 22.7401 19.4423C22.9691 19.3598 23.1814 19.2603 23.3766 19.1613C23.7688 18.9313 24.1289 18.7154 24.5044 18.4675C24.7006 18.3358 24.8648 18.171 25.0271 17.9898C25.2234 17.8251 25.4038 17.6588 25.5662 17.4607C25.7127 17.3286 25.8119 17.1468 25.9426 16.9985L26.5901 16.1454C26.6392 16.0964 26.7051 15.9853 26.7377 15.9194C26.874 15.7103 27.0041 15.6785 27.1998 15.7281C27.4938 15.7934 28.326 15.8762 28.4746 15.8762C28.5556 15.8762 28.5887 15.8926 28.5725 15.9752C28.5231 16.206 28.4746 16.4211 28.4087 16.6344C28.3438 16.8998 28.2775 17.1639 28.2292 17.4272C28.1481 17.7916 28.0818 18.171 28.0324 18.5171L27.918 19.145C27.853 19.5404 27.8039 19.9545 27.7554 20.3503C27.7392 20.482 27.7229 20.6145 27.7229 20.7463C27.7062 20.8114 27.7062 20.8954 27.7062 20.9603C27.69 21.0759 27.6403 21.9348 27.6252 22.2156C27.6252 22.2651 27.6567 23.2062 27.6403 23.4202C27.6084 23.7178 27.7229 24.3618 27.7229 24.4108C27.7554 24.6259 27.8861 24.7406 28.0818 24.6752C28.1797 24.6422 28.2775 24.5599 28.3104 24.5109L28.6705 23.8989C28.7355 23.7845 29.0626 23.0233 29.0626 23.0233C29.1596 22.7931 29.258 22.5763 29.341 22.361C29.389 22.2452 29.5033 21.9348 29.5033 21.919C29.5033 21.8692 30.1763 20.3724 30.4186 19.6072C30.6961 18.8466 30.9573 18.0892 31.2185 17.3286L31.1702 17.2789C31.1047 17.3124 31.022 17.3286 30.9906 17.3776Z" fill="white"/>
<path fill-rule="evenodd" clip-rule="evenodd" d="M47.455 17.8843C47.8927 17.8843 48.2475 17.5258 48.2475 17.0834C48.2475 16.8782 48.1711 16.691 48.0456 16.5493C48.171 16.5076 48.3002 16.4779 48.4302 16.4613C48.4874 16.4536 48.5445 16.4505 48.6037 16.4474C49.0348 16.3782 49.4893 16.4694 49.8417 16.7259C50.098 16.8707 50.3138 17.0728 50.4486 17.3384C50.8558 18.1495 50.1588 19.0018 49.4873 19.3828C49.2638 19.509 49.0223 19.5739 48.7836 19.5821C48.6151 19.6131 48.4434 19.6209 48.2793 19.6046C47.4954 19.5257 46.773 18.8969 46.8026 18.0616C46.8077 17.9113 46.8349 17.7687 46.8804 17.6349C47.0247 17.7885 47.2288 17.8843 47.455 17.8843Z" fill="white"/>
<path d="M52.8036 41.6226C52.7329 41.6707 52.67 41.7423 52.6139 41.8085C52.5619 41.8731 51.4415 43.262 50.3716 44.5418C50.2245 44.7216 50.0749 44.8997 49.9226 45.0753C49.4397 45.6319 48.9315 46.168 48.4013 46.6832C48.3159 46.6918 48.2512 46.6578 48.2062 46.5908C48.1742 46.5019 48.1459 46.4089 48.1317 46.3221C48.1269 46.248 48.1294 46.1648 48.139 46.0743C48.1541 45.9702 48.1725 45.8676 48.193 45.766C48.2045 45.7151 48.2183 45.6511 48.2343 45.5742C48.3182 45.206 48.4186 44.849 48.4696 44.4922C48.6209 43.8208 48.7455 43.15 48.8473 42.4595C48.8486 42.4516 48.8496 42.4433 48.8509 42.4353C48.8743 42.2746 48.8979 42.1138 48.919 41.9506C49.1079 40.89 49.4818 39.9025 49.5212 38.8041C49.5286 38.5968 49.4507 38.4304 49.3383 38.2782C49.2989 38.2028 49.2289 38.158 49.1196 38.0857C48.8736 37.922 48.6946 37.9318 48.5079 38.1212C48.0947 38.5758 47.9825 39.1841 47.7568 39.7525C47.7568 39.7525 47.5685 40.5498 47.5321 40.6634C47.3446 41.4207 47.3071 42.2167 47.1183 42.9742C47.0433 43.3555 46.9693 44.1889 46.9693 44.1889C46.9693 44.1889 46.9693 44.6179 46.9728 45.0451C46.9728 45.0451 46.9002 45.7051 47.0364 46.3456C47.0834 46.6366 47.1923 46.9828 47.4642 47.2378C47.4863 47.2584 47.5081 47.279 47.5321 47.2984C47.5335 47.299 47.5348 47.2998 47.5361 47.3004C47.6627 47.4064 47.8142 47.4845 48.0002 47.5176C48.0409 47.5248 48.0834 47.53 48.1272 47.5329H48.1282C48.1371 47.5335 48.1463 47.5323 48.1553 47.5323C48.7165 47.5493 49.2998 46.9439 49.8976 46.1104C50.8036 44.8468 51.7511 43.1591 52.6493 42.1194L52.8979 41.8L52.8036 41.6226Z" fill="white"/>
<path d="M39.5569 39.4638C39.4634 39.5794 39.1416 39.452 38.975 39.4205C38.456 39.3218 38.0746 38.9012 38.0746 38.308C38.0746 37.7151 38.5054 37.235 39.037 37.235C39.3761 37.235 39.754 37.3563 39.9253 37.6516C40.0233 37.8193 40.0352 37.8979 40.0352 38.113C40.0352 38.2778 39.9187 38.651 39.8603 38.8196C39.7694 39.0819 39.7238 39.2578 39.5569 39.4638ZM47.2759 42.4039C47.2759 42.4349 47.0293 42.7103 46.9926 42.7745L46.4324 43.4751L45.4983 44.7158C45.4983 44.7158 45.2365 45.067 45.1246 45.2254L44.0793 46.5624C43.921 46.7513 43.8558 46.8172 43.7439 46.9759C43.22 47.6131 42.7351 48.2824 42.2114 48.8861C41.7644 49.396 41.346 49.9126 40.7919 50.3181C40.6425 50.4273 40.4221 50.4928 40.1201 50.5738C39.7399 49.6676 40.5375 47.78 40.8135 47.0658C41.0948 46.3384 41.6155 45.6709 42.0468 44.9832C42.4782 44.2953 42.8847 43.9521 43.2962 43.4115C43.6324 42.902 44.7896 40.9277 41.7275 40.0379C41.2408 39.8773 40.7556 39.7507 40.2694 39.6867C40.1571 39.6552 39.9715 39.6552 39.9341 39.591C39.8962 39.4959 39.9715 39.3685 40.0082 39.2728C40.1522 38.9053 40.37 38.4991 40.416 38.1449C40.4692 37.7295 40.5189 37.4185 40.4697 37.2264C40.3947 36.8675 40.2178 36.637 40.0355 36.4918C40.0355 36.4918 39.9916 36.4496 39.9645 36.4384C39.4085 36.0751 38.845 36.0767 38.2691 36.2546C38.0418 36.3533 37.4695 36.5635 37.1324 37.4002C36.8065 38.2086 37.1004 39.802 37.8454 40.5421C37.8454 40.5421 38.4888 41.0605 38.9507 41.2245C38.9507 41.2245 35.1706 53.6525 34.8703 54.4103C34.7962 54.562 34.6458 54.6767 34.5335 54.8653C34.2697 54.5986 34.0573 54.2269 34.0455 53.7001C34.014 52.9409 33.9705 52.4383 33.9705 52.4383C33.9898 51.8166 33.9852 50.127 33.9852 50.127C33.9852 50.091 34.0166 49.2399 34.0728 47.5038C34.1289 45.7677 34.5409 43.2545 34.6007 42.8238C34.6603 42.3932 35.0215 39.7747 35.1343 39.1681L35.62 37.0428C35.6968 36.5886 35.7724 36.0954 35.8849 35.6402C36.0343 34.7685 36.2588 33.8968 36.41 33.0609C36.4846 32.8336 36.522 32.5688 36.4846 32.3415C36.41 32.0756 36.1505 31.6398 36.0343 31.5824C35.9181 31.5257 35.5468 31.5456 35.3956 31.6593C35.1343 31.9623 34.9083 32.303 34.6838 32.6445C34.4962 32.8732 34.4586 33.2138 34.2697 33.4018C34.0088 33.7067 33.707 33.9714 33.3702 34.2003C33.0471 34.4111 32.724 34.6022 32.4005 34.7894L30.9148 35.6168C30.818 35.6379 30.7475 35.6771 30.7048 35.7337L30.7019 35.7352C30.7019 35.7352 30.7011 35.7374 30.7008 35.7379C30.6653 35.7879 30.6496 35.8499 30.6541 35.9239C30.6534 35.9477 30.657 35.9699 30.6642 35.9903C30.6662 36.0007 30.6659 36.0096 30.6686 36.0201L30.6784 36.0176C30.7395 36.1012 30.9355 36.0916 31.4735 35.7352C31.5464 35.6876 31.6128 35.6416 31.6751 35.5977L33.1083 34.6551L34.1955 33.8968L34.083 34.4655C33.8583 35.338 33.7269 35.6948 33.5024 36.528C33.3896 37.0208 33.2206 37.9916 33.1083 38.4828C32.9574 39.053 32.6203 42.9208 32.5823 43.1861C32.5823 43.2289 32.5801 43.2881 32.5768 43.3577C32.5287 43.8602 32.4872 44.3698 32.4545 44.884C32.4287 45.1656 32.406 45.4066 32.3944 45.5368C32.3944 45.6127 32.3944 45.8097 32.395 46.0839C32.3548 47.2066 32.3605 48.3369 32.4297 49.4447C32.4398 49.8743 32.4525 50.2581 32.4689 50.542C32.5083 50.8469 32.6203 51.7566 32.6582 51.9446L32.9952 53.5759C33.1217 54.1193 33.2766 54.6606 33.5675 55.1356C33.5685 55.1376 33.5692 55.1401 33.5702 55.1423C33.5706 55.142 33.5709 55.142 33.5714 55.142C33.6249 55.2288 33.6815 55.3142 33.745 55.3962C33.9705 55.6995 34.3823 55.8131 34.7206 55.6226C35.0215 55.4341 35.283 55.168 35.3956 54.8272C35.6605 54.1447 39.2907 41.4803 39.3221 41.3248C40.2258 41.4995 42.1307 41.8275 41.3158 42.5195C41.1387 42.6799 40.591 43.2999 40.2694 43.7928C39.9476 44.2857 39.4117 45.4486 39.3361 45.735L39.0852 46.4204C39.0477 46.5491 38.8508 47.1367 38.8135 47.358C38.7016 47.9005 38.6272 48.4411 38.5901 48.9817C38.5522 49.7451 38.6637 50.4782 39.2996 51.1154C39.4852 51.2741 39.6715 51.3062 39.8962 51.3062C40.4563 51.2741 40.9036 51.0512 41.2781 50.7332C41.4275 50.5738 41.8006 50.2556 41.8397 50.2224C42.0628 50.0008 42.2878 49.7768 42.4727 49.5549C42.8847 49.0769 43.22 48.599 43.5945 48.1216C43.9299 47.6773 44.3045 47.2323 44.6761 46.7854L46.0591 44.9071C46.418 44.3438 46.7687 43.8559 46.9926 43.5701C47.3299 43.1877 47.5908 42.7745 47.927 42.3935C48.2624 42.0107 48.5994 41.4693 48.9724 41.0869C49.0135 41.0441 47.8681 41.8741 47.2759 42.4039Z" fill="white"/>
<path d="M54.1912 13.8005C55.6657 13.6861 58.3358 11.6101 58.3358 11.6101L55.7257 12.5909C53.1153 13.5716 51.8148 13.3919 51.8148 13.3919" fill="white"/>
<path d="M50.8053 13.5033C52.4151 13.1843 55.0877 10.4531 55.0877 10.4531L52.339 11.9146C49.5898 13.376 48.1335 13.3337 48.1335 13.3337" fill="white"/>
<path d="M48.0059 13.4751C49.3314 12.8136 51.0798 10 51.0798 10L49.005 11.8438C46.9299 13.6876 45.6628 14.0283 45.6628 14.0283" fill="white"/>
<path d="M45.1252 14.2742C46.3317 13.4112 47.6225 10.3555 47.6225 10.3555L45.859 12.5046C44.0953 14.6544 42.8965 15.1912 42.8965 15.1912" fill="white"/>
<path d="M42.4409 16.2005C43.4956 15.1537 44.2866 11.9287 44.2866 11.9287L42.8855 14.3352C41.4844 16.7421 40.386 17.4657 40.386 17.4657" fill="white"/>
<path d="M53.1602 41.4017C53.1602 41.4017 53.2914 41.276 53.4448 41.0824C53.5982 40.8887 53.7197 41.0017 53.7293 41.0049C53.7388 41.0082 53.822 41.0824 53.822 41.0824L53.3582 41.4894L53.1602 41.4181" fill="white"/>
<path d="M53.3289 49.0693C52.9268 48.9885 52.5958 48.5288 52.5093 48.1328C52.4466 47.6089 52.5891 47.0849 52.7188 46.5821C52.9087 46.0817 53.1661 45.6112 53.4018 45.2846C53.4315 45.2488 53.5685 45.0831 53.6407 44.9954C54.3684 44.2643 54.9901 43.7991 54.9917 43.7981C55.04 43.795 56.9745 44.8249 56.376 47.0119C56.3337 47.1757 56.2898 47.3391 56.2372 47.5004C56.1361 47.7675 55.9897 48.0444 55.7874 48.3293C55.4492 48.6895 54.8151 49.221 53.3289 49.0693ZM58.2237 41.3843L55.7506 42.6416C55.6713 42.6858 55.4435 42.8231 55.3861 42.8242C55.2966 42.8262 55.3156 42.8639 55.0357 42.6579C54.7558 42.4518 54.2702 42.2803 53.6857 40.7067C53.1012 39.133 53.6915 38.5361 53.6915 38.5361C53.6915 38.5361 53.4134 38.6594 53.2714 38.7564C52.9932 38.9464 52.8142 39.0791 52.6446 39.3319C52.3736 39.7262 52.2395 40.1479 52.2728 40.5415C52.3067 41.0474 52.4421 41.5254 52.8142 41.9463C52.9826 42.1718 53.3365 42.5304 53.4225 42.5939C53.5087 42.6573 53.6763 42.7991 53.7447 42.858C53.8131 42.9171 54.0837 43.1034 54.2567 43.2055C54.413 43.2979 54.5969 43.3531 54.6073 43.4251C54.618 43.5009 54.2858 43.7058 54.2613 43.7275C54.0461 43.8735 50.6257 46.2471 51.869 48.6066C52.1504 49.4504 53.5487 49.6731 53.9127 49.6671C54.1213 49.6637 54.4022 49.6297 54.6843 49.5753C54.684 49.5753 54.6831 49.576 54.6828 49.5761C54.6682 49.5806 54.6789 49.5784 54.7073 49.5705C54.9348 49.5256 55.1614 49.4676 55.3501 49.3993C55.478 49.3528 55.8105 49.1548 55.8309 49.1443C57.1558 48.4026 57.5114 47.5181 57.6053 45.7291C57.6492 44.6254 56.438 43.5271 55.8206 43.0411C55.8168 43.0325 55.8141 43.0243 55.8141 43.0166C55.8137 42.9541 55.9096 42.9116 56.0499 42.856L57.0263 42.3298C57.197 42.2452 57.943 41.7853 58.1688 41.6619C58.3499 41.5626 58.5972 41.3553 58.5972 41.216C58.4262 41.2718 58.3248 41.3287 58.2237 41.3843Z" fill="white"/>
<path d="M6.37183 31.3496V31.9246C6.37183 31.9246 7.64053 32.3377 8.34038 31.7081C9.01951 31.0971 9.29896 29.8685 9.26062 29.1958C9.26062 29.1958 8.4485 32.4344 6.37183 31.3157" fill="white"/>
<path d="M49.507 26.7435L49.4519 26.6736L48.8674 25.8238C48.7823 25.652 48.2923 25.1889 48.3582 24.9268C48.4176 24.6903 48.6858 24.5136 48.8515 24.5675C49.4279 24.7538 49.4952 25.3188 49.5702 25.8176C49.6306 26.2199 49.5756 26.4661 49.507 26.7435ZM59.2514 39.3137C59.0648 39.678 58.8363 39.6657 58.6497 39.3424C58.2353 38.6642 57.8554 37.9433 57.4792 37.2611C56.9522 36.2504 56.4645 35.2382 55.8731 34.3121C55.3222 33.4202 54.7013 32.5733 54.1177 31.7235C53.9438 31.5133 53.8861 31.3287 53.9734 31.0911L54.9436 28.2359C55.1774 27.5981 55.4872 26.991 55.6838 26.3605C55.9737 25.5648 56.2232 24.7352 56.4356 23.911C56.5113 23.559 56.511 23.2157 56.5102 22.8731C56.5014 22.797 56.3726 22.6588 56.3356 22.6633C56.1841 22.6416 55.9967 22.6625 55.9292 22.7457C55.7611 22.9173 55.6694 23.1177 55.5781 23.3198C55.5781 23.3198 55.0131 24.7182 54.9021 25.0741C54.7545 25.4705 54.6841 25.861 54.5775 26.2553L53.7501 28.7122C53.5528 29.3074 53.37 30.0309 53.2113 30.659C53.0872 30.5584 52.2551 29.5794 51.8691 29.1639C51.3168 28.5782 50.7628 27.9757 50.1714 27.3946C50.0892 27.3281 49.9855 27.2675 49.9733 27.155C49.9976 26.6942 50.1139 26.1807 50.0683 25.7655C49.9418 24.9408 49.6397 24.2485 48.9116 23.7961C48.8266 23.7299 48.6326 23.6744 48.5254 23.725C48.0851 23.8496 47.8578 24.1813 47.6743 24.5823C47.4388 25.1824 47.6536 25.7686 47.8312 26.3586C48.1095 27.1669 48.5641 27.8778 49.1639 28.5362C49.5533 28.9895 51.011 30.9256 51.3254 31.387C51.3254 31.387 51.8231 32.0471 51.8958 32.1235C52.3996 32.6513 52.5387 32.816 52.2671 33.4552C52.1565 33.8111 51.9298 34.1422 51.7413 34.5061C51.2892 35.2047 50.791 35.8705 50.1734 36.4366C49.8794 36.6971 49.7348 36.9257 49.2098 37.0801C49.1506 37.0879 49.0812 37.0944 49.0053 37.0975L48.8024 37.0962C48.3685 37.0733 47.8869 36.997 47.5756 36.3712C47.5756 36.3712 47.9561 37.4554 48.5552 37.5149C49.1542 37.5742 49.6691 37.5014 50.0892 37.3605C50.8814 37.006 51.4051 36.2605 51.9343 35.5908C52.134 35.3398 52.2838 34.9799 52.4748 34.6535C52.6657 34.326 52.8607 34.0379 53.0763 33.5938C53.3456 33.9842 53.5324 34.3066 53.7179 34.629L54.8065 36.301C54.8941 36.4046 54.9467 36.5514 55.039 36.694C55.3978 37.2253 55.8294 37.7122 56.1551 38.285C56.632 39.1879 57.6442 40.3073 58.0975 40.5115C58.5973 40.7369 59.3366 40.496 59.6166 40.1602C60.1477 39.5233 60.722 37.5815 61.1996 35.6737C61.8008 33.2727 62.2476 30.8947 62.2476 30.8947C62.2476 30.8947 60.9183 35.648 59.2514 39.3137Z" fill="white"/>
<path d="M49.3421 27.5048C49.0873 27.9519 48.828 28.3608 48.6455 28.7641C48.2883 29.6435 47.9534 30.5685 47.6343 31.4419L46.5294 34.8095C46.3597 35.3238 46.1521 35.8419 45.9071 36.3663C45.7861 36.6462 45.5094 37.1603 45.4663 37.1775C45.4234 37.1949 45.3917 37.1816 45.3501 37.1518C45.3084 37.1222 45.2179 36.8866 45.1936 36.75C45.1694 36.6137 45.2028 36.1386 45.2065 35.8334C45.1861 35.6462 45.2174 35.2889 45.1975 35.0992C45.2306 34.7153 45.2114 34.4987 45.2081 34.1158C45.3082 32.6166 45.3343 31.1265 45.4728 29.6237C45.5513 28.279 45.7426 26.9234 45.8926 25.5321C45.9301 24.8412 46.1559 24.1296 45.7039 23.4558C45.5713 23.2788 45.2154 22.7847 44.9923 22.8095C44.8805 22.8228 44.7355 22.878 44.6308 22.965L44.3286 23.303C44.1999 23.5085 44.0716 23.7139 43.9844 23.9524C43.8302 24.274 43.9101 24.647 43.7972 25.0047C43.693 25.4336 43.7469 25.926 43.647 26.3942C43.6013 26.6661 43.6351 26.9679 43.5518 27.2433C43.5518 27.2433 42.7179 29.7325 40.9288 32.2674C40.4892 32.899 40.4395 32.9705 40.4395 32.9705C39.9503 32.6427 39.8512 32.0814 39.6854 31.6048C39.6328 31.4579 39.6339 30.4985 39.675 29.7743C39.6878 29.5468 40.3394 23.6471 40.267 23.4521C40.2825 23.4932 39.5835 23.4132 39.4513 23.5818C39.4346 23.5964 39.4205 23.61 39.4044 23.6241C39.247 23.7347 39.0388 23.9343 38.8237 24.2902C38.8178 24.2998 38.8121 24.31 38.8064 24.3198C38.5691 24.7206 38.3259 25.3148 38.1339 26.1915C38.1288 26.2102 38.1225 26.2284 38.1176 26.2474C38.1121 26.2736 38.1093 26.2995 38.1044 26.3256C38.0132 26.7688 37.9352 27.2816 37.8771 27.8733C37.8438 28.0723 37.8107 28.271 37.7938 28.4583C37.7773 28.7084 37.7719 29.6992 37.7687 29.9653C37.7687 29.9653 37.7688 30.0113 37.7705 30.091C37.765 30.64 37.8095 31.1757 37.9055 31.7019C38.0452 32.6459 38.3277 33.7039 38.8998 34.1207C38.9004 34.121 38.901 34.1212 38.9016 34.1218C39.0773 34.2782 39.2848 34.3924 39.5282 34.4606C39.6671 34.5082 39.796 34.5313 39.9161 34.5361C41.0216 34.5364 42.2225 31.9698 42.8932 30.2812C42.8932 30.2812 43.3456 29.0045 43.4237 28.8366C43.5073 28.6567 43.6219 28.2047 43.6524 28.1227C43.636 28.6948 43.5449 30.3012 43.5449 30.3012C43.5449 30.3012 43.4309 32.7126 43.5214 33.8847C43.5884 34.8312 43.6915 35.7736 44.0176 36.6915C44.1952 37.2807 44.4009 37.7932 44.7906 38.2445C45.1384 38.6636 45.5194 38.6982 45.8475 38.2411C46.1752 37.7854 46.5028 37.3305 46.6722 36.8153C47.1338 35.504 47.4751 34.1313 47.8942 32.7864L48.5941 30.5724L49.3272 28.6207L49.4231 28.4133C49.8708 28.3637 49.6231 28.0071 49.3421 27.5048Z" fill="white"/>
<path d="M22.0238 40.1138C22.0238 40.1138 21.6882 42.1743 21.5602 42.6405C21.4319 43.1069 22.9976 42.0992 22.9976 42.0992L23.4695 40.1547L22.0238 40.1138Z" fill="white"/>
<path d="M53.062 38.9106C53.062 38.9106 53.952 38.1048 54.6373 38.5743C54.6373 38.5743 53.6099 38.3262 53.4354 39.262C53.2434 40.2909 53.0204 40.3278 53.0079 40.2186C52.9954 40.1092 53.062 38.9106 53.062 38.9106Z" fill="white"/>
<path d="M54.6378 38.5738C54.6378 38.5738 53.0605 38.3001 53.5186 40.1617C53.9767 42.0232 52.7642 40.4976 52.7642 40.4976C52.7642 40.4976 53.1237 39.2431 53.1237 39.2285C53.1237 39.2139 53.3681 38.8264 53.3824 38.812C53.3968 38.7975 53.6263 38.657 53.701 38.6327C53.7755 38.6085 54.1062 38.5597 54.1062 38.5597L54.3842 38.4971" fill="white"/>
</svg>
