<svg xmlns="http://www.w3.org/2000/svg" width="66" height="66" fill="none"><rect width="66" height="66" fill="#F9AD19" rx="10"/><path fill="#fff" d="M22.268 37.878c-.041.429-.113.873-.152 1.547-.104.88-.212 1.278-.295 1.896-.022.157-.51 2.641-.656 3.123s-.76 2.116-1.25 2.817l-1.228 1.893c-.722.998-1.613 1.82-2.513 2.57-.24.218-.49.36-.49.36-1.633 1.289-3.055 1.487-4.254 1.31-1.2-.176-1.894-.847-2.25-1.253a7.4 7.4 0 0 1-.973-1.474 11 11 0 0 1-.32-1.023c-.02-.187-.081-1.263-.086-1.302a7 7 0 0 1 .093-1.575q.029-.11.05-.23c.13-.89.536-1.662.984-2.398.381-.651.813-1.197 1.405-1.644.594-.448 1.267-.892 1.879-1.125.61-.233.831-.266 1.424-.369.109-.009.688-.049.87-.003a26 26 0 0 0-1.897 1.929c-1.013 1.106-1.784 2.337-1.914 3.914-.084.963.36 1.993.722 2.343s.98.418 1.303.293c.324-.125.963-.463 1.307-.736.345-.273.93-.81 1.237-1.21.307-.402 1.126-1.783 1.379-2.573a6.6 6.6 0 0 0 .25-1.516c-.008-1.106-.48-1.969-1.424-2.665.207-.176 1.26-.94 3.084-2.175 1.127-.735 2.33-1.48 3.499-2.184.07-.045.35-.214.35-.214.028.263-.067 1.018-.134 1.674m-7.036 3.504c.646.685.895 1.124.952 1.796.045 1.1-.137 1.845-.515 2.536-.22.407-.403.807-.631 1.14-.627.832-1.335 1.598-2.343 2.054-.613.258-1.15-.183-1.335-.725-.137-.401-.22-.421-.222-1.086s.188-1.395.495-2.038c.593-1.135 1.393-2.1 2.315-3.007.236-.254.708-.598 1.022-.825.071-.045.189.077.262.155m14.866-11.126c-.58.56-1.248 1.016-1.876 1.47l-1.917 1.471s-2.017 1.494-2.053 1.473c-.035-.02.035-.192.037-.218.003-.026.497-3.414.573-5.138l.291-1.825.204-1.243.067-.428c.017-.193.444-2.834.524-3.491.1-.47.24-.905.261-1.403.043-.31-.002-.843-.065-.947s-.292-.229-.473-.177c-.18.052-.75 1.077-.808 1.235-.216.445-.395.885-.569 1.362-.148.36-.256.753-.364 1.147-.079.313-.32 1.496-.457 2.006-.02.084-.164.162-.32.355-.162.136-.382.423-.524.671-.596.863-1.36 2.163-1.36 2.163l-.016.025-1.443 2.334c-1.005 1.522-2.008 3.049-3.131 4.509a8.8 8.8 0 0 1-1.664 1.71c-.38.31-.733.196-.966-.197-.223-.319-.104-2.222-.085-3.21 0 0 .179-1.512.29-2.686l.435-2.415c.12-.625.153-1.224.25-1.902 0 0 .028-.66.05-.813.053-.542.076-.76.093-1.296.038-.691.108-1.425.104-2.148a9 9 0 0 0-.355-2.212c-.185-.658-.446-1.324-.955-1.839-.592-.583-1.305-.884-2.133-.868-.303-.004-.63.108-.962.184q-.698.17-1.361.458l-.002-.001s-.355.116-.967.497q-.484.285-.932.631a19 19 0 0 0-2.056 1.908c-.385.403-.75.835-1.05 1.309l-.001.001c-2.85 3.642-.904 8.485 1.583 9.122 1.083.257 1.403.228 1.41.108.01-.166-4.059-1.625-3.841-5.431q.035-.43.09-.858a7.7 7.7 0 0 1 .747-2.25l.158-.26c.321-.528.663-1.058 1.07-1.54.999-1.124 2.49-2.214 4.72-2.921q.138-.04.283-.07c1.176-.282 1.901.13 2.22 1.317.039.152.097.327.148.497.161.892.252 2.374.054 4.812-.09.487-.168 1.387-.217 2.105q-.074.593-.165 1.245s-1.136 5.768-.133 7.874c.15.347.333.654.442.813.348.635.957 1.167 1.62 1.076.33-.076.608-.297.886-.52.412-.389.78-.81 1.149-1.235.103-.087.302-.412.405-.5.237-.254.262-.298.458-.587.589-.828 1.095-1.725 1.642-2.586l1.324-2.056 1.41-2.293.344-.607c.502-.783.89-1.265 1.128-1.53-.012.287-.733 5.793-.765 6.177 0 0-.208 2.357-.2 2.585.018.567-.085.69-.479.886l-1.844 1.085c-.639.374-1.273.79-1.87 1.2-.6.372-1.203.744-1.8 1.155l-1.152.852c-.14.093-.14.093-.227.144-.343-.039-.832-.294-2.076.05-.402.122-.784.228-1.14.42-1.036.535-1.936 1.283-2.708 2.172-.607.734-1.025 1.547-1.343 2.423-.056.153-.136.403-.202.616-.034.062-.16.63-.15.698-.041.345-.058.694-.064.978-.013.04-.006.435.002.59v.015c.019.368.04.723.08 1.085.044.413.278 1.122.52 1.657.242.536 1.546 2.5 3.316 2.758 2.025.284 3.459-.563 3.459-.563.758-.313 1.229-.623 1.671-1.007.25-.15.434-.364.6-.478.634-.436.99-.76 1.426-1.268l.965-1.175c.46-.623.957-1.25 1.381-1.87.32-.533.64-1.063.884-1.588.186-.364.529-1.139.579-1.374.71-2.057 1.065-3.616 1.106-3.926.163-.59.288-1.177.412-1.762.147-.74.254-1.478.362-2.214.018-.194.051-.71.08-.968.005-.414.037-.438.036-.652.38-.29.426-.286.682-.52l.302-.235c1.053-.727 2.142-1.613 3.207-2.326.989-.788 1.614-1.274 1.822-1.45.693-.575.62-.6 1.27-1.206.071-.046-.838.368-1.392.849M55.605 18.842c-.38.37-.793.71-1.217 1.026-.706.524-1.468.952-2.276 1.28.51-.625.838-1.42.972-2.208a4.7 4.7 0 0 0-.49-3.012 7 7 0 0 0-.268-.445q.4.17.791.363c.517.257 1.025.525 1.533.795q.476.335.96.656a18 18 0 0 0 .935.579c-.329.307-.617.646-.94.966m-4.526 2.232c-.3.253-.648.454-1.015.586-.154.053-.328.092-.493.147a10 10 0 0 1-1.345.07 4 4 0 0 1-.33-.038c-.506-.085-.949-.238-1.373-.533-.433-.3-.87-.706-1.063-1.21a4.7 4.7 0 0 1-.304-1.544c-.053-1.96 1.503-3.907 3.506-3.99h.007q.77-.013 1.534.092.224.083.447.17c.389.438.82.837 1.116 1.362.45.79.656 1.71.553 2.616-.103.909-.546 1.69-1.24 2.272m11.568-3.097c-.005-.046-.14-.086-.303-.117-.929-.177-1.858-.397-2.715-.813-.917-.445-1.75-1.068-2.624-1.59q-.097-.067-.187-.126a7.3 7.3 0 0 0 2.403-.582c.648-.264 1.776-.865 1.803-.905 0 0-2.238.558-4.39.408-1.165-.076-2.228-.6-3.351-.893-1.76-.461-3.536-.875-5.362-.683-1.6.169-3.162.716-4.526 1.578-.83.525-1.59 1.17-2.236 1.915-.624.72-1.261 1.633-1.194 2.637.008.097.141.081.18.018q.04-.07.09-.137c.27-.368.614-.674.964-.964.357-.3.693-.627 1.065-.912a10.5 10.5 0 0 1 1.645-1.034 10.4 10.4 0 0 1 1.765-.705c-1.002.762-1.528 2.083-1.42 3.345.11 1.262.82 2.44 1.824 3.195-1.361-.268-2.564-.97-3.752-1.657a7 7 0 0 1-1.573-1.208c-.051-.055-.139-.173-.218-.183-.197-.026-.014.296.018.357.638 1.21 1.724 2.05 2.912 2.666q.065.032.13.067l.267.13c1.135.537 2.371.897 3.617 1.047 2.565.309 5.145-.304 7.365-1.62a10 10 0 0 0 1.63-1.202c.495-.446 1.023-.916 1.326-1.52-.012.023 1.155.289 1.268.304q.69.09 1.384.03a6.6 6.6 0 0 0 1.228-.222c.287-.081.95-.196.968-.588zM32.477 18.846l-.458.414a.4.4 0 0 1-.23.017c-.407-.05-.619-.297-.702-.694a3.6 3.6 0 0 1-.065-1.503c.033-.18.033-.363.065-.544.034-.165.197-.792.245-.941.05-.132.23-.496.23-.496s.26-.445.473-.593c.066-.067.23-.017.36-.017-.033.347-.883 2.022-.74 3.031.061.338.086.403.102.47.05.213.066.461.262.626l.282-.252s.224-.275.273-.342c.099-.116.213-.248.294-.38l.768-1.353c.049-.116.213-.958.213-.958s.047-.301.13-.446c.05-.1.115-.182.18-.264l.147-.132a.3.3 0 0 1 .164-.05c.097 0 .227.232.277.314.163.313.032.61-.016.908-.13.594-.278 1.172-.376 1.75-.13.644-.213 1.287-.327 1.93-.016.167-.069.663-.081.745-.019.122-.05.264-.05.396 0 .05.033.115.05.18.016 0 .032.018.049.018.081-.116.163-.215.228-.33q.196-.323.343-.644l.637-1.404c.181-.363.344-.743.54-1.106.098-.165.244-.313.375-.495.099.23.034.38-.163.38l.114.082-.41.809-.407.925c-.245.562-.457 1.14-.718 1.684-.098.215-.262.396-.425.576-.163.184-.327.15-.457-.049-.148-.213-.214-.445-.262-.71-.099-.411-.099-.825-.082-1.237.017-.512.099-1.024.164-1.552 0-.05.13-.505.112-.682l-.16.265-.54 1.095c-.065.131-.147.246-.229.362-.048.066-.18.197-.18.197"/><path fill="#fff" d="m36.136 16.454.029.026a.9.9 0 0 0 .068-.34c.002-.225.009-.599-.254-.613-.05-.002-.087-.035-.153.102-.067.136.31.825.31.825m.587 2.13c-.114-.215-.257-.407-.354-.622 0-.017-.299-.502-.445-.717a2.7 2.7 0 0 1-.474-1.007c-.05-.263-.114-.527.017-.775.097-.165.21-.297.408-.33.049-.017.13.017.163.05.294.23.392.545.408.907 0 .183-.049.364-.082.562 0 .05.018.116.05.148.228.28.456.546.67.825.146.2.277.397.408.595.033.016.049.05.097.1.099-.265.196-.529.312-.776l.473-1.024c.065-.165.115-.33.196-.495.066-.149.163-.281.245-.43l.131-.297a.8.8 0 0 1 .18-.232c.032-.032.114-.032.179-.015.017 0 .066.065.066.099-.017.148-.033.297-.082.445-.13.347-.277.694-.442 1.023-.114.265-.277.513-.408.777l-.556 1.188c-.048.1-.032.181.033.282.212.395.442.792.637 1.204.213.43.376.891.555 1.353.132.314.263.646.41.959.066.148.127.133.261.016.317-.276.522-.535.573-.535.047 0-.219.628-.375.78-.078.081-.302.265-.393.267-.093 0-.262.032-.361-.05-.343-.28-.571-.644-.734-1.057-.115-.264-.28-.495-.41-.743-.03-.066-.048-.132-.08-.18l-.393-.776c-.065-.149-.13-.298-.229-.48-.114.182-.212.297-.31.43-.097.132-.18.28-.277.38-.262.264-.524.56-.883.676-.18.066-.375.066-.571.083-.049 0-.115-.083-.131-.133-.034-.099 0-.148.114-.132h.13c.212.033.36-.116.523-.23q.441-.322.785-.743c.098-.149.194-.291.277-.43.16-.265.15-.3-.026-.512-.03-.036-.153-.23-.153-.214zM31.83 27.403l.302-.218c.361-.23.643-.437 1.025-.773.447-.395.89-.92 1.158-1.515.144-.32.053-.73-.144-.866-.326-.298-.708-.259-1.022-.002-.473.388-.94 1.016-1.083 1.604-.105.43-.236 1.77-.236 1.77m6.79-2.407c-.074.657-.208.702-.565 1.21-.05.094-.011.016-.05.094-.301.607-.816 1.577-1.105 2.019-.453.69-.71 1.23-1.315 1.817-.726.703-1.575 1.28-2.62 1.325-.5.035-1 .07-1.471-.062-.481-.168-.937-.503-1.198-.977-.182-.401-.335-.667-.436-1.055-.102-.387-.318-2.478.068-3.668.102-.312.447-1.005.465-1.038.5-.897.966-1.17 1.606-1.585.332-.216.88-.373.918-.38.648-.112.955-.04 1.378.185.456.216.685.608.72 1.087.036.513-.168 1.003-.392 1.43-.484.862-1.262 1.54-2.095 2.153-.036.011-.06.059-.096.07-.712.378-.712.378-.624 1.184.031.228.024.468.09.686.23.76 1.121 1.24 1.888.924.492-.192 1.069-.368 1.444-.803.493-.571 1.075-1.113 1.443-1.738.373-.633 1.603-2.85 1.947-2.878M30.83 32.63c.001.238-.13.764-.361 1.192-.071.13-.09.221-.136.336-.093.186-.16.373-.275.534-.093.117-.23.093-.322-.07-.161-.23-.138-.487-.069-.743.115-.37.138-.765.207-1.16.046-.231.117-.613.206-.695.09-.082.322-.093.46-.093.045-.023.16.023.16.07 0 0 .13.503.13.628M48.805 34.49c.042-.308.186-.644.413-.91.15-.229.524-.229.675 0 .15.19.263.494.224.758-.074.493-.262 1.023-.412 1.517-.038.113-.188.266-.263.266-.15 0-.339-.077-.412-.19-.112-.152-.152-.379-.225-.606 0 0-.057-.418 0-.835M23.627 43.569c-.025.28-.08.578-.16.965-.07.065-.131.14-.221.236-.48.507-1.044.923-1.57 1.34-.263.188-.6.265-.938.342-.3.074-.562-.191-.562-.532-.004-1.131.289-2.101.763-2.884.288-.475.399-.633.758-1.03.383-.423.803-.408 1.442.009l.657.381c-.073.562-.094.794-.169 1.173m3.491-5.042c.19-.751.196-.833.435-1.591.24-.759.374-1.069.727-1.633.038 0 .076.037.112.037.039.304.169.376.076.91-.108.737-.442 1.611-.75 2.237-.136.272-.28.627-.433.91-.156.29-.258.44-.354.567s-.19.192-.19.192h-.075c.15-.531.36-1.266.452-1.63m-1.615 6.748c.15-.758.302-1.516.488-2.275 0-.075.225-.91.263-1.024l.3-.833c.179-.364.428-.692.646-1.018l.001-.001.005-.008.024-.036.001-.008c.107-.197.422-.756.422-.756a4.6 4.6 0 0 0 .402-.829c.301-.605.6-1.212.826-1.856q.281-.968-.113-1.935a1.4 1.4 0 0 0-.376-.454c-.412-.228-1.274 0-1.613.492-.337.455-.637.947-.938 1.479a60 60 0 0 0-.976 2.274 22 22 0 0 0-.675 2.048c-.112.418-.225.872-.299 1.327-.19-.15-.264-.341-.376-.492-.3-.531-.713-1.063-1.313-1.063-.975-.037-1.84.304-2.477 1.1-.525.683-.862 1.442-1.126 2.275-.186.645-.186 1.289-.074 1.934.03.512.379 1.064.556 1.292s.606.567.644.567c.717.26 1.35.075 1.913-.38.564-.456 1.088-.948 1.614-1.402.063.502-.05 1.721.172 3.105.19 1.057.496 1.835.616 2.012.254.254.675.342.9.077.26-.307.488-.645.675-.986.675-1.1 1.314-2.276 1.953-3.412.113-.191.15-.419.299-.606.06-.075.574-1.047.574-1.047l.4-.622c0-.039-.073-.153-.111-.153-.075-.037-.186 0-.225.076-.104.141-.977 1.632-1.125 1.86l-1.427 2.425c-.261.455-.563.91-.862 1.365-.075.114-.226.19-.413.303 0-.113-.037-.15 0-.19l.338-2.046c.036-.342.374-2.085.487-2.579M19.098 19.854v.002q.009-.01 0-.002M31.4 16.669c-.116.065-.28.346-.262.462l.049.05c.08-.183.162-.348.212-.512"/><path fill="#fff" d="M28.556 15.546c-.392-.066-.769-.099-1.176-.165-.05 0-.098-.034-.148-.067.834-1.122 1.602-2.245 2.565-3.252l-.032.149-.392 1.188c-.05.166-.196.612-.213.678-.082.214-.114.445-.196.66-.048.165-.113.33-.146.478l-.05.149c-.017.116-.08.198-.212.182m2.435 1.832-.23.66c-.016.083-.037.104-.1.274-.065.171-.161.37-.161.37l-.278.76c-.064.148-.326.793-.392.974-.098.264-.213.528-.294.776-.016.05-.229.53-.262.594l-.172.491c-.032.099-.09.213-.14.296l-.536.964-.197.28c-.016-.016-.016-.016-.032-.016.032-.248.049-.496.065-.744-.017-.017.112-.943.18-1.502 0-.05.18-1.221.195-1.271.017-.05.05-.412.082-.561l.147-.677c.082-.348.13-.694.212-1.04.1-.38.229-.743.327-1.122l.082-.381c.033-.115.062-.23.082-.38.034-.174.063-.353.122-.39a.9.9 0 0 1 .27-.088c.081-.016.13-.033.212-.066.214-.099.457-.33.441-.644-.26.148-.49.347-.817.429.066-.264.31-1.106.31-1.172.017-.05.115-.429.131-.478.083-.331.164-.645.229-.958.049-.198.115-1.204-.016-1.486-.05-.133-.114-.182-.23-.133a.75.75 0 0 0-.26.182c-.245.348-.441.693-.686 1.007l-1.095 1.42c-.114.15-.245.33-.376.479l-.164.281-.358.429-.23.297c-.016.016-.08.016-.113 0-.148-.05-.426-.132-.426-.132s-1.077-.33-1.633-.478c-.342-.066-1.355-.265-1.52-.265-.325-.016-.602-.027-1.29.082-.19.041-.31.117-.457.15-.343.099-.653.263-.964.428-.18.083-.637.414-.67.463-.457.363-.768.81-1.012 1.304a4.9 4.9 0 0 0-.367 1.395c-.02.21-.026.487.023.818 0 .065.127.465.127.465.114.327.56.887.756 1.003s.358.05.358.033c-.065-.016-.097-.038-.228-.122 0 0-.228-.158-.343-.307-.17-.224-.212-.38-.245-.43a2.2 2.2 0 0 1-.196-.642c-.118-.8-.041-1.267.115-1.751.126-.39.44-.973.833-1.353.048-.034.294-.281.326-.298.514-.414 1.078-.627 1.651-.825 0 0 .565-.208 1.355-.181.36.016 1.225.23 1.34.263.195.067.393.116.572.182.26.066.522.165.784.264.31.1.604.214.93.314-.18.247-.326.478-.49.693l-.587.71c-.148.182-.295.397-.473.56a7.2 7.2 0 0 1-1.602 1.206c-.458.231-.915.446-1.438.497-.376.015-.686-.051-.882-.398a1.2 1.2 0 0 1-.099-.79l.05-.238c.147-.402.275-.673.375-.854.148-.214.279-.428.474-.61.23-.199.473-.336.77-.413.207-.053.504-.033.57-.016-.098-.083-.15-.129-.307-.135-.179.017-.304.022-.524.082-.089.023-.247.12-.362.184a2.1 2.1 0 0 0-.585.516 3.6 3.6 0 0 0-.34.505l-.005.003q-.077.126-.152.267l-.008.015v.002a2 2 0 0 0-.118.26c-.147.414-.13.81.016 1.24.163.395.458.544.817.627.294.082.605 0 .882-.083.23-.082.441-.182.637-.28.392-.23.752-.447 1.127-.694.197-.132.36-.297.523-.478.196-.165.377-.331.54-.53.146-.131.245-.313.376-.462l.647-.853c.05-.049.115-.16.148-.226.136-.209.266-.24.462-.19.294.064 1.126.147 1.275.147.08 0 .114.017.098.1-.05.23-.098.445-.164.658-.065.266-.131.53-.18.793-.08.365-.147.744-.197 1.09l-.114.628c-.065.395-.114.81-.163 1.205-.016.132-.032.264-.032.396-.017.065-.017.15-.017.214-.016.116-.066.975-.08 1.256 0 .05.03.99.014 1.204-.032.298.083.942.083.99.032.216.163.33.359.265a.5.5 0 0 0 .228-.164l.36-.612c.065-.114.393-.876.393-.876.097-.23.195-.447.278-.662.048-.116.162-.426.162-.442 0-.05.673-1.547.916-2.312.277-.76.538-1.518.8-2.278l-.049-.05c-.065.033-.148.05-.18.099"/><path fill="#fff" fill-rule="evenodd" d="M47.455 17.884a.803.803 0 0 0 .59-1.335 2 2 0 0 1 .559-.102c.43-.069.885.022 1.238.279.256.145.472.347.607.612.407.811-.29 1.664-.962 2.045a1.54 1.54 0 0 1-.703.2c-.169.03-.34.038-.505.022-.784-.08-1.506-.708-1.476-1.543q.008-.225.077-.427c.145.153.349.25.575.25" clip-rule="evenodd"/><path fill="#fff" d="M52.804 41.623a1 1 0 0 0-.19.186 228 228 0 0 1-2.691 3.266 26 26 0 0 1-1.522 1.608.2.2 0 0 1-.195-.092 1.6 1.6 0 0 1-.074-.269 1.5 1.5 0 0 1 .007-.248 6 6 0 0 1 .095-.5c.084-.368.185-.725.236-1.082.15-.671.276-1.342.377-2.032l.004-.025q.036-.24.068-.484c.189-1.061.563-2.048.602-3.147a.8.8 0 0 0-.183-.526c-.04-.075-.11-.12-.218-.192-.246-.164-.425-.154-.612.035-.413.455-.526 1.063-.751 1.631 0 0-.188.798-.225.911-.187.758-.225 1.554-.414 2.311-.075.382-.149 1.215-.149 1.215s0 .429.004.856c0 0-.073.66.063 1.3.047.292.156.638.428.893q.032.03.068.06l.004.002a.98.98 0 0 0 .591.233h.028c.562.016 1.145-.59 1.743-1.423.906-1.263 1.853-2.95 2.751-3.99l.249-.32z"/><path fill="#fff" d="M39.557 39.464c-.094.115-.415-.012-.582-.044-.519-.098-.9-.519-.9-1.112s.43-1.073.962-1.073c.34 0 .717.121.888.417.098.167.11.246.11.461 0 .165-.116.538-.175.707-.09.262-.136.438-.303.644m7.719 2.94c0 .03-.247.306-.283.37l-.56.701-.935 1.24s-.261.352-.373.51l-1.046 1.337c-.158.19-.223.255-.335.414-.524.637-1.009 1.306-1.533 1.91-.447.51-.865 1.027-1.42 1.432-.148.11-.369.175-.67.256-.381-.906.416-2.794.692-3.508.282-.728.802-1.395 1.234-2.083s.838-1.03 1.25-1.572c.335-.509 1.493-2.483-1.57-3.373a8 8 0 0 0-1.458-.351c-.112-.032-.297-.032-.335-.096-.038-.095.038-.223.074-.318.144-.368.362-.774.408-1.128.053-.416.103-.727.054-.919a1.23 1.23 0 0 0-.434-.734s-.044-.042-.072-.054c-.556-.363-1.119-.361-1.695-.183-.227.098-.8.308-1.137 1.145-.325.809-.032 2.402.713 3.142 0 0 .644.518 1.106.682 0 0-3.78 12.429-4.08 13.186-.075.152-.225.267-.338.455a1.65 1.65 0 0 1-.488-1.165c-.031-.76-.075-1.262-.075-1.262.02-.621.015-2.311.015-2.311 0-.036.032-.887.088-2.623s.468-4.25.528-4.68.42-3.05.533-3.656l.486-2.125c.077-.454.152-.948.265-1.403.15-.871.374-1.743.525-2.58.075-.226.112-.491.075-.718-.075-.266-.334-.702-.45-.76-.117-.056-.488-.036-.64.077a9 9 0 0 0-.711.986c-.188.228-.225.569-.414.757q-.393.457-.9.798c-.323.211-.646.402-.97.59l-1.485.827a.34.34 0 0 0-.21.117l-.003.001-.001.003a.28.28 0 0 0-.047.186q0 .036.01.066.002.015.005.03l.01-.002c.06.083.257.074.795-.283a7 7 0 0 0 .201-.137l1.433-.943 1.088-.758-.113.569c-.225.872-.356 1.229-.58 2.062-.113.493-.282 1.464-.395 1.955-.15.57-.488 4.438-.526 4.703q0 .066-.005.172a48 48 0 0 0-.122 1.526l-.06.653v.547a34 34 0 0 0 .035 3.36c.01.43.023.814.039 1.098.04.305.151 1.215.19 1.403l.336 1.63c.127.544.282 1.086.573 1.56l.002.007h.001q.08.13.174.254c.226.303.637.417.976.227.3-.189.562-.455.675-.796.264-.682 3.895-13.347 3.926-13.502.904.174 2.809.502 1.994 1.194-.177.16-.725.78-1.047 1.274-.321.493-.857 1.656-.933 1.942l-.25.685c-.038.13-.235.717-.273.938a12 12 0 0 0-.223 1.624c-.038.763.074 1.496.71 2.133.185.16.372.191.596.191.56-.032 1.008-.255 1.382-.573.15-.16.523-.477.562-.51.223-.222.448-.446.633-.668.412-.478.747-.956 1.121-1.433.336-.445.71-.89 1.082-1.337l1.383-1.878c.359-.563.71-1.051.934-1.337.337-.382.598-.795.934-1.176.335-.383.672-.925 1.045-1.307.041-.043-1.104.787-1.696 1.317M54.191 13.8c1.475-.114 4.145-2.19 4.145-2.19l-2.61.98c-2.61.982-3.911.802-3.911.802M50.805 13.503c1.61-.319 4.283-3.05 4.283-3.05l-2.749 1.462c-2.75 1.461-4.206 1.419-4.206 1.419"/><path fill="#fff" d="M48.006 13.475C49.33 12.814 51.08 10 51.08 10l-2.075 1.844c-2.075 1.844-3.342 2.184-3.342 2.184M45.125 14.274c1.207-.863 2.498-3.918 2.498-3.918l-1.764 2.149c-1.764 2.15-2.962 2.686-2.962 2.686"/><path fill="#fff" d="M42.44 16.2c1.056-1.046 1.847-4.271 1.847-4.271l-1.401 2.406c-1.402 2.407-2.5 3.13-2.5 3.13M53.16 41.402s.131-.126.285-.32c.153-.193.275-.08.284-.077.01.003.093.077.093.077l-.464.407-.198-.07"/><path fill="#fff" d="M53.329 49.07c-.402-.081-.733-.541-.82-.937-.062-.524.08-1.048.21-1.55.19-.501.447-.972.683-1.298l.239-.29a14 14 0 0 1 1.35-1.197c.049-.003 1.983 1.027 1.385 3.214a8 8 0 0 1-.139.488 3.7 3.7 0 0 1-.45.83c-.338.36-.972.891-2.458.74m4.895-7.686-2.473 1.258c-.08.044-.307.181-.365.182-.09.002-.07.04-.35-.166s-.766-.378-1.35-1.951c-.585-1.574.005-2.17.005-2.17s-.278.122-.42.22c-.278.19-.457.322-.626.575-.271.394-.406.816-.372 1.21.034.505.17.983.541 1.404.169.226.523.584.608.648.087.063.254.205.323.264.068.06.339.245.512.348.156.092.34.147.35.22.011.075-.321.28-.346.301-.215.147-3.635 2.52-2.392 4.88.281.843 1.68 1.066 2.044 1.06.208-.003.49-.037.771-.092l-.001.001c-.015.005-.004.002.024-.005.228-.045.454-.103.643-.172.128-.046.46-.244.48-.255 1.326-.741 1.681-1.626 1.775-3.415.044-1.104-1.167-2.202-1.784-2.688a.1.1 0 0 1-.007-.024c0-.063.096-.105.236-.161l.976-.526c.171-.085.917-.545 1.143-.668.18-.1.428-.307.428-.446-.17.056-.272.113-.373.168M6.372 31.35v.575s1.269.413 1.968-.217c.68-.61.959-1.84.92-2.512 0 0-.812 3.238-2.888 2.12"/><path fill="#fff" d="m49.507 26.744-.055-.07-.585-.85c-.085-.172-.575-.635-.509-.897.06-.237.328-.413.494-.36.576.187.643.752.718 1.25.06.403.006.65-.063.927m9.744 12.57c-.186.364-.415.352-.601.028-.415-.678-.795-1.399-1.17-2.08-.528-1.012-1.015-2.024-1.607-2.95-.55-.892-1.172-1.739-1.755-2.588-.174-.21-.232-.395-.145-.633l.97-2.855c.234-.638.544-1.245.74-1.876.29-.795.54-1.625.753-2.449.075-.352.075-.695.074-1.038-.009-.076-.137-.214-.174-.21-.152-.021-.34 0-.407.083-.168.171-.26.372-.35.574 0 0-.566 1.398-.677 1.754-.148.396-.218.787-.325 1.181l-.827 2.457c-.197.595-.38 1.319-.539 1.947-.124-.1-.956-1.08-1.342-1.495-.552-.586-1.106-1.188-1.698-1.77-.082-.066-.185-.127-.198-.239.025-.46.14-.974.095-1.39-.126-.824-.428-1.517-1.156-1.969-.085-.066-.28-.122-.387-.071-.44.125-.667.456-.85.857-.236.6-.021 1.187.156 1.777.278.808.733 1.519 1.333 2.177.39.453 1.847 2.39 2.161 2.851 0 0 .498.66.57.736.505.528.644.693.372 1.332-.11.356-.337.687-.526 1.051-.452.699-.95 1.364-1.568 1.93-.294.261-.438.49-.963.644q-.09.012-.205.017h-.203c-.434-.024-.915-.1-1.226-.726 0 0 .38 1.084.98 1.144a3.7 3.7 0 0 0 1.533-.154c.792-.355 1.316-1.1 1.845-1.77.2-.251.35-.611.54-.937.192-.328.387-.616.602-1.06.27.39.456.713.642 1.035l1.088 1.672c.088.104.14.25.233.393.359.531.79 1.018 1.116 1.591.477.903 1.49 2.022 1.942 2.227.5.225 1.24-.016 1.52-.352.53-.637 1.105-2.578 1.583-4.486.6-2.401 1.048-4.78 1.048-4.78s-1.33 4.754-2.997 8.42"/><path fill="#fff" d="M49.342 27.505c-.255.447-.514.856-.697 1.26-.357.878-.692 1.803-1.01 2.677l-1.106 3.367q-.255.772-.622 1.557c-.12.28-.398.794-.44.812-.044.017-.075.004-.117-.026s-.132-.265-.156-.402c-.025-.136.009-.611.012-.917-.02-.187.011-.544-.009-.734.034-.384.014-.6.011-.983.1-1.5.126-2.99.265-4.492.078-1.345.27-2.7.42-4.092.037-.69.263-1.402-.19-2.076-.132-.177-.488-.671-.71-.646a.74.74 0 0 0-.362.155l-.302.338c-.13.206-.257.41-.345.65-.154.321-.074.694-.187 1.052-.104.429-.05.921-.15 1.39-.046.271-.012.573-.095.848 0 0-.834 2.49-2.623 5.024l-.49.703c-.489-.327-.588-.889-.754-1.365-.052-.147-.051-1.107-.01-1.83.013-.228.664-6.128.592-6.323.015.041-.684-.039-.816.13l-.047.042c-.157.11-.365.31-.58.666l-.018.03c-.237.4-.48.995-.672 1.872l-.016.055q-.008.04-.014.079c-.09.443-.169.956-.227 1.547a8 8 0 0 0-.083.585c-.017.25-.022 1.241-.025 1.507l.002.126a8.5 8.5 0 0 0 .135 1.61c.14.945.422 2.003.994 2.42h.002q.262.236.626.34.209.069.388.075c1.106 0 2.307-2.566 2.977-4.255 0 0 .453-1.276.53-1.444.084-.18.199-.632.23-.714a129 129 0 0 1-.108 2.178s-.114 2.412-.024 3.584c.067.946.17 1.889.497 2.807.177.589.383 1.101.773 1.553.347.419.728.453 1.056-.004.328-.456.656-.91.825-1.426.462-1.311.803-2.684 1.222-4.029l.7-2.214.733-1.951.096-.208c.448-.05.2-.406-.08-.908M22.024 40.114s-.336 2.06-.464 2.527c-.128.466 1.438-.542 1.438-.542l.471-1.944zM53.062 38.91s.89-.805 1.575-.336c0 0-1.027-.248-1.202.688-.192 1.029-.415 1.066-.427.957s.054-1.308.054-1.308"/><path fill="#fff" d="M54.638 38.574s-1.578-.274-1.12 1.588c.459 1.861-.754.336-.754.336s.36-1.255.36-1.27c0-.014.244-.402.258-.416s.244-.155.319-.18c.075-.023.405-.072.405-.072l.278-.063"/></svg>